<svg xmlns="http://www.w3.org/2000/svg" viewBox="0 0 63 63"><title>Envelope</title><g id="Layer_2" data-name="Layer 2"><g id="Layer_1-2" data-name="Layer 1"><path d="M31.5,63A31.5,31.5,0,1,0,0,31.5,31.5,31.5,0,0,0,31.5,63ZM49,26.87V42.38a3.13,3.13,0,0,1-3.12,3.13H17.13A3.13,3.13,0,0,1,14,42.38V26.87a10.35,10.35,0,0,0,2,1.7q7.07,4.8,9.71,6.74,1.11.82,1.81,1.28a11.21,11.21,0,0,0,1.85.94,5.61,5.61,0,0,0,2.15.48h0a5.63,5.63,0,0,0,2.15-.48,11.21,11.21,0,0,0,1.85-.94q.92-.62,1.81-1.28,3.32-2.4,9.73-6.74A10.77,10.77,0,0,0,49,26.87Zm0-5.74a5.17,5.17,0,0,1-1,3,9.29,9.29,0,0,1-2.38,2.4l-9.14,6.35-.83.6-1.06.74q-.42.28-1,.63a5.91,5.91,0,0,1-1.12.53,3.1,3.1,0,0,1-1,.18h0a3.11,3.11,0,0,1-1-.18,5.92,5.92,0,0,1-1.12-.53q-.52-.3-1-.63l-1.05-.74-.83-.6-5.12-3.56-4-2.78a9.72,9.72,0,0,1-2.28-2.26A4.56,4.56,0,0,1,14,21.56,4,4,0,0,1,14.81,19a2.79,2.79,0,0,1,2.32-1H45.88A3.15,3.15,0,0,1,49,21.13Z"/></g></g></svg>