<svg xmlns="http://www.w3.org/2000/svg" viewBox="0 0 312.08 467.57"><title>Horns</title><g id="Layer_2" data-name="Layer 2"><g id="Layer_1-2" data-name="Layer 1"><path d="M296.11,365.1c-3.92,15.24-12.61,31-22.63,47.87C233.19,481,142,448.22,142,448.22,87.42,450.86,62.5,424,49.63,407.93c-2.93-4.49-8.9-14.8-11.06-27.19-5.39-28-12.63-82.32-1.3-123.76L5.41,99.55s-6.63-20.75,11.95-32C29.71,60.13,46.14,67,49.8,80.89c.17.66.24,1,.24,1S73,209.33,74.18,215.05s8.3,13,8.3,13-.12-27.38,0-35.9,1.58-8.83,1.58-8.83c2.57-6.33,11.85-20.66,28-21.08,18.76-.49,25.76,9.07,26.26,10.87,4.16,15,2,32,2.33,45.1.4,13.62-.07,17.94-.07,17.94-7.09,1.07-10.18,12.4-11.32,18.32a12.92,12.92,0,0,1-4.16,7.15c-20,17.7-39.05-3.14-39.05-3.14,20.77,29,43.5,16.76,43.5,16.76.61,31.6,47.67,39,47.67,39-61.46,26.77-49,88.59-49,88.59s.49-21.18,14.87-49.65,63.66-39.43,63.66-39.43,11.21,16.55,18.78,26,1.71,21.42,1.71,21.42A44.81,44.81,0,0,0,233,338a149.77,149.77,0,0,0-28.2-39.33c-16.1,9.73-29,5.6-29,5.6-29-9.25-40-18.51-42.19-39s17.32-22.76,17.32-22.76c26.84,2.8,55.11-7.82,55.11-7.82,17.56-6.49,28.77,4.3,28.77,4.3l48,34.88c15.1,10.08,17.32,40.4,17.32,40.4s3.17,22.79-4,50.79M208.83,182.49,208.68,226c-27.36,12.19-57.79,8.73-57.79,8.73S152.27,212,152,195.79c0-.56.28-15.49,7.43-24.21a30.53,30.53,0,0,1,40.74-5.89l3.25,4c3.46,4.21,5.42,7.39,5.4,12.84m15.09,22.61,6.57-171c0-.45,2.81-17.38,14-23.51a40.53,40.53,0,0,1,12-4.38c12.28-2.31,20.63,7.78,23.43,16.74a1.79,1.79,0,0,1,.05,1.06L268.36,257l-30.49-20.87q-2.38-2.12-4.82-4.17a26.85,26.85,0,0,1-9.27-22.84c.09-1.25.15-2.59.15-4m79.34,84c-8.78-18.5-18.77-23.15-18.77-23.15S298.72,51.57,296,28.85C294.12,13.61,283.33,6.24,276.42,3A34.57,34.57,0,0,0,268.18.54a57,57,0,0,0-10-.51c-4.09.56-12.92.1-24,13.41,0,0-7.37,6.42-6.89,26.15.48,20.07-7.37,142.72-7.37,142.72l.48,5.72,0,8.76c-.07-5.73-.22-11-.52-14.47a29.19,29.19,0,0,0-8.17-17.1l-4.4-3.76c-20.42-16.22-41.3-1-41.3-1a33.33,33.33,0,0,0-14.8,24.1,30.71,30.71,0,0,0-6.74-13.86l.08,0s-6.28-9-20.15-11.95a29.57,29.57,0,0,0-5.16-.8l-.14,0h0C94,156.1,87.71,172.4,84.87,176.2c-2.26-16.95-10.65-75.94-18.78-95.29-10-23.68-34.62-21.57-36-21.47C-5.73,61.71.4,98.36.4,98.36l26.74,153.7c-5.51,57.52-3,92.18.88,116.53l3.13,14.6s6.63,23.3,14.44,31.08l2.9,3.13c32.19,40.65,94.33,38.94,94.33,38.94,52.68,15.83,71.44,10.3,71.44,10.3,38.69-6.16,64.66-41.54,64.66-41.54s9.39-11.27,11.6-15.58c31.71-61.74,21.52-101.89,12.74-120.39"/></g></g></svg>