<svg xmlns="http://www.w3.org/2000/svg" viewBox="0 0 242 207"><title>Sketch</title><g id="Layer_2" data-name="Layer 2"><g id="Layer_1-2" data-name="Layer 1"><rect x="166.52" y="182.35" width="45.11" height="8" rx="4" ry="4"/><rect x="181.66" y="163.35" width="45.11" height="8" rx="4" ry="4"/><rect x="30.27" y="64.85" width="45.11" height="8" rx="4" ry="4"/><rect x="15.13" y="45.85" width="45.11" height="8" rx="4" ry="4"/><rect x="53.69" y="13.08" width="10.76" height="10.76" rx="1.74" ry="1.74"/><rect x="36.07" y="13.08" width="10.76" height="10.76" rx="1.74" ry="1.74"/><rect x="18.44" y="13.08" width="10.76" height="10.76" rx="1.74" ry="1.74"/><path d="M242,12.28A12.28,12.28,0,0,0,229.72,0H12.28A12.28,12.28,0,0,0,0,12.28V194.72A12.28,12.28,0,0,0,12.28,207H229.72A12.28,12.28,0,0,0,242,194.72ZM11.9,9H229.81c1.81,0,3.19-.18,3.19,1.63V32H9V10.63C9,8.82,10.1,9,11.9,9ZM229.81,198H11.9c-1.81,0-2.9-3.12-2.9-4.93V40H233V193.07C233,194.88,231.62,198,229.81,198Z"/><path d="M196.72,108.52l-19.14-27a3,3,0,0,0-2.44-1.26L68.94,79.85a3,3,0,0,0-2.41,1.2l-21,28a3,3,0,0,0,.29,3.93l72.93,72.31a3,3,0,0,0,4.23,0l73.43-72.86A3,3,0,0,0,196.72,108.52ZM139.37,89h20.29c2.54,0,3.93,2.39,2.3,4.34l-8.62,10.05a3,3,0,0,1-4.29.18l-11.67-9.84C135.31,91.91,136.61,89,139.37,89Zm-20,1.85a3,3,0,0,1,3.92,0l12.5,11.31c2.11,1.81.83,5.85-2,5.85H109c-2.78,0-4.06-4-2-5.84ZM83.09,89H103.2c2.77,0,4.06,2.87,2,4.69L93.6,103.47a3,3,0,0,1-4.26-.47l-8.53-9.57C79.15,91.49,80.54,89,83.09,89Zm-23,13.66,6.38-9.05a3,3,0,0,1,4.7-.33l7.53,9.27c1.67,1.95.29,5.46-2.28,5.46H62.51C60.06,108,58.64,104.64,60.08,102.66Zm39.26,53L63.15,120.56c-1.91-1.88-.58-4.56,2.11-4.56H86.41c1.21,0,2.3.15,2.76,1.26l15,35.41C105.49,155.7,101.68,158,99.34,155.69Zm18.85,10.75L98.13,119.59c-.84-2,.62-3.59,2.76-3.59h39.94c2.14,0,3.6,1.61,2.77,3.58l-19.88,47.13C122.69,169.16,119.22,168.88,118.19,166.43Zm60.61-45.89-36.29,35.87c-2.33,2.32-6.15-.4-4.89-3.43l15.11-35.65c.47-1.12,1.56-1.34,2.77-1.34h21.17C179.36,116,180.7,118.66,178.8,120.55ZM179.89,108H166.41c-2.55,0-3.94-3.57-2.29-5.52l7.34-9a3,3,0,0,1,4.74.06l6.15,9.17C183.75,104.75,182.33,108,179.89,108Z"/></g></g></svg>