<svg xmlns="http://www.w3.org/2000/svg" viewBox="0 0 63 63"><title>Twitter</title><g id="Layer_2" data-name="Layer 2"><g id="Layer_1-2" data-name="Layer 1"><path d="M31.5,63A31.5,31.5,0,1,0,0,31.5,31.5,31.5,0,0,0,31.5,63ZM53,18.15a18.47,18.47,0,0,1-4.42,4.56q0,.38,0,1.15a25,25,0,0,1-1,7.08,25.58,25.58,0,0,1-3.15,6.78,26.65,26.65,0,0,1-5,5.74,22.39,22.39,0,0,1-7,4,25.76,25.76,0,0,1-8.81,1.49A24.48,24.48,0,0,1,10,45a19,19,0,0,0,2.13.11,17.25,17.25,0,0,0,10.94-3.76,8.83,8.83,0,0,1-8.24-6.11,11.29,11.29,0,0,0,1.66.14,9.12,9.12,0,0,0,2.32-.3,8.67,8.67,0,0,1-5.06-3,8.52,8.52,0,0,1-2-5.61v-.11a8.74,8.74,0,0,0,4,1.12,8.8,8.8,0,0,1-2.86-3.14A8.83,8.83,0,0,1,13,15.61a25,25,0,0,0,8,6.51,24.56,24.56,0,0,0,10.14,2.72,9.79,9.79,0,0,1-.22-2A8.8,8.8,0,0,1,39.77,14a8.5,8.5,0,0,1,6.44,2.78,17.28,17.28,0,0,0,5.59-2.13,8.55,8.55,0,0,1-3.87,4.86A17.52,17.52,0,0,0,53,18.15Z"/></g></g></svg>