<?xml version="1.0" standalone="no"?>
<!DOCTYPE svg PUBLIC "-//W3C//DTD SVG 20010904//EN"
 "http://www.w3.org/TR/2001/REC-SVG-20010904/DTD/svg10.dtd">
<svg version="1.0" xmlns="http://www.w3.org/2000/svg"
 width="503.000000pt" height="503.000000pt" viewBox="0 0 503.000000 503.000000"
 preserveAspectRatio="xMidYMid meet">
<metadata>
Created by potrace 1.11, written by Peter Selinger 2001-2013
</metadata>
<g transform="translate(0.000000,503.000000) scale(0.100000,-0.100000)"
fill="#2DCCD3" stroke="none">
<path d="M975 5022 c-47 -4 -186 -34 -215 -45 -8 -3 -33 -11 -55 -18 -92 -28
-239 -117 -342 -206 -156 -135 -304 -385 -337 -568 -3 -17 -9 -41 -13 -55 -4
-14 -9 -729 -10 -1590 -2 -1300 0 -1578 12 -1642 16 -89 35 -159 47 -173 4 -5
8 -16 8 -25 0 -26 88 -190 139 -259 134 -180 339 -328 536 -389 174 -53 78
-51 1785 -49 866 2 1589 6 1605 10 46 11 69 16 75 16 13 -1 162 57 215 83 178
89 337 234 437 398 72 119 128 259 144 355 2 17 7 46 11 65 3 19 7 721 8 1559
1 1225 -1 1543 -12 1615 -50 347 -276 656 -591 810 -78 39 -198 80 -262 91
-25 4 -54 10 -65 13 -21 5 -3067 10 -3120 4z m1620 -838 c152 -52 268 -184
316 -362 28 -106 20 -270 -19 -389 -38 -113 -75 -187 -140 -278 -143 -200
-355 -349 -625 -440 -55 -19 -104 -40 -108 -47 -9 -16 -49 -184 -49 -205 0
-15 15 -15 80 1 184 47 354 32 526 -44 123 -55 247 -157 339 -278 23 -31 47
-52 58 -52 12 0 53 35 100 85 94 101 169 161 269 214 72 39 175 77 233 86 17
3 42 8 56 11 15 3 70 7 123 9 169 7 238 -16 239 -81 0 -16 -12 -81 -27 -144
-38 -157 -41 -160 -182 -165 -204 -6 -331 -71 -471 -237 -46 -56 -113 -164
-113 -183 0 -27 107 -157 178 -217 57 -49 168 -111 255 -143 70 -26 82 -55 61
-142 -51 -219 -65 -244 -129 -238 -75 7 -287 109 -390 189 -22 16 -71 60 -108
96 -38 36 -75 69 -83 73 -18 11 -47 -6 -69 -40 -10 -15 -48 -59 -84 -97 -185
-193 -394 -287 -643 -290 -97 -1 -109 1 -129 20 -29 29 -27 58 9 203 39 151
41 154 162 165 99 9 190 50 270 119 78 68 230 273 230 310 0 21 -95 177 -151
247 -73 93 -200 157 -322 164 -179 9 -347 -109 -441 -309 -23 -50 -106 -331
-121 -413 -20 -111 -39 -121 -215 -120 -133 0 -134 0 -162 28 -31 31 -33 43
-17 110 6 25 12 53 14 62 2 9 13 50 24 90 11 40 22 84 25 98 9 44 15 71 21 90
3 10 8 27 10 37 2 10 12 47 20 83 9 36 18 72 20 80 6 26 32 129 103 414 69
273 70 278 51 297 -10 10 -29 19 -42 19 -31 0 -133 40 -204 81 -93 52 -211
178 -260 279 -45 90 -72 180 -75 243 -1 29 5 44 24 64 25 25 29 25 166 25 97
-1 147 -5 161 -14 12 -7 29 -39 42 -77 11 -36 34 -83 50 -106 63 -87 231 -157
258 -107 5 9 43 153 85 319 41 167 90 342 109 390 89 236 230 382 413 428 73
18 209 13 279 -11z"/>
<path d="M2379 3805 c-67 -37 -109 -130 -178 -395 -52 -201 -53 -222 -11 -233
30 -8 130 71 207 163 95 113 145 225 144 323 -1 125 -75 189 -162 142z"/>
</g>
</svg>
