<svg xmlns="http://www.w3.org/2000/svg" viewBox="0 0 525.56 707.55"><title>Coffee_cup</title><path d="M271 249.87a232.57 232.57 0 0 0-17.14-71.8c-4.9-11.81-10.5-22.8-18.77-32.61-6.78-8-14.66-15-22.12-22.37-8.43-8.32-16.13-17.22-22.11-27.49-7.47-12.84-13.16-27-18.61-40.77A448.92 448.92 0 0 1 155 3.74a3.59 3.59 0 0 0-2.22-3.27C150.09-.92 146 .89 146 4.38c-1 11.94.3 24.24 1.93 36 3.71 26.9 11.54 55 25 78.72C184.76 140 202.7 156.83 218 175c16.09 19 24.9 43 32.95 66.34 4.47 13 8.81 26.4 10.94 40 .67 4.26 8.09 4.34 8.68 0 1.43-10.41 1.2-21.07.43-31.47zm-21.52-37.49c-4.74-11.26-9.27-23.13-16.53-33.05-13.84-18.9-31.36-34.8-45.11-53.8-16-22.13-24.62-50.2-29.5-76.84-.59-3.2-1.13-6.45-1.62-9.73q1.33 3.7 2.69 7.38c9.3 25.08 19.18 51.48 36.77 72 13.66 16 31.55 28.29 41.89 47 12.7 22.93 20.16 50 23.13 76q.18 1.59.34 3.18c-3.54-10.92-7.63-21.61-12.06-32.14zm-3.28 102.18a232.57 232.57 0 0 0-17.14-71.8c-4.9-11.81-10.5-22.8-18.77-32.61-6.78-8-14.66-15-22.12-22.37-8.43-8.32-16.13-17.22-22.11-27.49-7.47-12.84-13.16-27-18.61-40.77a448.92 448.92 0 0 1-17.25-51.08 3.59 3.59 0 0 0-2.2-3.27c-2.69-1.38-6.78.42-6.76 3.91-1 11.94.3 24.24 1.93 36 3.71 26.9 11.54 55 25 78.72 11.81 20.81 29.75 37.68 45.09 55.81 16.09 19 24.9 43 32.95 66.34 4.47 13 8.81 26.4 10.94 40 .67 4.26 8.09 4.34 8.68 0 1.39-10.32 1.17-20.95.37-31.39zm-21.52-37.49c-4.74-11.26-9.27-23.13-16.53-33.05-13.84-18.9-31.36-34.8-45.11-53.8-16-22.13-24.62-50.2-29.5-76.84-.59-3.2-1.13-6.45-1.62-9.73q1.33 3.7 2.69 7.38c9.3 25.08 19.18 51.48 36.77 72 13.66 16 31.55 28.29 41.89 47 12.7 22.93 20.16 50 23.13 76q.18 1.59.34 3.18c-3.57-10.91-7.63-21.6-12.06-32.14zM2.49 356.32v.83l.84-.83h-.84zm-1.66-1.66v-.84l-.83.84h.83z"/><path d="M434.07 430c-18.46-50.17-117.45-73.57-211.17-74.13v.1-.1a233.9 233.9 0 0 0-8.65-24.71c-4.9-11.81-10.5-22.8-18.77-32.61-6.77-8-14.66-15-22.11-22.38-8.42-8.32-16.13-17.22-22.1-27.49-7.47-12.84-13.16-27-18.62-40.77a449.59 449.59 0 0 1-17.25-51.08 3.59 3.59 0 0 0-2.23-3.28c-2.69-1.38-6.78.43-6.75 3.91-1 11.94.3 24.24 1.93 36 3.71 26.9 11.54 55 25 78.72 11.81 20.81 29.75 37.68 45.09 55.81a133.62 133.62 0 0 1 17.93 28.27C98.65 360.27 1.66 389.09 1.66 447.29a219.73 219.73 0 0 0 96.18 181.16c-22.33 6.44-44.66 16.8-44.66 32.55 0 30.27 86.45 46.6 167.79 46.6s167.79-16.35 167.79-46.65c0-16.11-23.48-26.62-46.85-33.08a214.67 214.67 0 0 0 21.44-16.76 19.77 19.77 0 1 0 30.8-11.11c41.58.35 128.1-6.45 131.28-87 3.7-93.82-72.77-86.18-91.36-83zm-240.75-97.54c-13.84-18.9-31.36-34.8-45.11-53.8-16-22.13-24.62-50.2-29.5-76.84-.59-3.22-1.14-6.48-1.62-9.77q1.34 3.72 2.71 7.42c9.31 25.08 19.18 51.47 36.77 72 13.66 16 31.54 28.3 41.88 47 12.7 22.93 20.16 50 23.13 76q.18 1.59.34 3.18c-3.56-10.86-7.62-21.55-12-32.08-4.81-11.32-9.33-23.19-16.6-33.11zm134.2 293.21l-10.08 6.15 11.5 2.65c37.06 8.53 50.2 19.53 50.2 26.44 0 15.46-60.18 37-158.18 37-43.12 0-83.62-4.3-114.05-12.11-32.52-8.32-44.12-18.29-44.12-24.8s12.58-17.49 48-26l11.42-2.73-10.06-6.06C49.94 588.67 11.28 520.13 11.28 447.29c0-50.33 92.57-78.31 189.3-81.59q2.09 4.89 4 9.86c-49.34 1.26-92.2 8.15-118.62 18.12-30.2 9-48.71 21-48.71 34.17 0 27.87 82.26 50.45 183.74 50.45s183.74-22.59 183.74-50.45c0-13.2-18.53-25.2-48.77-34.19-28.15-10.61-74.93-17.73-128.31-18.28q-1-4.94-2.17-9.83c52.93.53 102 8.06 138.71 21.33 28.91 10.45 63.37 29.41 63.37 60.41-.03 72.43-38.35 140.78-100.04 178.38zm-96.24-223.76v.09zm157 182.87a220.63 220.63 0 0 0 46.86-108.58c13.07-3.13 52.14-8.46 57 38 7 67.6-76.45 71.2-103.83 70.58z"/></svg>
