<svg xmlns="http://www.w3.org/2000/svg" viewBox="0 0 242 207"><title>Sketch</title><rect x="166.52" y="182.35" width="45.11" height="8" rx="4" ry="4"/><rect x="181.66" y="163.35" width="45.11" height="8" rx="4" ry="4"/><rect x="30.27" y="64.85" width="45.11" height="8" rx="4" ry="4"/><rect x="15.13" y="45.85" width="45.11" height="8" rx="4" ry="4"/><rect x="53.69" y="13.08" width="10.76" height="10.76" rx="1.74" ry="1.74"/><rect x="36.07" y="13.08" width="10.76" height="10.76" rx="1.74" ry="1.74"/><rect x="18.44" y="13.08" width="10.76" height="10.76" rx="1.74" ry="1.74"/><path d="M242 12.28A12.28 12.28 0 0 0 229.72 0H12.28A12.28 12.28 0 0 0 0 12.28v182.44A12.28 12.28 0 0 0 12.28 207h217.44A12.28 12.28 0 0 0 242 194.72zM11.9 9h217.91c1.81 0 3.19-.18 3.19 1.63V32H9V10.63C9 8.82 10.1 9 11.9 9zm217.91 189H11.9c-1.81 0-2.9-3.12-2.9-4.93V40h224v153.07c0 1.81-1.38 4.93-3.19 4.93z"/><path d="M196.72 108.52l-19.14-27a3 3 0 0 0-2.44-1.26l-106.2-.41a3 3 0 0 0-2.41 1.2l-21 28a3 3 0 0 0 .29 3.93l72.93 72.31a3 3 0 0 0 4.23 0l73.43-72.86a3 3 0 0 0 .31-3.91zM139.37 89h20.29c2.54 0 3.93 2.39 2.3 4.34l-8.62 10.05a3 3 0 0 1-4.29.18l-11.67-9.84c-2.07-1.82-.77-4.73 1.99-4.73zm-20 1.85a3 3 0 0 1 3.92 0l12.5 11.31c2.11 1.81.83 5.85-2 5.85H109c-2.78 0-4.06-4-2-5.84zM83.09 89h20.11c2.77 0 4.06 2.87 2 4.69l-11.6 9.78a3 3 0 0 1-4.26-.47l-8.53-9.57c-1.66-1.94-.27-4.43 2.28-4.43zm-23 13.66l6.38-9.05a3 3 0 0 1 4.7-.33l7.53 9.27c1.67 1.95.29 5.46-2.28 5.46H62.51c-2.45-.01-3.87-3.37-2.43-5.35zm39.26 53l-36.2-35.1c-1.91-1.88-.58-4.56 2.11-4.56h21.15c1.21 0 2.3.15 2.76 1.26l15 35.41c1.32 3.03-2.49 5.33-4.83 3.02zm18.85 10.75l-20.07-46.82c-.84-2 .62-3.59 2.76-3.59h39.94c2.14 0 3.6 1.61 2.77 3.58l-19.88 47.13c-1.03 2.45-4.5 2.17-5.53-.28zm60.61-45.89l-36.29 35.87c-2.33 2.32-6.15-.4-4.89-3.43l15.11-35.65c.47-1.12 1.56-1.34 2.77-1.34h21.17c2.68.03 4.02 2.69 2.12 4.58zm1.08-12.52h-13.48c-2.55 0-3.94-3.57-2.29-5.52l7.34-9a3 3 0 0 1 4.74.06l6.15 9.17c1.4 2.04-.02 5.29-2.46 5.29z"/></svg>
