<svg xmlns="http://www.w3.org/2000/svg" viewBox="0 0 412.53 341.79"><title>tshirt</title><g><path d="M0,136.2s88,37.31,87.82,33.13L83.3,27.18C83.06,19.7,73,17.11,69,23.5,69,23.5,0,134.82,0,136.2Z"/><path d="M343.53,23.43c-4-6.39-14.06-3.8-14.3,3.68L324.7,169.25c-.13,4.18,87.82-33.13,87.82-33.13C412.53,134.75,343.53,23.43,343.53,23.43Z"/><path d="M314.69,262.86a7.34,7.34,0,0,1,0-.9l9.81-234.27a7.56,7.56,0,0,0-7.71-7.77L257.84,0c0,.45,0,21,0,21.56a51.61,51.61,0,0,1-103.22,0c0-.57,0-21.12,0-21.58L95.75,19.92A7.56,7.56,0,0,0,88,27.69L97.85,262a7.1,7.1,0,0,1,0,.89l-9.46,70.86a7.55,7.55,0,0,0,7.69,8.05h220.4a7.55,7.55,0,0,0,7.69-8.06Z"/></g></svg>
