<svg xmlns="http://www.w3.org/2000/svg" viewBox="0 0 242 207" id="analytics"><title>analytics</title><rect x="149.42" y="86.92" width="10.25" height="58.29" rx="4.5" ry="4.5"/><rect x="126.95" y="107.96" width="10.25" height="37.24" rx="4.5" ry="4.5"/><rect x="104.47" y="119" width="10.25" height="26.21" rx="4.5" ry="4.5"/><path d="M132.08 180.5c-.9 0-1.81 0-2.7-.06a3.75 3.75 0 1 1 .32-7.48c.79 0 1.59.05 2.37.05a54 54 0 0 0 15-2.12 3.79 3.79 0 0 1 3.27.59 3.76 3.76 0 0 1 1.52 3 3.79 3.79 0 0 1-.74 2.23 3.7 3.7 0 0 1-2 1.36 61.62 61.62 0 0 1-17.04 2.43zm-12.65-1.39a3.85 3.85 0 0 1-.82-.09 3.73 3.73 0 1 1 .82.09zm-7.83-2.34a3.71 3.71 0 0 1-1.33-.24 61.29 61.29 0 0 1-17.27-10 3.74 3.74 0 1 1 4.76-5.78 53.8 53.8 0 0 0 15.16 8.8 3.75 3.75 0 0 1-1.33 7.25zm44.21-1.36a3.75 3.75 0 1 1 3.41-5.29 3.75 3.75 0 0 1-3.41 5.29zm8.88-5a3.74 3.74 0 0 1-2.12-6.83 54.18 54.18 0 0 0 12.67-12.13 3.75 3.75 0 0 1 6 4.51 61.73 61.73 0 0 1-14.42 13.8 3.73 3.73 0 0 1-2.12.64zM88.12 160.2A3.74 3.74 0 1 1 91 154a3.75 3.75 0 0 1-2.85 6.17zm-4.84-6.57a3.73 3.73 0 0 1-3.17-1.74 61.06 61.06 0 0 1-7.81-18.38 3.75 3.75 0 0 1 2.76-4.51 3.79 3.79 0 0 1 3.18.69 3.7 3.7 0 0 1 1.34 2.07 53.59 53.59 0 0 0 6.85 16.13 3.75 3.75 0 0 1-3.16 5.75zm99.41-3a3.75 3.75 0 0 1-3.29-5.63 3.74 3.74 0 0 1 6.56 3.62 3.75 3.75 0 0 1-3.28 1.97zm4.12-9.33a3.75 3.75 0 0 1-3.55-4.95 53.92 53.92 0 0 0 2.82-17.35 3.74 3.74 0 0 1 7.49 0 61.36 61.36 0 0 1-3.23 19.71 3.74 3.74 0 0 1-3.55 2.54zm-112.37-15a3.74 3.74 0 0 1-.22-7.48h.23a3.75 3.75 0 0 1 .22 7.48zm.08-8.16h-.3a3.75 3.75 0 0 1-3.45-3.74v-.29a61.07 61.07 0 0 1 4.79-19.41A3.74 3.74 0 0 1 79 92.44a3.7 3.7 0 0 1 1.48.31 3.75 3.75 0 0 1 2 4.92 53.66 53.66 0 0 0-4.21 17 3.75 3.75 0 0 1-3.73 3.45zm114.6-4.5a3.74 3.74 0 0 1-3.7-3.16 53.51 53.51 0 0 0-5.53-16.63 3.75 3.75 0 0 1 6.63-3.5 61.11 61.11 0 0 1 6.31 18.95 3.76 3.76 0 0 1-3.7 4.33zM83.85 91a3.74 3.74 0 0 1-3.12-5.81A3.75 3.75 0 0 1 87 89.27 3.74 3.74 0 0 1 83.85 91zm95-2a3.76 3.76 0 0 1-3-1.55 3.75 3.75 0 1 1 3 1.55zm-90.03-4.52A3.74 3.74 0 0 1 86 78.25a61.61 61.61 0 0 1 15.43-12.57 3.75 3.75 0 1 1 3.73 6.5 54.13 54.13 0 0 0-13.6 11.08 3.75 3.75 0 0 1-2.74 1.22zm83.38-3.27a3.72 3.72 0 0 1-2.6-1.05 54 54 0 0 0-14.42-10 3.75 3.75 0 0 1 1.61-7.16 3.7 3.7 0 0 1 1.6.36 61.46 61.46 0 0 1 16.41 11.41 3.74 3.74 0 0 1-2.6 6.44zm-59.59-12.85a3.75 3.75 0 0 1-3.52-2.48 3.75 3.75 0 0 1 3.52-5 3.74 3.74 0 0 1 1.26 7.27 3.69 3.69 0 0 1-1.26.21zm36.57-.79a3.75 3.75 0 0 1-3.31-2 3.75 3.75 0 0 1 1.13-4.78 3.8 3.8 0 0 1 3.31-.55 3.74 3.74 0 0 1 1.09 6.61 3.77 3.77 0 0 1-2.23.72zm-28.71-1.41a3.76 3.76 0 0 1-3.67-3 3.7 3.7 0 0 1-.08-.75 3.75 3.75 0 0 1 3-3.66 62 62 0 0 1 19.94-.75 3.75 3.75 0 0 1-.45 7.46 3.53 3.53 0 0 1-.46 0 54.77 54.77 0 0 0-17.53.68 3.65 3.65 0 0 1-.75.02z"/><rect x="54.18" y="12.95" width="10.76" height="10.76" rx="1.74" ry="1.74"/><rect x="36.55" y="12.95" width="10.76" height="10.76" rx="1.74" ry="1.74"/><rect x="18.93" y="12.95" width="10.76" height="10.76" rx="1.74" ry="1.74"/><path d="M242 12.28A12.28 12.28 0 0 0 229.72 0H12.28A12.28 12.28 0 0 0 0 12.28v182.44A12.28 12.28 0 0 0 12.28 207h217.44A12.28 12.28 0 0 0 242 194.72zM12.38 9h217.91c1.81 0 2.71-.32 2.71 1.49V32H9V10.49C9 8.68 10.58 9 12.38 9zm217.91 189H12.38c-1.8 0-3.38-3.26-3.38-5.07V40h224v152.93c0 1.81-.9 5.07-2.71 5.07z"/></svg>
