<svg id="brokenHeart" xmlns="http://www.w3.org/2000/svg" viewBox="0 0 479.7 394">
    <title>
        BrokenHeart
    </title>
    <path class="brokenHeart-left" d="M170.7 220.3L229.5 65c-6.1-6-12.4-11.7-19.1-17-6.8-5.5-15-11.3-24.5-17.6-9.6-6.3-19.9-11.3-30.8-14.9-10.4-3.6-21.4-5.5-32.5-5.6-38.3 0-68.3 10.6-90 31.8S.1 92.4 0 130c.1 12 2.1 24 6 35.4 3.4 10.8 8 21.2 13.7 31 5.2 8.7 11.1 17.1 17.4 25 6.5 8.1 11.2 13.7 14.2 16.8 2.2 2.4 4.6 4.6 7 6.7l127.2 122.7 52.6-147.3h-67.4z"/>
    <path class="brokenHeart-right" d="M447.1 31.8C425.4 10.6 395.4 0 357.1 0c-11 .1-22 1.9-32.5 5.5-10.9 3.6-21.2 8.6-30.8 14.9-9.5 6.2-17.7 12.1-24.5 17.6-6.8 5.4-13.2 11.2-19.3 17.3l-57.7 154h67l-52.8 149.1 32.1 31c6.3 6.2 16.3 6.2 22.6 0L421 235.5c39.2-39.2 58.7-77.6 58.7-115.4 0-37.7-10.9-67.1-32.6-88.3z"/>
    <!-- <path class="bolt" d="M305.8 40l-49 13.5-33-13.5L170 226.2h56.8l-49.7 139.1 121.7-186.2h-73.3z"/> -->
</svg>
