<svg xmlns="http://www.w3.org/2000/svg" viewBox="0 0 422.81 424.56" id="clock_icon"><title>Clock_icon</title><g><path d="M246.58 421.63c114.93-19.3 192.66-128.93 173.27-244.36S291.16-16.38 176.23 2.93-16.43 131.87 3 247.3s128.65 193.64 243.58 174.33zm-35.17-4.32c-112.55 0-204.13-92-204.13-205s91.58-205 204.13-205 204.13 92 204.13 205-91.54 205-204.13 205z"/><path class="clockArms" d="M121.57 339.26c-3.45 6.85 3.32 11.37 8.31 5.55L223 236.17c1.57-1.83 3-3.75 4.44-5.71.05-.06.1-.21.16-.27 17.79-21.27 15-33.48 15-33.48a20.75 20.75 0 0 0-13.29-19.58 47.52 47.52 0 0 0-25.57-2.61l-105.79 18c-5.65 1-5.6 9.13.06 10l85.54 13.58-1.07 2zm-8-138.07a4.33 4.33 0 0 1 0-8.54l90.08-15.33a40 40 0 0 1 6.81-.58 40.55 40.55 0 0 1 15 2.87c15.09 6 15.09 27.45 0 33.46a41.34 41.34 0 0 1-21.79 2.42zM145.61 48l1.08-.43a3.13 3.13 0 0 0 1.79-4 3.12 3.12 0 0 0-4.06-1.82l-1.23.49a3.12 3.12 0 0 0-1.68 4.1 3.15 3.15 0 0 0 4.1 1.66zM32 212.62a3.11 3.11 0 0 0 3-3.08 178.16 178.16 0 0 1 20.19-79.49 3.11 3.11 0 0 0-1.24-4.19 3.13 3.13 0 0 0-4.27 1.27 184.41 184.41 0 0 0-20.91 82.08 3.37 3.37 0 0 0 3.23 3.41zM57.65 119.3a3.13 3.13 0 0 0 4.28-1l.66-1a3.13 3.13 0 0 0-.89-4.29 3.12 3.12 0 0 0-4.36.9L56.6 115a3.12 3.12 0 0 0 1.05 4.3zM155.58 41.07a2.94 2.94 0 0 0 3.65 1.79 175 175 0 0 1 52.14-8.14 177.87 177.87 0 0 1 29.67 2.77 3 3 0 0 0 3.6-2.36 2.76 2.76 0 0 0-2.53-3.26 183.32 183.32 0 0 0-30.75-2.2 181.49 181.49 0 0 0-53.76 7.72 2.8 2.8 0 0 0-2 3.64zM390.3 196.93a3.12 3.12 0 0 0-2.84 3.34q0 .62.08 1.24a3.13 3.13 0 0 0 3.25 3 3.12 3.12 0 0 0 3-3.29q0-.68-.09-1.37a3.12 3.12 0 0 0-3.39-2.88zM386 186.91a3.41 3.41 0 0 0 3.47 2.81c1.72 0 3-2 2.71-3.68a184.15 184.15 0 0 0-31.39-79.11 3.14 3.14 0 0 0-4.4-.74 3.19 3.19 0 0 0-.69 4.38 177.77 177.77 0 0 1 30.3 76.34zM35.34 224.48q0-.62-.08-1.24a3.13 3.13 0 0 0-3.25-3 3.12 3.12 0 0 0-3 3.29q0 .69.09 1.37a3.12 3.12 0 0 0 6.23-.47zM254.34 40.55l1.17.3a3.13 3.13 0 0 0 3.81-2.18 3.12 3.12 0 0 0-2.2-3.85l-1.31-.33A3.12 3.12 0 0 0 252 36.8a3.13 3.13 0 0 0 2.34 3.75zM347.48 99.67a3.13 3.13 0 0 0 4.37.48 3.12 3.12 0 0 0 .48-4.41l-.86-1a3.12 3.12 0 0 0-4.44-.34 3.13 3.13 0 0 0-.33 4.37zM356.7 318.5a3.12 3.12 0 0 0-4.34.66 177.72 177.72 0 0 1-63 52.39 3.13 3.13 0 1 0 2.76 5.62 184 184 0 0 0 65.24-54.27 3.13 3.13 0 0 0-.66-4.4zM277 377.09l-1.09.43a3.13 3.13 0 1 0 2.26 5.84l1.2-.48a3.13 3.13 0 0 0-2.38-5.8zM342 88.75a3.13 3.13 0 0 0 .11-4.44 183.09 183.09 0 0 0-71.61-45.49 3.13 3.13 0 0 0-4 2 3.12 3.12 0 0 0 2 3.9 176.8 176.8 0 0 1 69.11 43.88 3.12 3.12 0 0 0 4.39.15zM36.77 237.69a3.54 3.54 0 0 0-3.47-3c-1.73 2-3 2.12-2.72 3.84a184.48 184.48 0 0 0 31.28 79.27 3.14 3.14 0 0 0 4.4.79 3.28 3.28 0 0 0 .7-4.45 178 178 0 0 1-30.19-76.45zM267 384a3.11 3.11 0 0 0-3.89-2 178 178 0 0 1-81.6 5.19 3.11 3.11 0 0 0-3.6 2.48 3.13 3.13 0 0 0 2.53 3.67 184 184 0 0 0 31 2.63A181.9 181.9 0 0 0 265 388a3.13 3.13 0 0 0 2-4zM365 305.91a3.13 3.13 0 0 0-4.27 1l-.66 1a3.13 3.13 0 0 0 5.26 3.39l.73-1.15a3.12 3.12 0 0 0-1.06-4.24zM390.7 212.28a3.11 3.11 0 0 0-2.86 3.07 178 178 0 0 1-20.31 79.8 3.11 3.11 0 0 0 1.23 4.19 3.15 3.15 0 0 0 4.3-1.27 184.3 184.3 0 0 0 21-82.25 3.5 3.5 0 0 0-3.36-3.54zM75.18 325.16a3.13 3.13 0 0 0-4.37-.48 3.12 3.12 0 0 0-.48 4.41l.86 1a3.12 3.12 0 0 0 4.44.34 3.13 3.13 0 0 0 .37-4.33zM70.33 106a177.74 177.74 0 0 1 62.91-52.46 3.12 3.12 0 0 0 1.45-4.12 3.13 3.13 0 0 0-4.21-1.48 184.06 184.06 0 0 0-65.18 54.38 3.13 3.13 0 1 0 5 3.72zM168.24 384.4l-1.18-.3a3.13 3.13 0 0 0-3.81 2.18 3.12 3.12 0 0 0 2.2 3.85l1.3.33a3.12 3.12 0 0 0 3.79-2.33 3.13 3.13 0 0 0-2.3-3.73zM154.08 380.18a176.84 176.84 0 0 1-69.05-44 3.12 3.12 0 0 0-4.39-.12 3.13 3.13 0 0 0-.12 4.44 183.18 183.18 0 0 0 71.55 45.58 3.13 3.13 0 0 0 4-2 3.12 3.12 0 0 0-1.99-3.9z"/></g></svg>
