<svg xmlns="http://www.w3.org/2000/svg" viewBox="0 0 422.79 424.56" id="clock_icon" ><path d="M246.56,421.63c114.93-19.3,192.66-128.93,173.27-244.36S291.14-16.38,176.21,2.93-16.45,131.87,3,247.3,131.63,440.94,246.56,421.63Zm-35.17-4.32c-112.55,0-204.13-92-204.13-205s91.58-205,204.13-205,204.13,92,204.13,205S324,417.31,211.39,417.31Z"/><path d="M242.58,196.71a20.75,20.75,0,0,0-13.29-19.58,47.52,47.52,0,0,0-25.57-2.61l-105.79,18c-5.65,1-5.6,9.13.06,10l85.54,13.58-1.07,2L121.55,339.26c-3.45,6.85,3.32,11.37,8.31,5.55L223,236.17c1.57-1.83,3-3.75,4.44-5.71,0-.06.1-.21.16-.27C245.37,208.92,242.58,196.71,242.58,196.71Zm-17.14,16.36a41.34,41.34,0,0,1-21.79,2.42l-90.1-14.3a4.33,4.33,0,0,1,0-8.54l90.08-15.33a40,40,0,0,1,6.81-.58,40.55,40.55,0,0,1,15,2.87C240.53,185.61,240.53,207.06,225.44,213.07Z"/> <g class="clockArms"> <path d="M145.59,48l1.08-.43a3.12,3.12,0,0,0-2.22-5.84l0,0-1.23.49a3.12,3.12,0,0,0-1.69,4.08v0a3.15,3.15,0,0,0,4.1,1.66Z"/><path d="M32,212.62a3.11,3.11,0,0,0,3-3.08A178.16,178.16,0,0,1,55.17,130a3.12,3.12,0,0,0-5.49-3l0,0a184.41,184.41,0,0,0-20.91,82.08A3.37,3.37,0,0,0,32,212.62Z"/><path d="M57.63,119.3a3.13,3.13,0,0,0,4.28-1l.66-1a3.12,3.12,0,0,0-5.22-3.44l0,0L56.58,115a3.12,3.12,0,0,0,1,4.29Z"/><path d="M155.56,41.07a2.94,2.94,0,0,0,3.65,1.79,175,175,0,0,1,52.14-8.14A177.87,177.87,0,0,1,241,37.49a3,3,0,0,0,3.58-2.27l0-.09a2.76,2.76,0,0,0-2.21-3.22l-.32,0a183.32,183.32,0,0,0-30.75-2.2,181.49,181.49,0,0,0-53.76,7.72,2.8,2.8,0,0,0-2,3.64Z"/><path d="M390.28,196.93a3.12,3.12,0,0,0-2.84,3.34,9.68,9.68,0,0,0,.08,1.24,3.13,3.13,0,0,0,6.25-.23v-.06a10.59,10.59,0,0,0-.09-1.37,3.12,3.12,0,0,0-3.34-2.88h-.05Z"/><path d="M386,186.91a3.41,3.41,0,0,0,3.47,2.81c1.72,0,3-2,2.71-3.68a184.15,184.15,0,0,0-31.39-79.11,3.14,3.14,0,0,0-4.38-.76l0,0a3.19,3.19,0,0,0-.69,4.38A177.77,177.77,0,0,1,386,186.91Z"/><path d="M35.32,224.48a9.68,9.68,0,0,0-.08-1.24,3.13,3.13,0,0,0-6.25.23v.06a10.43,10.43,0,0,0,.09,1.37,3.12,3.12,0,1,0,6.23-.47Z"/><path d="M254.32,40.55l1.17.3a3.12,3.12,0,0,0,1.64-6h0l-1.31-.33a3.12,3.12,0,0,0-3.8,2.25v.06A3.13,3.13,0,0,0,254.32,40.55Z"/><path d="M347.46,99.67a3.12,3.12,0,0,0,4.87-3.9l0,0-.86-1a3.12,3.12,0,0,0-4.4-.38l0,0a3.13,3.13,0,0,0-.33,4.37Z"/><path d="M356.68,318.5a3.12,3.12,0,0,0-4.34.66,177.72,177.72,0,0,1-63,52.39,3.13,3.13,0,0,0,2.76,5.62h0a184,184,0,0,0,65.24-54.27,3.13,3.13,0,0,0-.63-4.38Z"/><path d="M277,377.09l-1.09.43a3.13,3.13,0,0,0,2.26,5.84l1.2-.48a3.13,3.13,0,1,0-2.38-5.8h0Z"/><path d="M342,88.75a3.13,3.13,0,0,0,.12-4.42v0a183.09,183.09,0,0,0-71.61-45.49,3.13,3.13,0,0,0-4,1.94l0,.06a3.12,3.12,0,0,0,2,3.9A176.8,176.8,0,0,1,337.59,88.6,3.12,3.12,0,0,0,342,88.75Z"/><path d="M36.75,237.69a3.54,3.54,0,0,0-3.47-3c-1.73,2-3,2.12-2.72,3.84A184.48,184.48,0,0,0,61.84,317.8a3.14,3.14,0,0,0,4.37.81l0,0a3.28,3.28,0,0,0,.7-4.45,178,178,0,0,1-30.19-76.45Z"/><path d="M267,384a3.11,3.11,0,0,0-3.89-2,178,178,0,0,1-81.6,5.19,3.12,3.12,0,0,0-1.11,6.14h0a184,184,0,0,0,31,2.63A181.9,181.9,0,0,0,265,388a3.13,3.13,0,0,0,2-3.94Z"/><path d="M365,305.91a3.13,3.13,0,0,0-4.27,1l-.66,1a3.13,3.13,0,0,0,5.26,3.39l.73-1.15a3.12,3.12,0,0,0-1.06-4.24Z"/><path d="M390.68,212.28a3.11,3.11,0,0,0-2.86,3.07,178,178,0,0,1-20.31,79.8,3.11,3.11,0,0,0,1.23,4.19A3.15,3.15,0,0,0,373,298.1l0,0a184.3,184.3,0,0,0,21-82.25,3.5,3.5,0,0,0-3.36-3.54Z"/><path d="M75.16,325.16a3.12,3.12,0,0,0-4.87,3.9l0,0,.86,1a3.12,3.12,0,0,0,4.4.38l0,0A3.13,3.13,0,0,0,76,326.1Z"/><path d="M70.31,106a177.74,177.74,0,0,1,62.91-52.46,3.12,3.12,0,0,0-2.71-5.62l0,0a184.06,184.06,0,0,0-65.18,54.38,3.13,3.13,0,1,0,5,3.72Z"/><path d="M168.22,384.4l-1.18-.3a3.12,3.12,0,0,0-1.64,6h0l1.3.33a3.12,3.12,0,0,0,3.78-2.28v-.05A3.13,3.13,0,0,0,168.22,384.4Z"/><path d="M154.06,380.18a176.84,176.84,0,0,1-69.05-44,3.12,3.12,0,0,0-4.52,4.3v0A183.18,183.18,0,0,0,152,386.08a3.13,3.13,0,0,0,4-1.94l0-.06a3.12,3.12,0,0,0-2-3.9Z"/></g></svg>
