<svg xmlns="http://www.w3.org/2000/svg" viewBox="0 0 242 207" id="code"><title>code</title><g><path d="M109.24 172.43a4.57 4.57 0 0 0 5.41-3.52l21.46-100.14a4.57 4.57 0 0 0-8.94-1.89L105.72 167a4.57 4.57 0 0 0 3.52 5.43zm33.12-85.87l39 31.26-39.14 33.5a4.56 4.56 0 0 0 5.93 6.92l43.19-37a4.36 4.36 0 0 0 .72-.72 4.57 4.57 0 0 0-.7-6.41l-43.33-34.7a4.56 4.56 0 1 0-5.72 7.11zm-91.9 34.73l43.19 37a4.56 4.56 0 1 0 5.93-6.92l-39.14-33.5 39-31.26a4.56 4.56 0 1 0-5.72-7.11l-43.33 34.7a4.57 4.57 0 0 0-.7 6.41 4.36 4.36 0 0 0 .77.68z"/><rect x="166.4" y="183.41" width="45.11" height="8" rx="4" ry="4"/><rect x="181.54" y="164.41" width="45.11" height="8" rx="4" ry="4"/><rect x="30.16" y="65.91" width="45.11" height="8" rx="4" ry="4"/><rect x="15.02" y="46.91" width="45.11" height="8" rx="4" ry="4"/><rect x="53.58" y="14.15" width="10.76" height="10.76" rx="1.74" ry="1.74"/><rect x="35.96" y="14.15" width="10.76" height="10.76" rx="1.74" ry="1.74"/><rect x="18.33" y="14.15" width="10.76" height="10.76" rx="1.74" ry="1.74"/><path d="M242 12.28A12.28 12.28 0 0 0 229.72 0H12.28A12.28 12.28 0 0 0 0 12.28v182.44A12.28 12.28 0 0 0 12.28 207h217.44A12.28 12.28 0 0 0 242 194.72zM11.79 9H229.7c1.81 0 3.3.88 3.3 2.69V32H9V11.69C9 9.88 10 9 11.79 9zM229.7 198H11.79C10 198 9 195.94 9 194.13V40h224v154.13c0 1.81-1.49 3.87-3.3 3.87z"/></g></svg>
