<svg xmlns="http://www.w3.org/2000/svg" viewBox="0 0 523.9 760.91">
    <title>coffe_cup_sep</title>
        <g class="steams">
            <path class="steam top"
            d="M307.5,249.87a232.57,232.57,0,0,0-17.14-71.8c-4.9-11.81-10.5-22.8-18.77-32.61-6.78-8-14.66-15-22.12-22.37-8.43-8.32-16.13-17.22-22.11-27.49-7.47-12.84-13.16-27-18.61-40.77A448.92,448.92,0,0,1,191.51,3.74,3.59,3.59,0,0,0,189.29.47c-2.69-1.38-6.78.42-6.76,3.91h0c-1,11.94.3,24.24,1.93,36,3.71,26.9,11.54,55,25,78.72C221.27,140,239.21,156.83,254.55,175c16.09,19,24.9,43,32.95,66.34,4.47,13,8.81,26.4,10.94,40,.67,4.26,8.09,4.34,8.68,0C308.53,270.93,308.27,260.27,307.5,249.87ZM286,212.38c-4.74-11.26-9.27-23.13-16.53-33.05-13.84-18.9-31.36-34.8-45.11-53.8-16-22.13-24.62-50.2-29.5-76.84-.59-3.2-1.13-6.45-1.62-9.73q1.33,3.7,2.69,7.38c9.3,25.08,19.18,51.48,36.77,72,13.66,16,31.55,28.29,41.89,47,12.7,22.93,20.16,50,23.13,76q.18,1.59.34,3.18C294.47,233.6,290.42,222.91,286,212.38Z"/>
            <path class="steam middle"
              d="M271.34,302.22a232.57,232.57,0,0,0-17.14-71.8c-4.9-11.81-10.5-22.8-18.77-32.61-6.78-8-14.66-15-22.12-22.37-8.43-8.32-16.13-17.22-22.11-27.49-7.47-12.84-13.16-27-18.61-40.77A448.92,448.92,0,0,1,155.34,56.1a3.59,3.59,0,0,0-2.22-3.27c-2.69-1.38-6.78.42-6.76,3.91h0c-1,11.94.3,24.24,1.93,36,3.71,26.9,11.54,55,25,78.72,11.81,20.81,29.75,37.68,45.09,55.81,16.09,19,24.9,43,32.95,66.34,4.47,13,8.81,26.4,10.94,40,.67,4.26,8.09,4.34,8.68,0C272.36,323.29,272.11,312.62,271.34,302.22Zm-21.52-37.49c-4.74-11.26-9.27-23.13-16.53-33.05-13.84-18.9-31.36-34.8-45.11-53.8-16-22.13-24.62-50.2-29.5-76.84-.59-3.2-1.13-6.45-1.62-9.73q1.33,3.7,2.69,7.38c9.3,25.08,19.18,51.48,36.77,72,13.66,16,31.55,28.29,41.89,47,12.7,22.93,20.16,50,23.13,76q.18,1.59.34,3.18C258.31,286,254.25,275.27,249.82,264.73Z"/>
            <path class="steam bottom"
            d="M244.53,367.92a232.57,232.57,0,0,0-17.14-71.8c-4.9-11.81-10.5-22.8-18.77-32.61-6.78-8-14.66-15-22.12-22.37-8.43-8.32-16.13-17.22-22.11-27.49-7.47-12.84-13.16-27-18.61-40.77a448.92,448.92,0,0,1-17.24-51.08,3.59,3.59,0,0,0-2.22-3.27c-2.69-1.38-6.78.42-6.76,3.91h0c-1,11.94.3,24.24,1.93,36,3.71,26.9,11.54,55,25,78.72C158.3,258,176.24,274.89,191.58,293c16.09,19,24.9,43,32.95,66.34,4.47,13,8.81,26.4,10.94,40,.67,4.26,8.09,4.34,8.68,0C245.56,389,245.3,378.32,244.53,367.92ZM223,330.43c-4.74-11.26-9.27-23.13-16.53-33.05-13.84-18.9-31.36-34.8-45.11-53.8-16-22.13-24.62-50.2-29.5-76.84-.59-3.2-1.13-6.45-1.62-9.73q1.33,3.7,2.69,7.38c9.3,25.08,19.18,51.48,36.77,72,13.66,16,31.55,28.29,41.89,47,12.7,22.93,20.16,50,23.13,76q.18,1.59.34,3.18C231.5,351.66,227.45,341,223,330.43Z"/>
        </g>
        <g class="cup">
            <path
            d="M432.41,483.41h0C414,433.23,315,409.84,221.24,409.27l0,.1,0-.1h0l-9,.16-17.53.3C97,413.63,0,442.45,0,500.65A219.73,219.73,0,0,0,96.18,681.81c-22.33,6.44-44.66,16.81-44.66,32.51,0,30.27,86.45,46.6,167.79,46.6S387.1,744.56,387.1,714.26c0-16.11-23.48-26.62-46.85-33.08a214.7,214.7,0,0,0,21.44-16.76,19.77,19.77,0,1,0,30.81-11.07c41.58.35,128.1-6.45,131.28-87C527.47,472.54,451,480.18,432.41,483.41ZM325.86,679l-10.08,6.15,11.5,2.65c37.05,8.54,50.2,19.58,50.2,26.44,0,15.46-60.18,37-158.18,37-43.12,0-83.62-4.3-114.05-12.11-32.53-8.35-44.13-18.32-44.13-24.87s12.58-17.49,48-26l11.42-2.73-10.06-6.06C48.27,642,9.61,573.48,9.61,500.65c0-50.33,92.57-78.31,189.3-81.59,2.54-.22,3.46-.09,5.38-.26,2.76.06,10.77.1,14.69,0h0l1.17,0a20.86,20.86,0,0,0,3.59.11c52.93.53,102,8.06,138.71,21.33,28.91,10.45,63.37,29.41,63.37,60.41C425.87,573.08,387.55,641.43,325.86,679Zm60.79-40.89a220.63,220.63,0,0,0,46.83-108.58c13.07-3.13,52.14-8.46,57,38C497.48,635.16,414,638.76,386.65,638.14Z"/>
            <path
            d="M202.9,428.92c-49.34,1.26-92.2,8.15-118.62,18.12-30.2,9-48.71,21-48.71,34.17,0,27.87,82.26,50.45,183.74,50.45S403,509.08,403,481.21c0-13.2-18.87-24.12-48.77-34.19-28.38-9.56-74.51-17.66-127.61-18.27C226.67,428.75,204.7,428.93,202.9,428.92Zm26.73,26.42h0v0Z"/>
    </g>
</svg>
