<svg xmlns="http://www.w3.org/2000/svg" viewBox="0 0 465.96 466.17"><title>emblem</title><g><path d="M192.19 209.19l-65.87-65.87a35.33 35.33 0 0 0-50 0l-66 66a35.33 35.33 0 0 0 0 50l65.88 65.87a35.33 35.33 0 0 0 50 0l66-66a35.33 35.33 0 0 0-.01-50zM256.55 274a35.33 35.33 0 0 0-50 0l-66 66a35.33 35.33 0 0 0 0 50l65.87 65.87a35.33 35.33 0 0 0 50 0l66-66a35.33 35.33 0 0 0 0-50zM455.63 206.64l-65.87-65.87a35.33 35.33 0 0 0-50 0l-66 66a35.33 35.33 0 0 0 0 50l65.87 65.87a35.33 35.33 0 0 0 50 0l66-66a35.33 35.33 0 0 0 0-50zM209.19 192.19a35.33 35.33 0 0 0 50 0l66-66a35.33 35.33 0 0 0 0-50l-65.87-65.86a35.33 35.33 0 0 0-50 0l-66 66a35.33 35.33 0 0 0 0 50z"/></g></svg>
