<svg xmlns="http://www.w3.org/2000/svg" viewBox="0 0 859.18 874.66"><defs><style>.cls-1,.cls-3,.cls-4{opacity:0.5;}.cls-2,.cls-3{fill:#fff;}.cls-4{fill:#eaeaea;}</style></defs><title>fetti_ball</title><g id="Layer_2" data-name="Layer 2"><g id="Layer_1-2" data-name="Layer 1"><g class="cls-1"><path class="cls-2" d="M399.77,60.61s1.53,250.73-192.44,353c0,0-123.75-57.66-18.62-190.68S337.7,26.81,399.77,60.61Z"/></g><path class="cls-3" d="M403.12,68.12S467.12,322,683.75,356c0,0,113.18-102.25-29.33-194.11S450.91,16.06,403.12,68.12Z"/><path class="cls-2" d="M682.94,352.16a2.87,2.87,0,0,1-4.06-3.7c7.46-15.91,12.91-64.23-93.7-173C482.15,70.29,427.91,64.58,405.51,69.75a3.32,3.32,0,0,1-3.2-5.5C427.78,37.33,506.7-21.4,610.65,8.07c38,10.78,47,19.09,79.72,51.86,48.08,48.08,53.86,106.44,53.86,106.44s17.89,99.71-43.54,170C695.9,341.88,689,348.53,682.94,352.16Z"/><path class="cls-2" d="M207.33,413.62a2.87,2.87,0,0,0,2.91-4.66c-11.48-13.3-29.78-58.36,43.48-191.9C324.52,88,375.21,67.84,398.17,66.77a3.32,3.32,0,0,0,1.6-6.16C368,41.57,276.12,6.34,184,62.79c-33.69,20.64-40.05,31.07-62.75,71.46-33.31,59.28-23.11,117-23.11,117s9.7,100.84,87.85,152C192.07,407.22,200.48,411.76,207.33,413.62Z"/><path class="cls-4" d="M472.32,362.44a31.64,31.64,0,0,1,9.42,1.32,14.58,14.58,0,0,1-.25,2.72l-.52,1a56.83,56.83,0,0,0-8.65-5M304.73,243.35l41.44,64s-79,12-78,78c.33,22,17.62,29.33,40.51,29.33,45.79,0,114-29.33,114-29.33a98,98,0,0,1,10-.47c21.13,0,64.57,6.12,17.09,62.47-60.66,72-159.46,82-72.06,136,29.13,18,53.56,24,73.17,24,39.23,0,59.23-24,59.23-24l54.57-34s-99.17,28.22-147.64,28.22c-29,0-39.81-10.06-.65-42.22,104.72-86,93.72-160,93.72-160s13.55-42.92-39.37-42.92c-22.86,0-58.11,8-112.22,30.92-36.26,15.36-54.75,21.49-61.18,21.49-25.39,0,137.29-95.49,137.29-95.49l-130-46Z"/><path class="cls-4" d="M483.35,210.7c22.17.24,41,3.82,56,10.65a74.69,74.69,0,0,1,30.59,24.73c20.79,28.87,21.43,72.12,18.31,103.33a352.46,352.46,0,0,1-9.55,52.67c-14.26,5.09-37.41,13.74-64.68,25.38,14-20.89,22.46-43.14,25.25-66.46,3.1-25.93-.91-52.84-11.91-80-8.33-20.54-20.7-41.24-36.76-61.53Q487,215,483.35,210.7M305.75,564.41a149.46,149.46,0,0,0-18.43,31.13c-10.9,25.45-5,43.27,1.94,53.74a48.15,48.15,0,0,0,5.77,7.37,209.23,209.23,0,0,1-20.94-6.6C247,639.84,238.17,629.18,237.29,625c-.65-3.1,2.37-12.07,17.78-26,12.13-11,29.08-22.53,50.67-34.56M480.94,180.69c-18.94,0-40.33,2.09-64.48,6.66,0,0,245.53,186-57.87,318-290,126.18-87.15,188.4-14.55,188.4,3.35,0,6.42-.13,9.15-.4,62-6,290-114,290-114S451.3,646.41,359.35,646.41c-36.08,0-56.76-10.32-44.45-39.06,43.69-102,288.28-182,288.28-182s82.57-244.66-122.24-244.66Z"/><path class="cls-4" d="M224,482.88q-.48,1.1-1,2.19c-10.68,23.24-26.5,40.18-48.34,51.79-23.38,12.42-40.12,24-51.18,35.32-8.64,8.86-13.5,17.4-16,25.14-1.65-11.4-1.73-27.21,5.89-41.57,7.17-13.54,20.17-23.64,38.64-30,28-9.7,52.12-24.12,72-42.81M364.36,631.09c30.07,0,55.79,5.39,76.46,16a109.92,109.92,0,0,1,40.64,35.75c15.33,22.23,21.92,47.71,24.65,68-8.39,4.4-28.33,12.6-73.58,23.48-27.34,6.57-60.54,13.32-99.1,20.15l.06,0c25.16-12,43.33-22.49,55.55-32.07,7.54-5.91,13.11-11.71,17-17.72,8.21-12.57,8-24,6.29-31.31-1.84-8.14-7.22-19.48-22.37-27.33-6.4-3.31-14.19-5.8-23.81-7.61-13.89-2.6-31.9-3.87-55.09-3.87-39.38,0-86.07,3.79-118.3,7-1.72.17-3.47.26-5.2.26-17.14,0-34.9-8.58-50-24.16q-1-1-1.91-2a112.18,112.18,0,0,0,19.46,7.57,184.19,184.19,0,0,0,30.62,6.06l7,.7,6.56-2.47c64.07-24.12,119.62-36.34,165.08-36.34M257.18,315.83s11.94,138-115,182c-123.55,42.81-52,214.4,45.44,214.4,2.7,0,5.41-.13,8.15-.4,34.59-3.41,78.64-6.82,115.35-6.82,71,0,114.52,12.73,9.47,62.82C252,800.52,167.39,805.09,102.32,805.09c-25.2,0-47.47-.68-64.74-.68-41.81,0-54.37,4-8.4,31.42,51,30.42,66.08,38.83,67.18,38.83,1.36,0-18.64-12.83-18.64-12.83s463.46-52,459.46-102c-3.07-38.41-22.06-158.25-172.82-158.26-45.49,0-103,10.91-175.65,38.26,0,0-120.47-12,0-76s68.47-248,68.47-248Z"/><path class="cls-4" d="M709.88,327.58c14.24,5.28,26.67,10.32,36.61,15a42.59,42.59,0,0,1,18.75,16.37c4.58,7.32,7.58,16.69,8.92,27.85a134,134,0,0,1,.12,28.12c-4.35-14.22-11.61-28.4-21.69-42.36-10.8-15-25.15-30.05-42.71-44.93M670.23,584.29c-13.15,12.5-25.3,25-35.46,36.41-25.73,29-53.24,66.44-37.43,98.06a35.88,35.88,0,0,0,20.12,18.13c-25.06,13.36-46.69,24.54-61.08,31.31a26.23,26.23,0,0,1-11.22,2.6c-4.41,0-15-1.34-18.63-13.76-7.12-24.69,16.21-87.75,143.68-172.76m59.85,56.61L775,650.32c-26.21,14.67-57.15,31.9-87.87,48.78q8.44-10.1,18.09-23c9.54-12.79,18.34-25.47,24.9-35.18m-340.91-439s556,173.43,286,343.43c-238.92,150.43-191.26,255.46-130,255.46a56.34,56.34,0,0,0,24-5.46c68-32,290-158,290-158l-142.89-30s-64.81,101.58-86.75,101.58a5.73,5.73,0,0,1-5.36-3.58c-13-26,63.4-100,113.2-140s111.8-208,21.8-250-370-113.43-370-113.43Z"/><path class="cls-2" d="M262.77,452.21a5.44,5.44,0,1,1-5.44,5.44,5.45,5.45,0,0,1,5.44-5.44m0-15a20.44,20.44,0,1,0,20.44,20.44,20.44,20.44,0,0,0-20.44-20.44Z"/><path class="cls-2" d="M409.62,440.35a5.44,5.44,0,1,1-5.44,5.44,5.45,5.45,0,0,1,5.44-5.44m0-15a20.44,20.44,0,1,0,20.44,20.44,20.44,20.44,0,0,0-20.44-20.44Z"/><path class="cls-2" d="M644.62,387.73a5.44,5.44,0,1,1-5.44,5.44,5.45,5.45,0,0,1,5.44-5.44m0-15a20.44,20.44,0,1,0,20.44,20.44,20.44,20.44,0,0,0-20.44-20.44Z"/><path class="cls-2" d="M619.47,507a5.44,5.44,0,1,1-5.44,5.44,5.45,5.45,0,0,1,5.44-5.44m0-15a20.44,20.44,0,1,0,20.44,20.44A20.44,20.44,0,0,0,619.47,492Z"/><path class="cls-2" d="M537.2,452.21a5.44,5.44,0,1,1-5.44,5.44,5.45,5.45,0,0,1,5.44-5.44m0-15a20.44,20.44,0,1,0,20.44,20.44,20.44,20.44,0,0,0-20.44-20.44Z"/><path class="cls-2" d="M401.38,267.91a5.44,5.44,0,1,1-5.44,5.44,5.45,5.45,0,0,1,5.44-5.44m0-15a20.44,20.44,0,1,0,20.44,20.44,20.44,20.44,0,0,0-20.44-20.44Z"/><path class="cls-2" d="M346.17,227.17a5.44,5.44,0,1,1-5.44,5.44,5.45,5.45,0,0,1,5.44-5.44m0-15a20.44,20.44,0,1,0,20.44,20.44,20.44,20.44,0,0,0-20.44-20.44Z"/><path class="cls-2" d="M287.43,288.36A5.44,5.44,0,1,1,282,293.8a5.45,5.45,0,0,1,5.44-5.44m0-15a20.44,20.44,0,1,0,20.44,20.44,20.44,20.44,0,0,0-20.44-20.44Z"/><path class="cls-2" d="M430.07,150.4a5.44,5.44,0,1,1-5.44,5.44,5.45,5.45,0,0,1,5.44-5.44m0-15a20.44,20.44,0,1,0,20.44,20.44,20.44,20.44,0,0,0-20.44-20.44Z"/><path class="cls-2" d="M537.2,227.17a5.44,5.44,0,1,1-5.44,5.44,5.45,5.45,0,0,1,5.44-5.44m0-15a20.44,20.44,0,1,0,20.44,20.44,20.44,20.44,0,0,0-20.44-20.44Z"/><path class="cls-2" d="M611.83,288.35a5.45,5.45,0,0,1,2.74,10.16,5.34,5.34,0,0,1-2.7.73,5.45,5.45,0,0,1-2.74-10.16,5.35,5.35,0,0,1,2.7-.73m0-15a20.45,20.45,0,1,0,17.72,10.23,20.35,20.35,0,0,0-17.72-10.23Z"/><path class="cls-2" d="M475.85,243.24a20.45,20.45,0,1,0,17.72,10.23,20.35,20.35,0,0,0-17.72-10.23Z"/><path class="cls-2" d="M475.85,353a20.45,20.45,0,1,0,17.72,10.23A20.35,20.35,0,0,0,475.85,353Z"/><path class="cls-2" d="M694.63,457.66a20.45,20.45,0,1,0,17.72,10.23,20.35,20.35,0,0,0-17.72-10.23Z"/><path class="cls-2" d="M537.18,308a20.45,20.45,0,1,0,17.72,10.23A20.35,20.35,0,0,0,537.18,308Z"/></g></g></svg>