<svg xmlns="http://www.w3.org/2000/svg" viewBox="0 0 915.79 1006.39"><defs><style>.cls-1{opacity:0.5;}.cls-2{fill:#fff;}.cls-3{opacity:0.75;}.cls-4{fill:#fffdfd;}</style></defs><title>heartfetti2</title><g id="Layer_2" data-name="Layer 2"><g id="Layer_2-2" data-name="Layer 2"><g id="heartfetti"><g id="squares" class="cls-1"><g id="row"><rect id="rect" class="cls-2" x="120.6" y="71.92" width="58.08" height="223.18"/><rect id="rect-2" data-name="rect" class="cls-2" x="191.7" y="71.92" width="58.08" height="223.18"/><rect id="rect-3" data-name="rect" class="cls-2" x="262.8" y="71.92" width="58.08" height="223.18"/><rect id="rect-4" data-name="rect" class="cls-2" x="333.9" y="71.92" width="58.08" height="223.18"/><rect id="rect-5" data-name="rect" class="cls-2" x="405.01" y="71.92" width="58.08" height="223.18"/><rect id="rect-6" data-name="rect" class="cls-2" x="476.11" y="71.92" width="58.08" height="223.18"/><rect id="rect-7" data-name="rect" class="cls-2" x="547.21" y="71.92" width="58.08" height="223.18"/><rect id="rect-8" data-name="rect" class="cls-2" x="618.31" y="71.92" width="58.08" height="223.18"/><rect id="rect-9" data-name="rect" class="cls-2" x="689.41" y="71.92" width="58.08" height="223.18"/><rect id="rect-10" data-name="rect" class="cls-2" x="760.51" y="71.92" width="58.08" height="223.18"/></g><g id="row-2" data-name="row"><rect id="rect-11" data-name="rect" class="cls-2" x="120.6" y="309.01" width="58.08" height="223.18"/><rect id="rect-12" data-name="rect" class="cls-2" x="191.7" y="309.01" width="58.08" height="223.18"/><rect id="rect-13" data-name="rect" class="cls-2" x="262.8" y="309.01" width="58.08" height="223.18"/><rect id="rect-14" data-name="rect" class="cls-2" x="333.9" y="309.01" width="58.08" height="223.18"/><rect id="rect-15" data-name="rect" class="cls-2" x="405.01" y="309.01" width="58.08" height="223.18"/><rect id="rect-16" data-name="rect" class="cls-2" x="476.11" y="309.01" width="58.08" height="223.18"/><rect id="rect-17" data-name="rect" class="cls-2" x="547.21" y="309.01" width="58.08" height="223.18"/><rect id="rect-18" data-name="rect" class="cls-2" x="618.31" y="309.01" width="58.08" height="223.18"/><rect id="rect-19" data-name="rect" class="cls-2" x="689.41" y="309.01" width="58.08" height="223.18"/><rect id="rect-20" data-name="rect" class="cls-2" x="760.51" y="309.01" width="58.08" height="223.18"/></g><g id="row-3" data-name="row"><rect id="rect-21" data-name="rect" class="cls-2" x="120.6" y="546.11" width="58.08" height="223.18"/><rect id="rect-22" data-name="rect" class="cls-2" x="191.7" y="546.11" width="58.08" height="223.18"/><rect id="rect-23" data-name="rect" class="cls-2" x="262.8" y="546.11" width="58.08" height="223.18"/><rect id="rect-24" data-name="rect" class="cls-2" x="333.9" y="546.11" width="58.08" height="223.18"/><rect id="rect-25" data-name="rect" class="cls-2" x="405.01" y="546.11" width="58.08" height="223.18"/><rect id="rect-26" data-name="rect" class="cls-2" x="476.11" y="546.11" width="58.08" height="223.18"/><rect id="rect-27" data-name="rect" class="cls-2" x="547.21" y="546.11" width="58.08" height="223.18"/><rect id="rect-28" data-name="rect" class="cls-2" x="618.31" y="546.11" width="58.08" height="223.18"/><rect id="rect-29" data-name="rect" class="cls-2" x="689.41" y="546.11" width="58.08" height="223.18"/><rect id="rect-30" data-name="rect" class="cls-2" x="760.51" y="546.11" width="58.08" height="223.18"/></g><g id="row-4" data-name="row"><rect id="rect-31" data-name="rect" class="cls-2" x="120.6" y="783.21" width="58.08" height="223.18"/><rect id="rect-32" data-name="rect" class="cls-2" x="191.7" y="783.21" width="58.08" height="223.18"/><rect id="rect-33" data-name="rect" class="cls-2" x="262.8" y="783.21" width="58.08" height="223.18"/><rect id="rect-34" data-name="rect" class="cls-2" x="333.9" y="783.21" width="58.08" height="223.18"/><rect id="rect-35" data-name="rect" class="cls-2" x="405.01" y="783.21" width="58.08" height="223.18"/><rect id="rect-36" data-name="rect" class="cls-2" x="476.11" y="783.21" width="58.08" height="223.18"/><rect id="rect-37" data-name="rect" class="cls-2" x="547.21" y="783.21" width="58.08" height="223.18"/><rect id="rect-38" data-name="rect" class="cls-2" x="618.31" y="783.21" width="58.08" height="223.18"/><rect id="rect-39" data-name="rect" class="cls-2" x="689.41" y="783.21" width="58.08" height="223.18"/><rect id="rect-40" data-name="rect" class="cls-2" x="760.51" y="783.21" width="58.08" height="223.18"/></g></g><g id="dots" class="cls-3"><path id="seventeen" class="cls-2" d="M450.06,826.77a5.37,5.37,0,1,1-7.88-.3,5.59,5.59,0,0,1,7.88.3m10.43-10.43c-8.49-8.49-21.73-9-29.58-1.14s-7.34,21.1,1.14,29.58,21.73,9,29.58,1.14,7.34-21.1-1.14-29.58Z"/><g id="sixteen"><path class="cls-2" d="M404.1,780.8a5.37,5.37,0,1,1-7.88-.3,5.59,5.59,0,0,1,7.88.3m10.43-10.43c-8.49-8.49-21.73-9-29.58-1.14s-7.34,21.1,1.14,29.58,21.73,9,29.58,1.14,7.34-21.1-1.14-29.58Z"/><path class="cls-2" d="M496.31,780.52a5.37,5.37,0,1,1-7.88-.3,5.59,5.59,0,0,1,7.88.3m10.43-10.43c-8.49-8.49-21.73-9-29.58-1.14s-7.34,21.1,1.14,29.58,21.73,9,29.58,1.14,7.34-21.1-1.14-29.58Z"/></g><g id="fifteen"><path class="cls-2" d="M358.13,734.84a5.37,5.37,0,1,1-7.88-.3,5.59,5.59,0,0,1,7.88.3m10.43-10.43c-8.49-8.49-21.73-9-29.58-1.14s-7.34,21.1,1.14,29.58,21.73,9,29.58,1.14,7.34-21.1-1.14-29.58Z"/><path class="cls-2" d="M450.35,734.55a5.37,5.37,0,1,1-7.88-.3,5.59,5.59,0,0,1,7.88.3m10.43-10.43c-8.49-8.49-21.73-9-29.58-1.14s-7.34,21.1,1.14,29.58,21.73,9,29.58,1.14,7.34-21.1-1.14-29.58Z"/><path class="cls-2" d="M542.56,734.27a5.37,5.37,0,1,1-7.88-.3,5.59,5.59,0,0,1,7.88.3M553,723.83c-8.49-8.49-21.73-9-29.58-1.14s-7.34,21.1,1.14,29.58,21.73,9,29.58,1.14,7.34-21.1-1.14-29.58Z"/></g><g id="fourteen"><path class="cls-2" d="M312.17,688.87a5.37,5.37,0,1,1-7.88-.3,5.59,5.59,0,0,1,7.88.3m10.43-10.43c-8.49-8.49-21.73-9-29.58-1.14s-7.34,21.1,1.14,29.58,21.73,9,29.58,1.14,7.34-21.1-1.14-29.58Z"/><path class="cls-2" d="M404.38,688.59a5.37,5.37,0,1,1-7.88-.3,5.59,5.59,0,0,1,7.88.3m10.43-10.43c-8.49-8.49-21.73-9-29.58-1.14s-7.34,21.1,1.14,29.58,21.73,9,29.58,1.14,7.34-21.1-1.14-29.58Z"/><path class="cls-2" d="M496.6,688.3a5.37,5.37,0,1,1-7.88-.3,5.59,5.59,0,0,1,7.88.3M507,677.87c-8.49-8.49-21.73-9-29.58-1.14s-7.34,21.1,1.14,29.58,21.73,9,29.58,1.14,7.34-21.1-1.14-29.58Z"/><path class="cls-2" d="M588.82,688a5.37,5.37,0,1,1-7.88-.3,5.59,5.59,0,0,1,7.88.3m10.43-10.43c-8.49-8.49-21.73-9-29.58-1.14s-7.34,21.1,1.14,29.58,21.73,9,29.58,1.14,7.34-21.1-1.14-29.58Z"/></g><g id="thirteen"><path class="cls-2" d="M266.2,642.91a5.37,5.37,0,1,1-7.88-.3,5.59,5.59,0,0,1,7.88.3m10.43-10.43c-8.49-8.49-21.73-9-29.58-1.14s-7.34,21.1,1.14,29.58,21.73,9,29.58,1.14,7.34-21.1-1.14-29.58Z"/><path class="cls-2" d="M358.42,642.62a5.37,5.37,0,1,1-7.88-.3,5.59,5.59,0,0,1,7.88.3m10.43-10.43c-8.49-8.49-21.73-9-29.58-1.14s-7.34,21.1,1.14,29.58,21.73,9,29.58,1.14,7.34-21.1-1.14-29.58Z"/><path class="cls-2" d="M450.64,642.34a5.37,5.37,0,1,1-7.88-.3,5.59,5.59,0,0,1,7.88.3m10.43-10.43c-8.49-8.49-21.73-9-29.58-1.14s-7.34,21.1,1.14,29.58,21.73,9,29.58,1.14,7.34-21.1-1.14-29.58Z"/><path class="cls-2" d="M542.85,642.05a5.37,5.37,0,1,1-7.88-.3,5.59,5.59,0,0,1,7.88.3m10.43-10.43c-8.49-8.49-21.73-9-29.58-1.14s-7.34,21.1,1.14,29.58,21.73,9,29.58,1.14,7.34-21.1-1.14-29.58Z"/><path class="cls-2" d="M635.07,641.77a5.37,5.37,0,1,1-7.88-.3,5.59,5.59,0,0,1,7.88.3m10.43-10.43c-8.49-8.49-21.73-9-29.58-1.14s-7.34,21.1,1.14,29.58,21.73,9,29.58,1.14,7.34-21.1-1.14-29.58Z"/></g><g id="twelve"><path class="cls-2" d="M220.24,596.94a5.37,5.37,0,1,1-7.88-.3,5.59,5.59,0,0,1,7.88.3m10.43-10.43c-8.49-8.49-21.73-9-29.58-1.14s-7.34,21.1,1.14,29.58,21.73,9,29.58,1.14,7.34-21.1-1.14-29.58Z"/><path class="cls-2" d="M312.45,596.66a5.37,5.37,0,1,1-7.88-.3,5.59,5.59,0,0,1,7.88.3m10.43-10.43c-8.49-8.49-21.73-9-29.58-1.14s-7.34,21.1,1.14,29.58,21.73,9,29.58,1.14,7.34-21.1-1.14-29.58Z"/><path class="cls-2" d="M404.67,596.37a5.37,5.37,0,1,1-7.88-.3,5.59,5.59,0,0,1,7.88.3m10.43-10.43c-8.49-8.49-21.73-9-29.58-1.14s-7.34,21.1,1.14,29.58,21.73,9,29.58,1.14,7.34-21.1-1.14-29.58Z"/><path class="cls-2" d="M496.89,596.09a5.37,5.37,0,1,1-7.88-.3,5.59,5.59,0,0,1,7.88.3m10.43-10.43c-8.49-8.49-21.73-9-29.58-1.14s-7.34,21.1,1.14,29.58,21.73,9,29.58,1.14,7.34-21.1-1.14-29.58Z"/><path class="cls-2" d="M589.1,595.8a5.37,5.37,0,1,1-7.88-.3,5.59,5.59,0,0,1,7.88.3m10.43-10.43c-8.49-8.49-21.73-9-29.58-1.14s-7.34,21.1,1.14,29.58,21.73,9,29.58,1.14,7.34-21.1-1.14-29.58Z"/><path class="cls-2" d="M681.32,595.52a5.37,5.37,0,1,1-7.88-.3,5.59,5.59,0,0,1,7.88.3m10.43-10.43c-8.49-8.49-21.73-9-29.58-1.14s-7.34,21.1,1.14,29.58,21.73,9,29.58,1.14,7.34-21.1-1.14-29.58Z"/></g><g id="eleven"><path class="cls-2" d="M174.27,551a5.37,5.37,0,1,1-7.88-.3,5.59,5.59,0,0,1,7.88.3m10.43-10.43c-8.49-8.49-21.73-9-29.58-1.14s-7.34,21.1,1.14,29.58,21.73,9,29.58,1.14,7.34-21.1-1.14-29.58Z"/><path class="cls-2" d="M266.49,550.69a5.37,5.37,0,1,1-7.88-.3,5.59,5.59,0,0,1,7.88.3m10.43-10.43c-8.49-8.49-21.73-9-29.58-1.14s-7.34,21.1,1.14,29.58,21.73,9,29.58,1.14,7.34-21.1-1.14-29.58Z"/><path class="cls-2" d="M358.71,550.41a5.37,5.37,0,1,1-7.88-.3,5.59,5.59,0,0,1,7.88.3M369.14,540c-8.49-8.49-21.73-9-29.58-1.14s-7.34,21.1,1.14,29.58,21.73,9,29.58,1.14,7.34-21.1-1.14-29.58Z"/><path class="cls-2" d="M450.92,550.12a5.37,5.37,0,1,1-7.88-.3,5.59,5.59,0,0,1,7.88.3m10.43-10.43c-8.49-8.49-21.73-9-29.58-1.14s-7.34,21.1,1.14,29.58,21.73,9,29.58,1.14,7.34-21.1-1.14-29.58Z"/><path class="cls-2" d="M543.14,549.84a5.37,5.37,0,1,1-7.88-.3,5.59,5.59,0,0,1,7.88.3m10.43-10.43c-8.49-8.49-21.73-9-29.58-1.14s-7.34,21.1,1.14,29.58,21.73,9,29.58,1.14,7.34-21.1-1.14-29.58Z"/><path class="cls-2" d="M635.35,549.55a5.37,5.37,0,1,1-7.88-.3,5.59,5.59,0,0,1,7.88.3m10.43-10.43c-8.49-8.49-21.73-9-29.58-1.14s-7.34,21.1,1.14,29.58,21.73,9,29.58,1.14,7.34-21.1-1.14-29.58Z"/><path class="cls-2" d="M727.57,549.26a5.37,5.37,0,1,1-7.88-.3,5.59,5.59,0,0,1,7.88.3M738,538.83c-8.49-8.49-21.73-9-29.58-1.14s-7.34,21.1,1.14,29.58,21.73,9,29.58,1.14,7.34-21.1-1.14-29.58Z"/></g><g id="ten"><path class="cls-2" d="M128.31,505a5.37,5.37,0,1,1-7.88-.3,5.59,5.59,0,0,1,7.88.3m10.43-10.43c-8.49-8.49-21.73-9-29.58-1.14s-7.34,21.1,1.14,29.58,21.73,9,29.58,1.14,7.34-21.1-1.14-29.58Z"/><path class="cls-2" d="M220.53,504.73a5.37,5.37,0,1,1-7.88-.3,5.59,5.59,0,0,1,7.88.3M231,494.3c-8.49-8.49-21.73-9-29.58-1.14s-7.34,21.1,1.14,29.58,21.73,9,29.58,1.14,7.34-21.1-1.14-29.58Z"/><path class="cls-2" d="M312.74,504.44a5.37,5.37,0,1,1-7.88-.3,5.59,5.59,0,0,1,7.88.3M323.17,494c-8.49-8.49-21.73-9-29.58-1.14s-7.34,21.1,1.14,29.58,21.73,9,29.58,1.14,7.34-21.1-1.14-29.58Z"/><path class="cls-2" d="M405,504.16a5.37,5.37,0,1,1-7.88-.3,5.59,5.59,0,0,1,7.88.3m10.43-10.43c-8.49-8.49-21.73-9-29.58-1.14s-7.34,21.1,1.14,29.58,21.73,9,29.58,1.14,7.34-21.1-1.14-29.58Z"/><path class="cls-2" d="M497.17,503.87a5.37,5.37,0,1,1-7.88-.3,5.59,5.59,0,0,1,7.88.3m10.43-10.43c-8.49-8.49-21.73-9-29.58-1.14s-7.34,21.1,1.14,29.58,21.73,9,29.58,1.14,7.34-21.1-1.14-29.58Z"/><path class="cls-2" d="M589.39,503.59a5.37,5.37,0,1,1-7.88-.3,5.59,5.59,0,0,1,7.88.3m10.43-10.43c-8.49-8.49-21.73-9-29.58-1.14s-7.34,21.1,1.14,29.58,21.73,9,29.58,1.14,7.34-21.1-1.14-29.58Z"/><path class="cls-2" d="M681.6,503.3a5.37,5.37,0,1,1-7.88-.3,5.59,5.59,0,0,1,7.88.3M692,492.87c-8.49-8.49-21.73-9-29.58-1.14s-7.34,21.1,1.14,29.58,21.73,9,29.58,1.14,7.34-21.1-1.14-29.58Z"/><path class="cls-2" d="M773.82,503a5.37,5.37,0,1,1-7.88-.3,5.59,5.59,0,0,1,7.88.3m10.43-10.43c-8.49-8.49-21.73-9-29.58-1.14s-7.34,21.1,1.14,29.58,21.73,9,29.58,1.14,7.34-21.1-1.14-29.58Z"/></g><g id="nine"><path class="cls-2" d="M82.34,459a5.37,5.37,0,1,1-7.88-.3,5.59,5.59,0,0,1,7.88.3m10.43-10.43c-8.49-8.49-21.73-9-29.58-1.14s-7.34,21.1,1.14,29.58,21.73,9,29.58,1.14,7.34-21.1-1.14-29.58Z"/><path class="cls-2" d="M174.56,458.76a5.37,5.37,0,1,1-7.88-.3,5.59,5.59,0,0,1,7.88.3M185,448.33c-8.49-8.49-21.73-9-29.58-1.14s-7.34,21.1,1.14,29.58,21.73,9,29.58,1.14,7.34-21.1-1.14-29.58Z"/><path class="cls-2" d="M266.78,458.48a5.37,5.37,0,1,1-7.88-.3,5.59,5.59,0,0,1,7.88.3M277.21,448c-8.49-8.49-21.73-9-29.58-1.14s-7.34,21.1,1.14,29.58,21.73,9,29.58,1.14,7.34-21.1-1.14-29.58Z"/><path class="cls-2" d="M359,458.19a5.37,5.37,0,1,1-7.88-.3,5.59,5.59,0,0,1,7.88.3m10.43-10.43c-8.49-8.49-21.73-9-29.58-1.14s-7.34,21.1,1.14,29.58,21.73,9,29.58,1.14,7.34-21.1-1.14-29.58Z"/><path class="cls-2" d="M451.21,457.91a5.37,5.37,0,1,1-7.88-.3,5.59,5.59,0,0,1,7.88.3m10.43-10.43c-8.49-8.49-21.73-9-29.58-1.14s-7.34,21.1,1.14,29.58,21.73,9,29.58,1.14,7.34-21.1-1.14-29.58Z"/><path class="cls-2" d="M543.42,457.62a5.37,5.37,0,1,1-7.88-.3,5.59,5.59,0,0,1,7.88.3m10.43-10.43c-8.49-8.49-21.73-9-29.58-1.14s-7.34,21.1,1.14,29.58,21.73,9,29.58,1.14,7.34-21.1-1.14-29.58Z"/><path class="cls-2" d="M635.64,457.33a5.37,5.37,0,1,1-7.88-.3,5.59,5.59,0,0,1,7.88.3m10.43-10.43c-8.49-8.49-21.73-9-29.58-1.14s-7.34,21.1,1.14,29.58,21.73,9,29.58,1.14,7.34-21.1-1.14-29.58Z"/><path class="cls-2" d="M727.85,457a5.37,5.37,0,1,1-7.88-.3,5.59,5.59,0,0,1,7.88.3m10.43-10.43c-8.49-8.49-21.73-9-29.58-1.14s-7.34,21.1,1.14,29.58,21.73,9,29.58,1.14,7.34-21.1-1.14-29.58Z"/><path class="cls-2" d="M820.07,456.76a5.37,5.37,0,1,1-7.88-.3,5.59,5.59,0,0,1,7.88.3m10.43-10.43c-8.49-8.49-21.73-9-29.58-1.14s-7.34,21.1,1.14,29.58,21.73,9,29.58,1.14,7.34-21.1-1.14-29.58Z"/></g><g id="eight"><path class="cls-2" d="M128.6,412.8a5.37,5.37,0,1,1-7.88-.3,5.59,5.59,0,0,1,7.88.3M139,402.37c-8.49-8.49-21.73-9-29.58-1.14s-7.34,21.1,1.14,29.58,21.73,9,29.58,1.14,7.34-21.1-1.14-29.58Z"/><path class="cls-2" d="M220.81,412.51a5.37,5.37,0,1,1-7.88-.3,5.59,5.59,0,0,1,7.88.3m10.43-10.43c-8.49-8.49-21.73-9-29.58-1.14s-7.34,21.1,1.14,29.58,21.73,9,29.58,1.14,7.34-21.1-1.14-29.58Z"/><path class="cls-2" d="M313,412.23a5.37,5.37,0,1,1-7.88-.3,5.59,5.59,0,0,1,7.88.3m10.43-10.43c-8.49-8.49-21.73-9-29.58-1.14s-7.34,21.1,1.14,29.58,21.73,9,29.58,1.14,7.34-21.1-1.14-29.58Z"/><path class="cls-2" d="M405.24,411.94a5.37,5.37,0,1,1-7.88-.3,5.59,5.59,0,0,1,7.88.3m10.43-10.43c-8.49-8.49-21.73-9-29.58-1.14s-7.34,21.1,1.14,29.58,21.73,9,29.58,1.14,7.34-21.1-1.14-29.58Z"/><path class="cls-2" d="M497.46,411.66a5.37,5.37,0,1,1-7.88-.3,5.59,5.59,0,0,1,7.88.3m10.43-10.43c-8.49-8.49-21.73-9-29.58-1.14s-7.34,21.1,1.14,29.58,21.73,9,29.58,1.14,7.34-21.1-1.14-29.58Z"/><path class="cls-2" d="M589.67,411.37a5.37,5.37,0,1,1-7.88-.3,5.59,5.59,0,0,1,7.88.3m10.43-10.43c-8.49-8.49-21.73-9-29.58-1.14s-7.34,21.1,1.14,29.58,21.73,9,29.58,1.14,7.34-21.1-1.14-29.58Z"/><path class="cls-2" d="M681.89,411.08a5.37,5.37,0,1,1-7.88-.3,5.59,5.59,0,0,1,7.88.3m10.43-10.43c-8.49-8.49-21.73-9-29.58-1.14s-7.34,21.1,1.14,29.58,21.73,9,29.58,1.14,7.34-21.1-1.14-29.58Z"/><path class="cls-2" d="M774.1,410.8a5.37,5.37,0,1,1-7.88-.3,5.59,5.59,0,0,1,7.88.3m10.43-10.43c-8.49-8.49-21.73-9-29.58-1.14s-7.34,21.1,1.14,29.58,21.73,9,29.58,1.14,7.34-21.1-1.14-29.58Z"/></g><g id="seven"><path class="cls-2" d="M174.85,366.55a5.37,5.37,0,1,1-7.88-.3,5.59,5.59,0,0,1,7.88.3m10.43-10.43c-8.49-8.49-21.73-9-29.58-1.14s-7.34,21.1,1.14,29.58,21.73,9,29.58,1.14,7.34-21.1-1.14-29.58Z"/><path class="cls-2" d="M267.06,366.26a5.37,5.37,0,1,1-7.88-.3,5.59,5.59,0,0,1,7.88.3m10.43-10.43c-8.49-8.49-21.73-9-29.58-1.14s-7.34,21.1,1.14,29.58,21.73,9,29.58,1.14,7.34-21.1-1.14-29.58Z"/><path class="cls-2" d="M359.28,366a5.37,5.37,0,1,1-7.88-.3,5.59,5.59,0,0,1,7.88.3m10.43-10.43c-8.49-8.49-21.73-9-29.58-1.14s-7.34,21.1,1.14,29.58,21.73,9,29.58,1.14,7.34-21.1-1.14-29.58Z"/><path class="cls-2" d="M451.49,365.69a5.37,5.37,0,1,1-7.88-.3,5.59,5.59,0,0,1,7.88.3m10.43-10.43c-8.49-8.49-21.73-9-29.58-1.14s-7.34,21.1,1.14,29.58,21.73,9,29.58,1.14,7.34-21.1-1.14-29.58Z"/><path class="cls-2" d="M543.71,365.41a5.37,5.37,0,1,1-7.88-.3,5.59,5.59,0,0,1,7.88.3M554.14,355c-8.49-8.49-21.73-9-29.58-1.14s-7.34,21.1,1.14,29.58,21.73,9,29.58,1.14,7.34-21.1-1.14-29.58Z"/><path class="cls-2" d="M635.92,365.12a5.37,5.37,0,1,1-7.88-.3,5.59,5.59,0,0,1,7.88.3m10.43-10.43c-8.49-8.49-21.73-9-29.58-1.14s-7.34,21.1,1.14,29.58,21.73,9,29.58,1.14,7.34-21.1-1.14-29.58Z"/><path class="cls-2" d="M728.14,364.83a5.37,5.37,0,1,1-7.88-.3,5.59,5.59,0,0,1,7.88.3m10.43-10.43c-8.49-8.49-21.73-9-29.58-1.14s-7.34,21.1,1.14,29.58,21.73,9,29.58,1.14,7.34-21.1-1.14-29.58Z"/></g><g id="six"><path class="cls-2" d="M221.1,320.3a5.37,5.37,0,1,1-7.88-.3,5.59,5.59,0,0,1,7.88.3m10.43-10.43c-8.49-8.49-21.73-9-29.58-1.14s-7.34,21.1,1.14,29.58,21.73,9,29.58,1.14,7.34-21.1-1.14-29.58Z"/><path class="cls-2" d="M313.31,320a5.37,5.37,0,1,1-7.88-.3,5.59,5.59,0,0,1,7.88.3m10.43-10.43c-8.49-8.49-21.73-9-29.58-1.14s-7.34,21.1,1.14,29.58,21.73,9,29.58,1.14,7.34-21.1-1.14-29.58Z"/><path class="cls-2" d="M405.53,319.73a5.37,5.37,0,1,1-7.88-.3,5.59,5.59,0,0,1,7.88.3M416,309.29c-8.49-8.49-21.73-9-29.58-1.14s-7.34,21.1,1.14,29.58,21.73,9,29.58,1.14,7.34-21.1-1.14-29.58Z"/><path class="cls-2" d="M497.74,319.44a5.37,5.37,0,1,1-7.88-.3,5.59,5.59,0,0,1,7.88.3M508.18,309c-8.49-8.49-21.73-9-29.58-1.14s-7.34,21.1,1.14,29.58,21.73,9,29.58,1.14,7.34-21.1-1.14-29.58Z"/><path class="cls-2" d="M590,319.15a5.37,5.37,0,1,1-7.88-.3,5.59,5.59,0,0,1,7.88.3m10.43-10.43c-8.49-8.49-21.73-9-29.58-1.14s-7.34,21.1,1.14,29.58,21.73,9,29.58,1.14,7.34-21.1-1.14-29.58Z"/><path class="cls-2" d="M682.17,318.87a5.37,5.37,0,1,1-7.88-.3,5.59,5.59,0,0,1,7.88.3m10.43-10.43c-8.49-8.49-21.73-9-29.58-1.14s-7.34,21.1,1.14,29.58,21.73,9,29.58,1.14,7.34-21.1-1.14-29.58Z"/></g><g id="five"><path class="cls-2" d="M267.35,274a5.37,5.37,0,1,1-7.88-.3,5.59,5.59,0,0,1,7.88.3m10.43-10.43c-8.49-8.49-21.73-9-29.58-1.14s-7.34,21.1,1.14,29.58,21.73,9,29.58,1.14,7.34-21.1-1.14-29.58Z"/><path class="cls-2" d="M359.56,273.76a5.37,5.37,0,1,1-7.88-.3,5.59,5.59,0,0,1,7.88.3M370,263.33c-8.49-8.49-21.73-9-29.58-1.14s-7.34,21.1,1.14,29.58,21.73,9,29.58,1.14,7.34-21.1-1.14-29.58Z"/><path class="cls-2" d="M451.78,273.48a5.37,5.37,0,1,1-7.88-.3,5.59,5.59,0,0,1,7.88.3M462.21,263c-8.49-8.49-21.73-9-29.58-1.14s-7.34,21.1,1.14,29.58,21.73,9,29.58,1.14,7.34-21.1-1.14-29.58Z"/><path class="cls-2" d="M544,273.19a5.37,5.37,0,1,1-7.88-.3,5.59,5.59,0,0,1,7.88.3m10.43-10.43c-8.49-8.49-21.73-9-29.58-1.14s-7.34,21.1,1.14,29.58,21.73,9,29.58,1.14,7.34-21.1-1.14-29.58Z"/><path class="cls-2" d="M636.21,272.9a5.37,5.37,0,1,1-7.88-.3,5.59,5.59,0,0,1,7.88.3m10.43-10.43c-8.49-8.49-21.73-9-29.58-1.14s-7.34,21.1,1.14,29.58,21.73,9,29.58,1.14,7.34-21.1-1.14-29.58Z"/></g><g id="four"><path class="cls-2" d="M313.6,227.8a5.37,5.37,0,1,1-7.88-.3,5.59,5.59,0,0,1,7.88.3M324,217.36c-8.49-8.49-21.73-9-29.58-1.14s-7.34,21.1,1.14,29.58,21.73,9,29.58,1.14,7.34-21.1-1.14-29.58Z"/><path class="cls-2" d="M405.81,227.51a5.37,5.37,0,1,1-7.88-.3,5.59,5.59,0,0,1,7.88.3m10.43-10.43c-8.49-8.49-21.73-9-29.58-1.14s-7.34,21.1,1.14,29.58,21.73,9,29.58,1.14,7.34-21.1-1.14-29.58Z"/><path class="cls-2" d="M498,227.22a5.37,5.37,0,1,1-7.88-.3,5.59,5.59,0,0,1,7.88.3m10.43-10.43c-8.49-8.49-21.73-9-29.58-1.14s-7.34,21.1,1.14,29.58,21.73,9,29.58,1.14,7.34-21.1-1.14-29.58Z"/><path class="cls-2" d="M590.24,226.94a5.37,5.37,0,1,1-7.88-.3,5.59,5.59,0,0,1,7.88.3m10.43-10.43c-8.49-8.49-21.73-9-29.58-1.14s-7.34,21.1,1.14,29.58,21.73,9,29.58,1.14,7.34-21.1-1.14-29.58Z"/></g><g id="three"><path class="cls-2" d="M359.85,181.55a5.37,5.37,0,1,1-7.88-.3,5.59,5.59,0,0,1,7.88.3m10.43-10.43c-8.49-8.49-21.73-9-29.58-1.14s-7.34,21.1,1.14,29.58,21.73,9,29.58,1.14,7.34-21.1-1.14-29.58Z"/><path class="cls-2" d="M452.06,181.26a5.37,5.37,0,1,1-7.88-.3,5.59,5.59,0,0,1,7.88.3m10.43-10.43c-8.49-8.49-21.73-9-29.58-1.14s-7.34,21.1,1.14,29.58,21.73,9,29.58,1.14,7.34-21.1-1.14-29.58Z"/><path class="cls-2" d="M544.28,181a5.37,5.37,0,1,1-7.88-.3,5.59,5.59,0,0,1,7.88.3m10.43-10.43c-8.49-8.49-21.73-9-29.58-1.14s-7.34,21.1,1.14,29.58,21.73,9,29.58,1.14,7.34-21.1-1.14-29.58Z"/></g><g id="two"><path class="cls-2" d="M406.1,135.3a5.37,5.37,0,1,1-7.88-.3,5.59,5.59,0,0,1,7.88.3m10.43-10.43c-8.49-8.49-21.73-9-29.58-1.14s-7.34,21.1,1.14,29.58,21.73,9,29.58,1.14,7.34-21.1-1.14-29.58Z"/><path class="cls-2" d="M498.32,135a5.37,5.37,0,1,1-7.88-.3,5.59,5.59,0,0,1,7.88.3m10.43-10.43c-8.49-8.49-21.73-9-29.58-1.14s-7.34,21.1,1.14,29.58,21.73,9,29.58,1.14,7.34-21.1-1.14-29.58Z"/></g><path id="one" class="cls-2" d="M452.35,89a5.37,5.37,0,1,1-7.88-.3,5.59,5.59,0,0,1,7.88.3m10.43-10.43c-8.49-8.49-21.73-9-29.58-1.14s-7.34,21.1,1.14,29.58,21.73,9,29.58,1.14,7.34-21.1-1.14-29.58Z"/></g><g id="balls"><path id="leftball" class="cls-4" d="M120.6,533.81C-7.53,443.84-38.46,267,51.51,138.9S318.29-20.16,446.42,69.81"/><path id="rightball" class="cls-4" d="M446.42,69.45c118.21-102.66,297.26-90,399.92,28.17s90,297.26-28.17,399.92"/></g></g></g></g></svg>