<svg xmlns="http://www.w3.org/2000/svg" id="cheers" viewBox="0 0 1136.45 1806.03"><defs><style>.cls-1,.cls-14{opacity:.45}.cls-11,.cls-13,.cls-14,.cls-2,.cls-3,.cls-4,.cls-6,.cls-9{fill:#fff}.cls-3,.cls-5{opacity:.3}.cls-12,.cls-4{opacity:.6}.cls-5{fill:none;stroke:#fff;stroke-miterlimit:10}.cls-6,.cls-7{opacity:.15}.cls-8{fill:#fffafe}.cls-10,.cls-8{opacity:.5}.cls-9{opacity:.2}.cls-10{fill:#fffdfd}.cls-11{opacity:.4}.cls-13{opacity:.7}</style></defs><title>HeartSpill2</title><g id="Slide1"><g id="HeartSpill"><path id="star" class="st1" d="M629.5 957.5l129.1 34.7-129.1 34.8-34.8 129.1L560 1027l-129.1-34.8L560 957.5l34.7-129.1z"/><g id="WineglassLeft"><g id="Left-contents-slide3"><g id="Splash"><g id="flow" class="cls-1"><path class="cls-2" d="M365.5 790.42c20.32-7.29-.81-17.54-14.64-18.31-2.37-.13-4.72-2.72-5.36-5.94-1.73-8.72-7.14-21.19-9.42-32.93a7.62 7.62 0 0 1 .05-3.41c8.15-29.77-3.89-26.88-16.52-13.36a3.35 3.35 0 0 1-4.43.37c-5.74-3.56-35.4-11.68-41.63-14.27a7.64 7.64 0 0 1-3.85-4.81c-7-21.86-48.26-19.94-60.24-23.12a6.6 6.6 0 0 1-3.85-3.58c-14.72-29.38-22.38-14-36.69 1.87a3.18 3.18 0 0 1-3.69.8c-29.15-11.53-14.56-27.94-12.07-37.31 4.37-16.46-4.31-23.79-14.26-28.68S123 587.29 127 576.65c7-18.59-7.78-14.27.32-22.52a3.22 3.22 0 0 1 1.39-.84c35.05-10.33-6.29-72.05-15-19.64-.53 3.2-3.17 4.64-5.71 2.78-8.1-5.94-7.17 31.79 3.86 50.31-12.21-20.5-15.61 39.45 19.38 71.83a30 30 0 0 1 7.19 10.83c19 47.32 159.1 64.63 185 137 19.15 53.45 67.09-20.38 71.31-16 5.32 5.54-14.34 10.15-11.29 18.22 6.33 16.74 88.74-9.59 85.63-7.21-2.83 2.16-6.67 5.2-6.17 9.07C479.22 935.26 362.93 1097.91 344 1132c-1.93 3.48-5.86 6.12-2.38 8.19C433.55 1195 520 873.84 520.66 832a6.56 6.56 0 0 1 2.29-5c6.65-5.47 8.63-36.47 3.6-47a8.69 8.69 0 0 1-.61-6c1.59-5.86-92.86 12.3-103.43 4.85-3.28-2.31-118.43-26.24-116.41-29.52 5.46-8.85 53.41 41.93 58.74 41.24a3.08 3.08 0 0 0 .66-.15z"/></g><path id="body" class="cls-3" d="M272 713.26c2.16 34.5 30.83 30.29 29.82 59.56-1.12 32.64 85.15-5.72 99.85 18.71 12.8 21.26 75.31 23.61 67.93 33.33a14.24 14.24 0 0 0-2.48 5.4l-.56 2.38h-.16c-3.59 11.78 10.51 28.16 8.89 58.92-14.59 277.79-135 246.36-135 246.36v4.48a68.43 68.43 0 0 0 7.45 30.67c4.68 9.21 10.59 21 14.66 29.87 46.33 110.33 59.07 116.17 78.1 119 20 3 23.45-13.75 43.5-37.41a80.17 80.17 0 0 0 7.9-11.12c8.91-15.12 33.24-51.06 33.24-51.06l3.21-5.83c10.2-21.66 20.14-41.37 18.63-67.26l-18.23-312.4c-.54-6.2-.29-10.17-.74-12.55a5.19 5.19 0 0 1-1 3.2 31.25 31.25 0 0 0-3.81-8.3c-3.67-5.62-7.7-5.22 1.35-6.5 12.34-1.75 23.38-9 16-21.93-7.12-12.51-30.38 3.59-34 11.36-6.22 13.48-50.1-14.51-54.48-24.74s-52.35-30.49-24.65-51.65c12.84-9.81-32.36-2.73-46.24-11.69-15-9.65-17.8 53.18-15.93 8.06.59-14.31-24.66 35.6-37.45 19.89-94.5-116.19-57.95-63.25-55.8-28.75z"/><path id="highlight" class="cls-3" d="M345.76 767.65c-1.39-8.93-7.51-22.52-9.82-35.15a5.06 5.06 0 0 1 .08-2.24c8.53-30.76-4.16-27.25-17.08-13a2.28 2.28 0 0 1-2.89.36c-7.75-4.06-34.8-11.54-43.46-15.47a5.41 5.41 0 0 1-2.64-3.53c-6.38-23.38-50.88-20.56-61.47-24.22a4.61 4.61 0 0 1-2.41-2.39c-14.66-29.87-22.31-15.74-36.14-.13a5.32 5.32 0 0 1-6.36 1.22c-26.9-11.49-12.84-27.43-10.4-36.63 4.61-17.35-5.29-24.55-15.89-29.46-9.39-4.35-14.85-19.06-10.82-28.82 8.46-20.49-7.69-15.46 1.14-24.24a2.11 2.11 0 0 1 .92-.53c19.7-5.61 15.67-27.24 6.71-36.4-1.27-1.3-2.84-1.45-3.83-.42-5.11 5.32-12.88 15.66-12.44 29.07.65 19.88-14.36 8.89-2.57 36.42s-13.52 24.41 6.93 44.75 9 39.63 23.65 47.46c7.54 4 17.52 5.61 25.42 6.19 6.88.5 12.18-5.09 12.81-13.89.5-7 2.35-12 8-1.77 10.66 19.33 15.39 33.76 24.06 26.56s22.26-17.69 24.59-5.73 11.76 25 15.93 20.45 5.18-6.47 14.28 7.21 25.61 29.63 35.64 17.5 23.61-24.43 20.06-14.14-11.42 18.43-2.93 27.6 15.6 18.65 12.69 24.16S362 773.58 357.77 780a64.77 64.77 0 0 1-4.65 6.11c-2 2.3 0 7.4 3 7.68a2.13 2.13 0 0 0 1.37-.33 18.67 18.67 0 0 1 7.51-2.94 2.07 2.07 0 0 0 .45-.1c21.12-7.52-2-18.22-15.82-18.38-1.78-.04-3.5-2.04-3.87-4.39z"/></g><g id="spill"><path id="spill-2" data-name="spill" class="cls-4" d="M469.3 674.48c-56.1-52.18-155.84-48.1-226.3-48.17-54-.06-192.21 5.63-185.08-78.85 6.4-76 85.21-92.49 145.86-77.71-24.48 39.19 50.57 60.73 60.66 18.25 7.24-30.5-44-38.78-57.59-49.33-6.21-4.83-14.25-31.19-28-41.64-18.79-14.23-41.09-23.87-64-13.74-13.42 5.94-38.54 37.38-52 47.12-22 15.9-32.31 25.39-44.73 46.91-29.8 51.62-21.64 106.16 15.68 150.85 48.07 57.58 96.55 43.07 161.89 48.75 26.87 2.33 46.22 18.17 71.18 22.73 30.47 5.57 51.31-2.17 81.2-4.31 18.8-1.35 73.77 17.8 71.7-12.64 22 13.54 42.28 42.45 27.74 66.81-4.86 8.15-30.92-18.95-38.29 10.33-8.57 34.07 53.48 35 69.88 22.41 35.82-27.37 17.1-82.75-9.8-107.77z"/><path id="highlight-2" data-name="highlight" class="cls-4" d="M7.21 550.11c13.66-25.85 8.81-14.84 13.36-41.82s-6.45-31.83 16.67-34.89c40.12-5.32 66.87-22.72 67.68-34.84s1.74-38.75 19.73-27 8.3 37.54 30 35 17.14-17.91 30.59-7 7.93 12.68 19.35 14.05 23.91-5.62 26.9 2.33a111.45 111.45 0 0 0 5.38 12.31 13.17 13.17 0 1 0 21.71-1.52q-1-1.13-2.21-2.19a13.26 13.26 0 0 0-2.88-1.73l-1.62-1.81c-14.5-10.27-36.75-15.86-45-22.29-6.21-4.83-14.25-31.19-28-41.64-18.79-14.23-41.09-23.87-64-13.74-13.42 5.94-38.54 37.38-52 47.12-22 15.9-32.31 25.39-44.73 46.91-29.82 51.58-21.66 106.12 15.66 150.81 11.64 13.94 23.3 23.64 35.21 30.44l.42-.88s-24.82-12.36-36.06-40.18S-6.45 576 7.21 550.11z"/><path id="hightlight" class="cls-4" d="M255.67 626.29a13.16 13.16 0 0 1-5 23.33l17.84-2.38a28.56 28.56 0 0 1 15.66 2.26C324.59 668 335 630 354.78 636.07c23.15 7 38.7 31.32 46 35.78 12.89 7.87 13.86-23.61 37.89 1.39s34.54 39.1 34.37 42.41c-.12 2.42 16.62 14.25 25.69 20.48-1.41-23.21-14.09-47.38-29.44-61.66-52.81-49.12-144.29-48.37-213.62-48.18z"/></g><g id="Bubbles"><circle class="cls-5" cx="509.56" cy="1142.41" r="4.32" transform="rotate(-3.19 509.298 1141.64)"/><circle class="cls-5" cx="490.16" cy="1067.47" r="4.32" transform="rotate(-3.19 489.815 1066.88)"/><circle class="cls-5" cx="463.8" cy="1181.77" r="4.32" transform="rotate(-3.19 463.456 1180.977)"/><circle class="cls-5" cx="504.81" cy="1051.12" r="2.83" transform="rotate(-3.19 504.47 1050.397)"/><circle class="cls-5" cx="480.86" cy="1098" r="2.83" transform="rotate(-3.19 480.52 1097.351)"/><circle class="cls-5" cx="494.29" cy="1174.5" r="2.83" transform="rotate(-3.19 494.028 1173.742)"/><circle class="cls-5" cx="475.63" cy="1151.65" r="2.83" transform="rotate(-3.19 475.255 1150.936)"/><circle class="cls-5" cx="495.22" cy="1120.21" r="5.05" transform="rotate(-3.19 494.82 1119.493)"/><circle class="cls-5" cx="504.26" cy="1106.47" r="5.05" transform="rotate(-3.19 504.008 1105.732)"/><circle class="cls-5" cx="510.75" cy="1078.89" r="5.05" transform="rotate(-3.19 510.345 1078.235)"/><circle class="cls-5" cx="476.77" cy="1135.83" r="5.05" transform="rotate(-3.19 476.413 1135.154)"/><circle class="cls-5" cx="471.53" cy="1230.33" r="9.2" transform="rotate(-3.19 471.27 1229.535)"/></g><g id="Bubbles-2" data-name="Bubbles"><circle class="cls-5" cx="445.33" cy="1188.68" r="3.61" transform="rotate(-13.48 445.349 1188.682)"/><circle class="cls-5" cx="418.16" cy="1129.88" r="3.61" transform="rotate(-13.48 418.151 1129.87)"/><circle class="cls-5" cx="413.54" cy="1227.91" r="3.61" transform="rotate(-13.48 413.558 1227.91)"/><circle class="cls-5" cx="427.78" cy="1114.23" r="2.36" transform="rotate(-13.48 427.764 1114.233)"/><circle class="cls-5" cx="415.06" cy="1156.4" r="2.36" transform="rotate(-13.48 415.059 1156.403)"/><circle class="cls-5" cx="437.56" cy="1217.38" r="2.36" transform="rotate(-13.48 437.541 1217.36)"/><circle class="cls-5" cx="418.78" cy="1201.35" r="2.36" transform="rotate(-13.48 418.796 1201.373)"/><circle class="cls-5" cx="430.21" cy="1172.54" r="4.23" transform="rotate(-13.48 430.227 1172.524)"/><circle class="cls-5" cx="435.6" cy="1159.88" r="4.23" transform="rotate(-13.48 435.585 1159.858)"/><circle class="cls-5" cx="436.82" cy="1136.21" r="4.23" transform="rotate(-13.48 436.795 1136.192)"/><circle class="cls-5" cx="417.35" cy="1188.16" r="4.23" transform="rotate(-13.48 417.354 1188.162)"/><circle class="cls-5" cx="427.16" cy="1266.74" r="7.7" transform="rotate(-13.48 427.156 1266.753)"/></g></g><g id="Left-Contents-slide2"><path id="Liquid" class="cls-6" d="M375.65 1118.08a11 11 0 0 0-11.78 9.28c-3.9 25.56-19.41 65-8.64 82.78 20.4 33.69 48.1 77.06 64.47 97.72 5.32 6.28 12.53 8 19.4 7.65A36.59 36.59 0 0 0 467 1300s12.15-15.66 23.22-31a11.29 11.29 0 0 0 .74-1.17c14.82-26.94 28.65-55.69 33.66-66.56 11.62-25.19 15.22-53.2 14.8-71.43 0-2.18-.13-4.49-.24-6.91l-.56-10v-.58l-16.78-153.9q-.25-2.29-.48-4.45l-.49-4.64a12.58 12.58 0 0 0-1.25-4.45c-2.11-3-44.25-119-30-136.33 46.17-56.22-262.23-424.4-118.72-162.5 28.51 52 57.89 33.11 66.51 48.31 41.36 73-14.1 79.91-10.33 90.25 21.54 59.22-76.29 88.13-33.84 105 79.48 31.65 81.72 86.81 66.48 132.1-13.46 40-41.36 73.47-77.67 94.86a10.91 10.91 0 0 1-6.39 1.45z"/><g id="Bubbles-3" data-name="Bubbles"><circle class="cls-5" cx="509.56" cy="1142.41" r="4.32" transform="rotate(-3.19 509.298 1141.64)"/><circle class="cls-5" cx="490.16" cy="1067.47" r="4.32" transform="rotate(-3.19 489.815 1066.88)"/><circle class="cls-5" cx="463.8" cy="1181.77" r="4.32" transform="rotate(-3.19 463.456 1180.977)"/><circle class="cls-5" cx="504.81" cy="1051.12" r="2.83" transform="rotate(-3.19 504.47 1050.397)"/><circle class="cls-5" cx="480.86" cy="1098" r="2.83" transform="rotate(-3.19 480.52 1097.351)"/><circle class="cls-5" cx="494.29" cy="1174.5" r="2.83" transform="rotate(-3.19 494.028 1173.742)"/><circle class="cls-5" cx="475.63" cy="1151.65" r="2.83" transform="rotate(-3.19 475.255 1150.936)"/><circle class="cls-5" cx="495.22" cy="1120.21" r="5.05" transform="rotate(-3.19 494.82 1119.493)"/><circle class="cls-5" cx="504.26" cy="1106.47" r="5.05" transform="rotate(-3.19 504.008 1105.732)"/><circle class="cls-5" cx="510.75" cy="1078.89" r="5.05" transform="rotate(-3.19 510.345 1078.235)"/><circle class="cls-5" cx="476.77" cy="1135.83" r="5.05" transform="rotate(-3.19 476.413 1135.154)"/><circle class="cls-5" cx="471.53" cy="1230.33" r="9.2" transform="rotate(-3.19 471.27 1229.535)"/></g><g id="Bubbles-4" data-name="Bubbles"><circle class="cls-5" cx="445.33" cy="1188.68" r="3.61" transform="rotate(-13.48 445.349 1188.682)"/><circle class="cls-5" cx="418.16" cy="1129.88" r="3.61" transform="rotate(-13.48 418.151 1129.87)"/><circle class="cls-5" cx="413.54" cy="1227.91" r="3.61" transform="rotate(-13.48 413.558 1227.91)"/><circle class="cls-5" cx="427.78" cy="1114.23" r="2.36" transform="rotate(-13.48 427.764 1114.233)"/><circle class="cls-5" cx="415.06" cy="1156.4" r="2.36" transform="rotate(-13.48 415.059 1156.403)"/><circle class="cls-5" cx="437.56" cy="1217.38" r="2.36" transform="rotate(-13.48 437.541 1217.36)"/><circle class="cls-5" cx="418.78" cy="1201.35" r="2.36" transform="rotate(-13.48 418.796 1201.373)"/><circle class="cls-5" cx="430.21" cy="1172.54" r="4.23" transform="rotate(-13.48 430.227 1172.524)"/><circle class="cls-5" cx="435.6" cy="1159.88" r="4.23" transform="rotate(-13.48 435.585 1159.858)"/><circle class="cls-5" cx="436.82" cy="1136.21" r="4.23" transform="rotate(-13.48 436.795 1136.192)"/><circle class="cls-5" cx="417.35" cy="1188.16" r="4.23" transform="rotate(-13.48 417.354 1188.162)"/><circle class="cls-5" cx="427.16" cy="1266.74" r="7.7" transform="rotate(-13.48 427.156 1266.753)"/></g><path id="spill-3" data-name="spill" class="cls-6" d="M447.51 973.74a45.84 45.84 0 0 0-5.44-31.06c-5.88-10.15-13.74-27.47-20.56-55.19-12.82-52.15-44.18-42.91-31.34-95.17S496 752.78 436 708.62 360 664 356.65 640.1s30.36-73.93 31.29-86.66c3-40.61-17.8-46.88-27.27-54.67s-14.4-24-3.21-18.7 1.39 11.36 13.67 10.83 6.57-12.6 13.16-11.59S402.71 477 403.93 499s-12.09 15.55 7.56 35.28 35.09 17.5 29.09 37.35 1.82-4-12.73 32.54-1.24 55 10.26 59.85 27.84-13.7 29.69 7.24-9.71 14.9-6.49 43.49 22.2 34.36 22.57 47.75.31 21.74-15.85 41 12.49 30.37 19.78 66.55 35.58 155.4 7.4 161.3c-28.58 6-115.53 111.15-127.91 108-10.62-2.77 74.22-132.15 80.21-165.61z"/><path id="spill-4" data-name="spill" class="cls-3" d="M489.59 705.09c-8.47-15.29-18.3-18.27-38.56-30.67s-27.41-27.86-28.24-72.8-6-24-21.2-53.88-17.06-1.64-27.53-8.5-4.23-6.81-8.51-15.86-19-5.73-7.15 3.83.24 12.92-2.51 24 16.62 12.65 16.62 12.65 14.84-5.12 18.1 52.13c2.88 50.56 34.57 64.88 54.65 91.2 2.15 3.34 4.25 6.49 6.32 9.5.32.56.65 1.12 1 1.69 18.46 34.36-18 52.2-12.23 124.4s-11.88 28.64-.64 74-71.6 14-49.77 39.5c1.54 1.8 4.62 4 8.36 6.32a41.87 41.87 0 0 1 18.26 48l-.06.18c-1.45 9-51.57 105.25-51.75 106.45-11.36 75 80.57-49.52 89.5-54.38 44.41-24.18 6.19-96.77 28.11-120.43s1.93-50.39-5-84.87c-2.6-13-1.9-24.19 5.15-34.31 4.43-6.85 5-12.07 7.09-14.66 17.67-21.51 21.92-47.07 15-67.19-2.02-9.27-6.85-21.56-15.01-36.3z"/></g><g id="Left-Contents-slide1"><path class="cls-6" d="M340.74 1149.16a133.56 133.56 0 0 0 15.51 68.43c18.5 34.77 43.74 79.61 58.94 101.16 5 6.57 12.07 8.65 18.94 8.72a36.59 36.59 0 0 0 28.71-13.94s13.33-15.33 25.35-30.18c16.43-26.24 32-54.52 37.68-65.17 13-24.5 18.15-52.27 18.75-70.5.07-2.18.12-4.49.15-6.91v-10.3l-8.16-154.9c-.08-1.54-.16-3-.24-4.47s-.15-3-.23-4.66a12.58 12.58 0 0 0-1-4.51c-1.94-3.08-21.83 2.71-25.46 4.54-9.37 4.74-22.67 22-35.33 32s-18 14.67-67.8-5.33c-44.39-17.82-57.9 11.38-60.32 17.94zm-3.14 33.03a31 31 0 0 0 .91 4.94q-.51-2.49-.91-4.94z" id="liquid-2" data-name="liquid"/><path id="highlight-3" data-name="highlight" class="cls-6" d="M377.14 1044.13c30.54-1 30.13-16.5 61.58-18.5s32.45 12.23 56 2.61 38.51-39.75 41.69-57.15c.42-2.28 0-7.25-1.24-9.17-1.94-3.08-21.83 2.71-25.46 4.54-9.37 4.74-22.67 22-35.33 32s-18 14.67-67.8-5.33-60.74 19.21-60.74 19.21.76 32.79 31.3 31.79z"/><g id="Bubbles-5" data-name="Bubbles"><circle class="cls-5" cx="397.99" cy="1072.12" r="4.32"/><circle class="cls-5" cx="465.35" cy="1095.52" r="4.32"/><circle class="cls-5" cx="431.33" cy="1205.56" r="4.32"/><circle class="cls-5" cx="381.21" cy="1117.43" r="2.83"/><circle class="cls-5" cx="444.37" cy="1069.67" r="2.83"/><circle class="cls-5" cx="479.23" cy="1179.64" r="2.83"/><circle class="cls-5" cx="402.31" cy="1179.64" r="2.83"/><circle class="cls-5" cx="421.95" cy="1124.4" r="5.05"/><circle class="cls-5" cx="484.29" cy="1124.4" r="5.05"/><circle class="cls-5" cx="494.4" cy="1076.43" r="5.05"/><circle class="cls-5" cx="449.42" cy="1155.08" r="5.05"/><circle class="cls-5" cx="471.35" cy="1227.47" r="9.2"/></g></g><g id="WineGlass"><g class="cls-7"><path class="cls-2" d="M575.5 1786.78a13 13 0 0 0-8.75-11.23L492.36 1750a51.55 51.55 0 0 1-34.82-48.76v-284.46a152.79 152.79 0 0 1 17-70.13l66.2-128.14a131.39 131.39 0 0 0 14.38-68.85L536.43 862.1c-.56-5.69-.3-9.19-.77-11.34 0 1.6-1 3.26-3 4.93-8.6 7.21-47.21 9.73-83.93 9.73-3.63 0-7.23 0-10.79-.07-39-.52-83.59-4-89.29-10.29a2.72 2.72 0 0 1-.76-1.8c-1.13 12.32-20 296.4-20 296.4a131.39 131.39 0 0 0 14.38 68.85l66.2 128.14a152.79 152.79 0 0 1 17 70.13v284.49a51.55 51.55 0 0 1-34.75 48.73l-74.39 25.52a13 13 0 0 0-8.75 11.23 6.26 6.26 0 0 0 .08 1.29c3 10 61.76 18 133.87 18 72.3 0 131.22-8 133.89-18a4.83 4.83 0 0 0 .08-1.26z"/></g><path class="cls-8" d="M448.72 865.42c-3.63 0-7.23 0-10.79-.07-39-.52-83.59-4-89.29-10.29a2.64 2.64 0 0 1 .23-3.93c13.38-13.23 88.33-14.87 91.51-14.93h.32c10.55 0 90.14.43 94.73 13.16.73 2-.2 4.16-2.78 6.32-8.6 7.22-47.21 9.74-83.93 9.74zm-8.31-27.22c-1.25 0-77.37 1.72-90.15 14.36-.59.58-.45.83-.15 1.16 4.4 4.89 42.16 9 87.84 9.63 49.32.65 86-3 93.43-9.2 1.87-1.57 2.6-2.95 2.18-4.1-3.15-8.75-57.41-11.9-93.15-11.85z"/><path class="cls-9" d="M447.67 1732.13l1.54.23a44.73 44.73 0 0 1 13.48 4.69s-13-9.07-14.36-36.52l2.54-316.44 6-15.4s-13.83 11.3-29.5 1.57l5.57 12.28v324.31c-.33 7.16 1.76 14.47-8.57 24.92-1.71 1.73-6.62 7.1-6.62 7.1a45.7 45.7 0 0 1 29.92-6.74zm-96.46 41.37c-3.29 1.25-16.67 4.71-18.66 8.47l83.22-12.44a184.06 184.06 0 0 1 49-.73l78.51 9.35c-4.46-2.13-10.71-3.81-12.9-4.64l-44.9-15.17a126.15 126.15 0 0 1-20.62-9.11l-.3-.16-7.55 3.35a46.07 46.07 0 0 1-34.1 1.31l-8.11-2.88a125.92 125.92 0 0 1-24.6 10.62z"/><path class="cls-10" d="M575.5 1786.78a4.83 4.83 0 0 1-.06 1.21c-2.67 10-61.59 18-133.89 18-72.11 0-130.9-8-133.87-18a6.26 6.26 0 0 1-.08-1.29l.15-1a12.32 12.32 0 0 1 2.33-5.57l.64-.86c0 .16 5.16 19.26 131.28 19.26 70.64 0 128.65-8.08 131.27-18.11a12.51 12.51 0 0 1 1.57 3.12 16.18 16.18 0 0 1 .66 3.24z"/><path class="cls-11" d="M442 1798.61c66 0 121-7.05 130-16.15-1.56-4.52-21.69-7.91-25.68-9.43l-52.53-17.75a147.58 147.58 0 0 1-24.13-10.65l-6.31-3.49a44.82 44.82 0 0 0-14.17-5.1l-1.54-.23a45.33 45.33 0 0 0-29.92 6.8l-1.07.66a148 148 0 0 1-34.3 15.73l-45.61 14c-3.57 1.36-19.72 4.73-24.15 8.69 5.96 5.18 30.49 16.92 129.41 16.92zm-90.78-25.11l39-12a126.52 126.52 0 0 0 29.35-13.4l.91-.57a38.74 38.74 0 0 1 25.57-5.81l1.31.2a38.31 38.31 0 0 1 12.11 4.36l5.4 3a126.15 126.15 0 0 0 20.62 9.11l44.9 15.17c3.52 1.34 17.45 4.85 17.75 8.9a4.23 4.23 0 0 1 0 1c-1.91 7.94-44.6 12-96.33 12s-117.27-3.68-119.39-11.59a5.48 5.48 0 0 1-.06-1c.25-4.16 15.33-8.03 18.85-9.37z"/><path class="cls-9" d="M462.69 1737.05a44.73 44.73 0 0 0-13.48-4.69l-1.54-.23a45.7 45.7 0 0 0-29.92 6.73s4.91-5.37 6.62-7.1c10.33-10.45 8.24-17.76 8.57-24.92v-324.31l-5.57-12.28a15.22 15.22 0 0 1 9.81 14l3 181.14L438.1 1715a12.77 12.77 0 0 0 10 12.63c4.4 1.01 9.62 3.55 14.59 9.42zm-3.94-380.25l20.48-38.73-6-12a219 219 0 0 1-15.73 20.49 15.68 15.68 0 0 1-3.75 3l-7 36.86a19.93 19.93 0 0 0 12-9.62z"/><path class="cls-9" d="M530 1222.07c-1.24-2.37-24.85 34.27-34.26 49.1a82.6 82.6 0 0 1-8.12 10.7c-21.66 24.28-25.36 40.26-46.8 39.73-20.34-.5-34-4.49-83.26-101.6-19.4-34.7-5 4-5 4s63.17 117.24 71 132.38c3.42 6.64 8 10.8 15.51 10.8h2.22a19.94 19.94 0 0 0 17.5-10.4z"/><path class="cls-3" d="M361.54 1167.86s-1.67 48 45 118.51c0 0-14.17-23.15-22.5-56.85-9.07-36.65-12.37-83.31-12.74-61.94-.3 17.23-9.76.28-9.76.28z"/><path class="cls-9" d="M462.69 1312.6c-5.85 6-12 9.26-21.85 9s-18-1.3-29.37-13.09c0 0-26.76-18 11.23 46.27l.83 1.6c3.42 6.64 8 10.8 15.51 10.8h2.22a19.94 19.94 0 0 0 17.5-10.4l1.62-3.07s40.62-72.71 2.31-41.11z"/><path class="cls-11" d="M355.54 1149.86c1.06-44.73 10.31-242.18 12.53-289-3.92-.58-7.4-1.22-10.34-1.92l-11.83 293.78c-1.1 23.09 7 44.6 17.41 65.43l13.83 23.77s-22.66-47.16-21.6-92.06z"/><path class="cls-3" d="M376.13 861.89l-11.74 291.5c1.69 21.28 4.36.44 4.82-4.53 4.33-46.66 10.15-235.34 12.41-286.38-1.88-.19-3.71-.38-5.49-.59z"/><path class="cls-9" d="M551 1148.59c-2.4-37-14.7-252.73-17.16-294.07-.07.06-.65.65-.72.71a9.94 9.94 0 0 1-2 1.46c.68 19.65 3.87 88.44 5.18 114.39 2.24 44.2 9.65 134 8.25 176.58-.6 18.23-5.75 46-18.75 70.5-9.33 17.58-45.78 83.24-68.33 108.42-7.85 8.76-29.12 8.69-36.67-.33-13.78-16.48-43.57-69.1-64.62-108.67a133.56 133.56 0 0 1-15.51-68.43l11.58-291.75a17.79 17.79 0 0 1-2.35-1l-2.51 51.21-11.92 231.69s-4 46 13.33 78c14.13 26.09 59.27 109.32 74.66 139.2 3.42 6.64 8 10.8 15.51 10.8h2.22a19.94 19.94 0 0 0 17.5-10.4l72.79-137.6s22.22-29.71 19.52-70.71z"/><path class="cls-11" d="M537.39 1106.82l-14.64-247c-2.34.57-4.91 1.15-7.77 1.62l13.89 243.91c.66 7.67-2.38 70.84-11.52 90.94l-46 101.19 39.33-68.67c11.68-19.55 20.68-39.64 25-62l.64-3.32c3.13-16.18 2.08-40.21 1.07-56.67z"/><path class="cls-6" d="M440.41 838.2c-1.25 0-77.37 1.72-90.15 14.36-.59.58-.45.83-.15 1.16 4.4 4.89 42.16 9 87.84 9.63 49.32.65 86-3 93.43-9.2 1.87-1.57 2.6-2.95 2.18-4.1-3.15-8.75-57.41-11.9-93.15-11.85z"/><path class="cls-6" d="M357.73 856.83c2.81.69 6.29 1.35 10.35 2l.4-13.57a80.75 80.75 0 0 0-10.75 3.1zm-7.62-3.12a7.58 7.58 0 0 0 2.67 1.59v-4.61a13.5 13.5 0 0 0-2.47 1.87c-.64.58-.5.82-.2 1.15zm164.59 5.76c3-.51 5.68-1.07 8-1.67l-.49-13.42c-2.52-.61-5.39-1.18-8.53-1.69zm15.58-12.36l.68 7.34c.14-.1.29-.2.41-.3 1.87-1.57 2.6-2.95 2.18-4.1s-1.55-2.05-3.27-2.94z"/></g></g><g id="wineglassRight"><g id="Right-contents-slide3"><g id="Splash-2" data-name="Splash"><g id="flow-2" data-name="flow" class="cls-12"><path class="cls-2" d="M685.45 754.21c-28.13-13.47.16-18.89 19-15.95a6.25 6.25 0 0 0 7-5c1.91-9 8.63-21.14 11.12-33.3a6.84 6.84 0 0 0-.25-3.72c-12.69-34.64 3.89-28.21 21.84-10a6 6 0 0 0 6.07 1.61c7.64-2.31 23-4.75 31-7.41a6.5 6.5 0 0 0 4.2-5c4.47-23.13 62.5-20.47 78.3-23.7a6.29 6.29 0 0 0 4.44-3.73c13.47-31 27.78-14.54 51.46 2.5a6 6 0 0 0 5.32.89c37.78-11.83 13.6-29.44 7.9-39.43-10-17.53.33-25.18 13-30.24s17.2-21.46 9.08-32.81c-14.19-19.83 7.42-15-5.82-23.91A6.28 6.28 0 0 0 947 524c-51.2-11.45-8.42-76.37 16.11-20.63 1.5 3.4 5.52 5 8.59 3 9.84-6.18 17.54 33.84 6.61 53.33 12.1-21.58 31.09 42.08-9.84 76a22.87 22.87 0 0 0-7.37 11.21C946.5 697 761 706.17 743.54 783.05a24.68 24.68 0 0 1-9 13.93 25.14 25.14 0 0 0-9.53 19.09c-.42 13.68 9.88 25.1 23 25.5h.12c19.9 99.41 83.14 293.85 116.08 321.69 8.32 7 .32 7.91-3.28 9.33C765.6 1210.22 691.09 898.87 691.55 860a6.63 6.63 0 0 0-2.21-5c-6.66-6-7.87-35-2.45-44a7.1 7.1 0 0 0 .77-5.48c-1.47-5.65 8-17.81 19-23.2a6.67 6.67 0 0 0 2.72-9.36c-5.35-9-15.71-16.2-23-18.39a6.06 6.06 0 0 1-.93-.36z"/></g><path id="body-2" data-name="body" class="cls-3" d="M741.62 741.4c14 6.81-3 30.77-18.7 51.3-13.63 17.88 13.66 57.92 21 68a14.43 14.43 0 0 1 2.39 5.36l.51 2.29h.17c3.36 11.43-14 25.73-10.62 53.33 33.06 268.74 131.55 247.59 131.55 247.59l-.13 4.15a53.92 53.92 0 0 1-8.4 27.35c-5 7.86-11.37 18-15.75 25.58-50.2 95.62-63.37 99.21-82.88 99.12-20.5-.1-23.6-16.09-43.46-40.88a87.9 87.9 0 0 1-7.78-11.43c-8.71-15.28-32.63-52.06-32.63-52.06l-3.13-5.86c-9.85-21.53-19.5-41.21-17.28-65l26.74-286.88c.71-5.67.56-9.39 1.08-11.52a4.94 4.94 0 0 0 .92 3.1 24.23 24.23 0 0 1 4.11-7.14c3.9-4.68 10-13.77.76-16.25-12.56-3.39 2.41-14.08 12.33-23.4 26.27-24.69 22.6-82.37 3.76-56.7-7.95 10.83-22.91 17-31 11-9.41-7 2.63 28.56-12.39 20.27-8.71-4.81-2.09-8.31-18.74-10.82s22.39-18.18 21.5-34c-.02.05-16.55-41.49 76.07 3.5z"/><path id="highlight-4" data-name="highlight" class="cls-3" d="M711.15 739.82c-1.78-9.47 9.18-25.79 11.81-41.9-14.54-38.36 4.74-29.44 24-8.87 6-3.15 32.22-6.51 38.28-10.35-.75-29.29 74.54-22.83 81.94-28.23 13.8-34.45 28.25-17.51 52.6 0a5.85 5.85 0 0 0 5.16.87c37.9-11.83 13.68-29.46 8-39.45C921 591 938 584.1 953.37 578.94c9.9-3.32 13.19-16.18 6.25-24.24-23.45-27.25 5.15-19.82-11.5-30.45-31.85-6.48-28.86-33.05-16-40.94 7.9 5 23.89 16.93 26.75 32.69 3.83 21.09 22.08 9.64 12.24 38.69s24.6 26.1 1 47.39S969 644 950.51 652.1c-10.68 4.69-26.37 6-37.7 6.35a16.82 16.82 0 0 1-16.58-12.67C894 637.27 890 629.52 884 641.4c-10.21 20.36-13.35 35.61-27.12 27.85s-35.16-19.08-35.55-6.42-10.4 26.36-17.28 21.48-8.74-6.94-18.13 7.45S775.58 721 761.25 705s-33.51-33-28.13-20.87 16.55 23.18 5.45 30.85-20.31 16.05-16 22.85-33.21-1-27.07 7.18 15.66 17 15.66 17l-13.66-1.69a38.48 38.48 0 0 0-11.58-5.94c-32.6-15.38 7.87-20.38 25.23-14.56z"/></g><g id="spill-5" data-name="spill"><path id="spill-6" data-name="spill" class="cls-4" d="M1124.48 83.47c-15.69-28.78-41.14-13.84-53.84 7.44-3.53-3.43 3.39-46.28-3.91-58.89C1054 10 1034.27 4.75 1010.61.79c-58.35-9.77-79 73.71-130.88 90.9-79.88 26.48-63.92 135.7-91.86 195.88-2.76 5.95-7.17 48.91 22.75 40.73 35.7-9.75 4.36-34.12 9.33-50 5.47-17.52 28.78-35.85 37.74-55.89 7.08-15.83-17.67-54.71-7.84-69.61 17.87-27.1 129.11-106 159.62-92.55 68.62 30.23-52 225-78.39 258.49-30.44 38.63-161.73 67.61-176.13 117.67-11.76 40.85 31.32 63.39 32.73 186.76.23 19.82 74.8-14.42 77.84-36.71 4.22-31-8.06 4.8-22.95-2.84-1.21-.62-34.17 16.15-34.73 15.89-9.54-4.49 2.16-29.25-4-39.72-26.23-44.51 93.55-180.81 121.35-204.58 22.76-19.46 46.37-27.89 62.7-55.1 12.52-20.85 11.61-54.16 27.12-69.86 40.24-40.77 159.25-55.49 109.47-146.78zm-240.82 74.75z"/><path id="highlight-5" data-name="highlight" class="cls-4" d="M842.57 583.58c-1.21-.62-34.17 16.15-34.73 15.89-9.54-4.49 2.16-29.25-4-39.72-26.23-44.51 93.55-180.81 121.35-204.58 22.76-19.46 46.37-27.89 62.7-55.1 12.52-20.85 11.61-54.16 27.12-69.86 40.24-40.73 159.25-55.45 109.46-146.74-15.69-28.78-41.14-13.84-53.84 7.44-3.53-3.43 3.39-46.28-3.91-58.89C1054 10 1034.27 4.75 1010.61.79c-58.35-9.77-79 73.71-130.88 90.9-79.88 26.48-63.92 135.7-91.86 195.88-2.76 5.95-7.17 48.91 22.75 40.73 25.54-7 16.77-21.43 11.53-34.92a11.64 11.64 0 0 0 1.63 4.06c3.3 8.06 6.64 16.88-15.62 5-3.84-3 3.58-9.55 3.58-9.55s-4.15-27.75 3.68-30.3-1.85-22.59 4.2-31.59 13.22-8.51 21.92-19.15-16.59-33.61-8.24-37.27 8.33-22.38 2.49-36.53 15.19-19.76 20.89-21.49S879.76 112 879 104.93s27.72-25.21 29.53-24.36S946.45 69 940 56.36s24.06-35.84 26.52-19.94 20.81 9.8 29.33-8.29 24.63-5.35 24.63-5.35c14.06-11.07 9.47 3.72 9.47 3.72s-13.56 12.77-4.62 25.09 3.13-19.16 23-22.31 15.43 27.18 10 55.58c-2.1 11.06 3.54 12.55 7.9 11.08-33.16 39.52-5 22.55-7.24 46.71-2.85 31.08-37.42 57.54-50.32 76.9s-22.81 34.56-38.7 52.87-18.27 26-20 42.53-37.57 35.72-39 38.73-11.32 13.09-38.48 15.55-2.33 11.65 2 14.08-13.29 11.79-25.81 11.79-5.07-.18-16.63 8.88 6.48 3.29 16.36 7.71-5.35 11-13.78 16.37-16.16 1.45-33.26-2.92-14.13 8.08-3.07 13.29 15.59-.76 19.38 8.39-14.62 12.27-36.3 3.53-5.68 12.06-2.4 29.08 13.55 27 7 40.9-4.65 17.7 8.15 42.15 1.12 16 1.12 16-1.66 11.74-2.55 24.59.78 7.74 13 17.93 15.31-4.58 25-11.07 15.51-12.59 22.57-16.63 5.11-10.85 8.57-17.83c-4.16 3.94-11.34 12.17-19.27 8.11z"/></g><g id="Bubbles-6" data-name="Bubbles"><circle class="cls-5" cx="693.92" cy="1188.48" r="4.32"/><circle class="cls-5" cx="693.13" cy="1141.35" r="4.32"/><circle class="cls-5" cx="698.38" cy="1160.92" r="4.32"/><circle class="cls-5" cx="720.04" cy="1168.51" r="2.83"/><circle class="cls-5" cx="694.34" cy="1054.95" r="2.83"/><circle class="cls-5" cx="683.71" cy="1109.44" r="2.83"/><circle class="cls-5" cx="680.34" cy="1130.62" r="2.83"/><circle class="cls-5" cx="712.87" cy="1195.85" r="5.05"/><circle class="cls-5" cx="698.18" cy="1092.37" r="5.05"/><circle class="cls-5" cx="682.73" cy="1067.89" r="5.05"/><circle class="cls-5" cx="702.25" cy="1114.97" r="5.05"/><circle class="cls-5" cx="709.91" cy="1223.95" r="9.2"/></g><g id="Bubbles-7" data-name="Bubbles"><circle class="cls-5" cx="745.92" cy="1217.29" r="2.95"/><circle class="cls-5" cx="746.46" cy="1249.45" r="2.95"/><circle class="cls-5" cx="742.88" cy="1236.09" r="2.95"/><circle class="cls-5" cx="728.1" cy="1230.92" r="1.93"/><circle class="cls-5" cx="751.21" cy="1273.36" r="1.93"/><circle class="cls-5" cx="740.92" cy="1261.91" r="1.93"/><circle class="cls-5" cx="755.19" cy="1256.78" r="1.93"/><circle class="cls-5" cx="732.99" cy="1212.26" r="3.45"/><circle class="cls-5" cx="731.04" cy="1273.56" r="3.45"/><circle class="cls-5" cx="741.58" cy="1290.26" r="3.45"/><circle class="cls-5" cx="728.26" cy="1258.13" r="3.45"/><circle class="cls-5" cx="735.01" cy="1193.08" r="6.28"/></g></g><g id="Right-Contents-slide2"><path class="cls-6" d="M739.6 1141a26.57 26.57 0 0 0 12.92 34.16c34 16.54-11.49-121.5 90.54 47.34 1.31 2.17-43.75 79.61-59 101.15-5 6.57-12.07 8.65-18.94 8.72a36.59 36.59 0 0 1-28.71-13.94s-13.33-15.33-25.34-30.19c-16.43-26.24-32-54.53-37.67-65.17-13-24.5-18.14-52.27-18.74-70.5-.07-2.18-.12-4.5-.15-6.91v-10.3l8.18-154.9c.08-1.54.16-3 .24-4.47s.15-3 .23-4.66c.17-1.82.87-3.53 1-4.51 15-106.27 60.75-61.48 97.39-128.75 29.88-54.87 38-120 39.6-119.19 5.94 3-4.15 172.12-88.42 199-39.44 12.59.54 67.78-2.95 72.56-5.1 7-23-14.93 9.13 37.36a331 331 0 0 1 19.66 37.45 95.51 95.51 0 0 1 1 75.75zm122.11 46.11a31 31 0 0 1-.91 4.94q.51-2.49.91-4.94z" id="liquid-3" data-name="liquid"/><path id="highlight-6" data-name="highlight" class="cls-3" d="M864.76 666.64c5-14.72 14.47-33-16.18-1.84-22.67 1.52-42.49 18-45.89 49.24a405.51 405.51 0 0 1-14.8 62.31c-9.11 14.08-18.66 35.84-30 55-14.51 10.13-29.29 29.88-40 35.1-18.94.51-15.49 18.19-17.24 31.4-14.17 11.18-17.87 29.63-7.3 34.85-3.31 8.78-31.21 37.56-21.73 47-4.42 18.71-8.85 23.73 15.61 31 12.5 20.35 23.26 5.18 31.91 23.09.63 33.89 11.92 48.74 13.29 42-5 14.48 12.19 42.12 11.42 36.45-5.74 20-8.39 61.44-5.56 45.77-2.83 15.67 12 44 25.79 12 11.34.84 21.16-18.38 20.34-36.56-.78 10.13-8.35 35.59-1.56-22.25 6.65-32.28 15.41-72.14 4.58-75.36-10.41 13-11.85 20.22-12.11 19.47-1.08 14.54 2.23 27.31-2.14 28.61a19.54 19.54 0 0 0-9.78 6c-7.88 9.59-11.84 9.23-7.56-20.51 1.67-15.53 1.58-8.63 7.59-33.79 3.47-9 7.17-50.5-.59-51.65-10.38 8.68-17.33 9.14-15.49 17.75-2.69 20.63 7.76 29.27-8.16 19.63-21 5.41-28.48 3.51-27.14-26.27-5.61-16.1 13.32 6.76 13.29-18.93-7.29-16.83-14.27-19.48-7.16-31.88-1-7.49-17.49 19.73 7.93-17 18.26-33.92 13.51-56.53 27.38-75.7 10.1-25.73 1.7-5 20-32.24 17-37.8 53.73-47.13 54.06-62.36 5.72-33.48 18.5-26.76 7.1-36.65-4.93-13.05-22-13.82-3.26-28.53 20.49-18 24.68-10.71 33.45-10.19 18.8-26.99 23.69-39.1-.09-14.96z"/><path id="highlight-7" data-name="highlight" class="cls-6" d="M742.5 1175.86c-27.54-13.23 18-89-13.41-91s-3.67-36.22-27.17-45.83-38.51-39.76-41.69-57.16c-.42-2.28 9.12-138 17-134.59 74.31 31.92 60.3-47.15 91.68-105.71 210.6-392.91-59.31 257.67-46.65 267.67s16.24-40.17 28.81 12c3 12.43 18.12 70.24 18.12 70.24s52.65 122.52-26.69 84.38z"/><g id="Bubbles-8" data-name="Bubbles"><circle class="cls-5" cx="693.92" cy="1188.48" r="4.32"/><circle class="cls-5" cx="693.13" cy="1141.35" r="4.32"/><circle class="cls-5" cx="698.38" cy="1160.92" r="4.32"/><circle class="cls-5" cx="720.04" cy="1168.51" r="2.83"/><circle class="cls-5" cx="694.34" cy="1054.95" r="2.83"/><circle class="cls-5" cx="683.71" cy="1109.44" r="2.83"/><circle class="cls-5" cx="680.34" cy="1130.62" r="2.83"/><circle class="cls-5" cx="712.87" cy="1195.85" r="5.05"/><circle class="cls-5" cx="698.18" cy="1092.37" r="5.05"/><circle class="cls-5" cx="682.73" cy="1067.89" r="5.05"/><circle class="cls-5" cx="702.25" cy="1114.97" r="5.05"/><circle class="cls-5" cx="709.91" cy="1223.95" r="9.2"/></g><g id="Bubbles-9" data-name="Bubbles"><circle class="cls-5" cx="745.92" cy="1217.29" r="2.95"/><circle class="cls-5" cx="746.46" cy="1249.45" r="2.95"/><circle class="cls-5" cx="742.88" cy="1236.09" r="2.95"/><circle class="cls-5" cx="728.1" cy="1230.92" r="1.93"/><circle class="cls-5" cx="751.21" cy="1273.36" r="1.93"/><circle class="cls-5" cx="740.92" cy="1261.91" r="1.93"/><circle class="cls-5" cx="755.19" cy="1256.78" r="1.93"/><circle class="cls-5" cx="732.99" cy="1212.26" r="3.45"/><circle class="cls-5" cx="731.04" cy="1273.56" r="3.45"/><circle class="cls-5" cx="741.58" cy="1290.26" r="3.45"/><circle class="cls-5" cx="728.26" cy="1258.13" r="3.45"/><circle class="cls-5" cx="735.01" cy="1193.08" r="6.28"/></g></g><g id="Right-Contents-slide1"><path class="cls-6" d="M860 1149.16a133.56 133.56 0 0 1-15.51 68.43c-18.5 34.77-43.74 79.61-58.94 101.16-5 6.57-12.07 8.65-18.94 8.72a36.59 36.59 0 0 1-28.71-13.94s-13.33-15.33-25.35-30.18c-16.43-26.24-32-54.52-37.68-65.17-13-24.5-18.15-52.27-18.75-70.5-.07-2.18-.12-4.49-.15-6.91v-10.3l8.16-154.9c.08-1.54.16-3 .24-4.47s.15-3 .23-4.66a12.58 12.58 0 0 1 1-4.51c1.94-3.08 21.83 2.71 25.46 4.54 9.37 4.74 22.67 22 35.33 32s18 14.67 67.8-5.33c44.39-17.82 57.9 11.38 60.32 17.94zm3.1 33.03a31 31 0 0 1-.91 4.94q.5-2.49.91-4.94z" id="Liquid-4" data-name="Liquid"/><path id="highlight-8" data-name="highlight" class="cls-6" d="M823.57 1044.13c-30.54-1-30.13-16.5-61.58-18.5s-32.45 12.23-56 2.61-38.51-39.75-41.69-57.15c-.42-2.28 0-7.25 1.24-9.17 1.94-3.08 21.83 2.71 25.46 4.54 9.37 4.74 22.67 22 35.33 32s18 14.67 67.8-5.33 60.74 19.21 60.74 19.21-.77 32.79-31.3 31.79z"/><g id="Bubbles-10" data-name="Bubbles"><circle class="cls-5" cx="802.71" cy="1072.12" r="4.32"/><circle class="cls-5" cx="735.36" cy="1095.52" r="4.32"/><circle class="cls-5" cx="769.38" cy="1205.56" r="4.32"/><circle class="cls-5" cx="819.5" cy="1117.43" r="2.83"/><circle class="cls-5" cx="756.33" cy="1069.67" r="2.83"/><circle class="cls-5" cx="721.47" cy="1179.64" r="2.83"/><circle class="cls-5" cx="798.39" cy="1179.64" r="2.83"/><circle class="cls-5" cx="778.75" cy="1124.4" r="5.05"/><circle class="cls-5" cx="716.41" cy="1124.4" r="5.05"/><circle class="cls-5" cx="706.31" cy="1076.43" r="5.05"/><circle class="cls-5" cx="751.28" cy="1155.08" r="5.05"/><circle class="cls-5" cx="729.35" cy="1227.47" r="9.2"/></g></g><g id="WineGlass-2" data-name="WineGlass"><g class="cls-7"><path class="cls-2" d="M625.21 1786.78a13 13 0 0 1 8.75-11.23l74.38-25.55a51.55 51.55 0 0 0 34.82-48.76v-284.46a152.79 152.79 0 0 0-17-70.13l-66.2-128.14a131.39 131.39 0 0 1-14.38-68.85l18.69-287.56c.56-5.69.3-9.19.77-11.34 0 1.6 1 3.26 3 4.93 8.6 7.21 47.21 9.73 83.93 9.73 3.63 0 7.23 0 10.79-.07 39-.52 83.59-4 89.29-10.29a2.72 2.72 0 0 0 .76-1.8c1.13 12.32 20 296.4 20 296.4a131.39 131.39 0 0 1-14.38 68.85l-66.2 128.14a152.79 152.79 0 0 0-17 70.13v284.49A51.55 51.55 0 0 0 810 1750l74.39 25.52a13 13 0 0 1 8.75 11.23 6.26 6.26 0 0 1-.08 1.29c-3 10-61.76 18-133.87 18-72.3 0-131.22-8-133.89-18a4.83 4.83 0 0 1-.09-1.26z"/></g><path class="cls-8" d="M668.05 855.68c-2.58-2.16-3.51-4.29-2.78-6.32 4.59-12.74 84.18-13.16 94.73-13.16h.32c3.18.06 78.14 1.7 91.51 14.93a2.64 2.64 0 0 1 .23 3.93c-5.7 6.33-50.28 9.77-89.29 10.29-3.56 0-7.17.07-10.79.07-36.72 0-75.33-2.52-83.93-9.74zm-.91-5.64c-.42 1.16.32 2.54 2.18 4.1 7.44 6.24 44.11 9.85 93.43 9.2 45.68-.6 83.44-4.75 87.84-9.63.3-.33.44-.58-.15-1.16-12.78-12.63-88.9-14.33-90.15-14.36-35.74-.04-90 3.11-93.15 11.81z"/><path class="cls-9" d="M753 1732.13l-1.54.23a44.73 44.73 0 0 0-13.48 4.69s13-9.07 14.36-36.52l-2.54-316.44-6-15.4s13.83 11.3 29.5 1.57l-5.57 12.28v324.31c.33 7.16-1.76 14.47 8.57 24.92 1.71 1.73 6.62 7.1 6.62 7.1a45.7 45.7 0 0 0-29.92-6.74zm96.49 41.37c3.29 1.25 16.67 4.71 18.66 8.47l-83.22-12.44a184.06 184.06 0 0 0-49-.73l-78.51 9.35c4.46-2.13 10.71-3.81 12.9-4.64l44.9-15.17a126.15 126.15 0 0 0 20.62-9.11l.3-.16 7.55 3.35a46.07 46.07 0 0 0 34.1 1.31l8.11-2.88a125.92 125.92 0 0 0 24.6 10.62z"/><path class="cls-10" d="M625.21 1786.78a4.83 4.83 0 0 0 .06 1.21c2.67 10 61.59 18 133.89 18 72.11 0 130.9-8 133.87-18a6.26 6.26 0 0 0 .08-1.29l-.15-1a12.32 12.32 0 0 0-2.33-5.57l-.64-.86c0 .16-5.16 19.26-131.28 19.26-70.64 0-128.65-8.08-131.27-18.11a12.51 12.51 0 0 0-1.57 3.12 16.18 16.18 0 0 0-.66 3.24z"/><path class="cls-11" d="M888.12 1781.73c-4.43-4-20.58-7.34-24.15-8.69L818.36 1759a148 148 0 0 1-34.36-15.73l-1.07-.66a45.33 45.33 0 0 0-29.92-6.8l-1.54.23a44.82 44.82 0 0 0-14.17 5.1l-6.31 3.49a147.58 147.58 0 0 1-24.13 10.65L654.35 1773c-4 1.52-24.12 4.91-25.68 9.43 9.08 9.1 64.05 16.15 130 16.15 98.95.03 123.48-11.71 129.45-16.85zm-19.72 1a5.48 5.48 0 0 1-.06 1c-2.12 7.91-67.8 11.59-119.39 11.59s-94.42-4.07-96.33-12a4.23 4.23 0 0 1 0-1c.3-4 14.24-7.56 17.75-8.9l44.9-15.17a126.15 126.15 0 0 0 20.62-9.11l5.4-3a38.31 38.31 0 0 1 12.11-4.36l1.31-.2a38.74 38.74 0 0 1 25.57 5.81l.91.57a126.52 126.52 0 0 0 29.35 13.4l39 12c3.46 1.48 18.55 5.35 18.85 9.4z"/><path class="cls-9" d="M738 1737.05a44.73 44.73 0 0 1 13.48-4.69l1.54-.23a45.7 45.7 0 0 1 29.92 6.73s-4.91-5.37-6.62-7.1c-10.33-10.45-8.24-17.76-8.57-24.92v-324.31l5.57-12.28a15.22 15.22 0 0 0-9.81 14l-3 181.14L762.6 1715a12.77 12.77 0 0 1-10 12.63c-4.39 1.01-9.6 3.55-14.6 9.42zm4-380.25l-20.48-38.73 6-12a219 219 0 0 0 15.73 20.49 15.68 15.68 0 0 0 3.75 3l7 36.86a19.93 19.93 0 0 1-12-9.62z"/><path class="cls-9" d="M670.69 1222.07c1.24-2.37 24.85 34.27 34.26 49.1a82.6 82.6 0 0 0 8.12 10.7c21.66 24.28 25.36 40.26 46.8 39.73 20.34-.5 34-4.49 83.26-101.6 19.4-34.7 5 4 5 4s-63.17 117.24-71 132.38c-3.42 6.64-8 10.8-15.51 10.8h-2.22a19.94 19.94 0 0 1-17.5-10.4z"/><path class="cls-3" d="M839.17 1167.86s1.67 48-45 118.51c0 0 14.17-23.15 22.5-56.85 9.07-36.65 12.37-83.31 12.74-61.94.29 17.23 9.76.28 9.76.28z"/><path class="cls-9" d="M738 1312.6c5.85 6 12 9.26 21.85 9s18-1.3 29.37-13.09c0 0 26.76-18-11.23 46.27l-.83 1.6c-3.42 6.64-8 10.8-15.51 10.8h-2.22a19.94 19.94 0 0 1-17.5-10.4l-1.62-3.07S699.67 1281 738 1312.6z"/><path class="cls-11" d="M845.17 1149.86c-1.06-44.73-10.31-242.18-12.53-289 3.92-.58 7.4-1.22 10.34-1.92l11.83 293.79c1.1 23.09-7 44.6-17.41 65.43l-13.83 23.77s22.66-47.17 21.6-92.07z"/><path class="cls-3" d="M824.57 861.89l11.74 291.5c-1.69 21.28-4.36.44-4.82-4.53-4.33-46.66-10.15-235.34-12.41-286.38 1.92-.19 3.72-.38 5.49-.59z"/><path class="cls-9" d="M649.67 1148.59c2.4-37 14.7-252.73 17.16-294.07.07.06.65.65.72.71a9.94 9.94 0 0 0 2 1.46c-.68 19.65-3.87 88.44-5.18 114.39-2.24 44.2-9.65 134-8.25 176.58.6 18.23 5.75 46 18.75 70.5 9.33 17.58 45.78 83.24 68.33 108.42 7.85 8.76 29.12 8.69 36.67-.33 13.78-16.48 43.57-69.1 64.62-108.67a133.56 133.56 0 0 0 15.51-68.42l-11.61-291.75a17.79 17.79 0 0 0 2.35-1l2.51 51.21 11.92 231.69s4 46-13.33 78c-14.13 26.09-59.27 109.32-74.66 139.2-3.42 6.64-8 10.8-15.51 10.8h-2.22a19.94 19.94 0 0 1-17.5-10.4l-72.79-137.6s-22.16-29.72-19.49-70.72z"/><path class="cls-11" d="M663.31 1106.82l14.64-247c2.34.57 4.91 1.15 7.77 1.62l-13.89 243.91c-.66 7.67 2.38 70.84 11.52 90.94l46 101.19-39.35-68.66c-11.68-19.55-20.68-39.64-25-62l-.64-3.32c-3.11-16.19-2.06-40.22-1.05-56.68z"/><path class="cls-6" d="M760.29 838.2c1.25 0 77.37 1.72 90.15 14.36.59.58.45.83.15 1.16-4.4 4.89-42.16 9-87.84 9.63-49.32.65-86-3-93.43-9.2-1.87-1.57-2.6-2.95-2.18-4.1 3.15-8.75 57.42-11.9 93.15-11.85z"/><path class="cls-6" d="M843 856.83c-2.81.69-6.29 1.35-10.35 2l-.4-13.57a80.75 80.75 0 0 1 10.75 3.1zm7.59-3.12a7.58 7.58 0 0 1-2.67 1.59v-4.61a13.5 13.5 0 0 1 2.47 1.87c.61.58.5.82.2 1.15zM686 859.47c-3-.51-5.68-1.07-8-1.67l.49-13.42c2.52-.61 5.39-1.18 8.53-1.69zm-15.58-12.36l-.68 7.34c-.14-.1-.29-.2-.41-.3-1.87-1.57-2.6-2.95-2.18-4.1s1.51-2.05 3.27-2.94z"/></g></g><g id="Droplets-slide3"><path id="droplet" class="cls-13" d="M283 462.15c-.33 5-4.39 8.37-9.06 7.44s-8.2-5.77-7.87-10.81 4.39-8.37 9.06-7.44 8.22 5.77 7.87 10.81z"/><path id="droplet-2" data-name="droplet" class="cls-13" d="M304.48 491.6c-.33 5-4.39 8.37-9.06 7.44s-8.2-5.77-7.87-10.81 4.39-8.37 9.06-7.44 8.2 5.77 7.87 10.81z"/><path id="droplet-3" data-name="droplet" class="cls-3" d="M271.54 506.75a3.8 3.8 0 0 1-4.53 3.72 5.21 5.21 0 0 1-3.94-5.4 3.8 3.8 0 0 1 4.53-3.72 5.21 5.21 0 0 1 3.94 5.4z"/><path id="droplet-4" data-name="droplet" class="cls-3" d="M253.67 456.32a3.8 3.8 0 0 1-4.53 3.72 5.21 5.21 0 0 1-3.94-5.4 3.8 3.8 0 0 1 4.53-3.72 5.21 5.21 0 0 1 3.94 5.4z"/><circle id="droplet-5" data-name="droplet" class="cls-2" cx="424.39" cy="341.6" r="10.01"/><circle id="droplet-6" data-name="droplet" class="cls-2" cx="417.61" cy="258.15" r="6.24"/><circle id="droplet-7" data-name="droplet" class="cls-2" cx="432.61" cy="303.36" r="8.77"/><circle id="droplet-8" data-name="droplet" class="cls-2" cx="464.29" cy="450.84" r="15.24"/><circle id="droplet-9" data-name="droplet" class="cls-2" cx="328.12" cy="334.59" r="4.48" transform="rotate(-18.32 328.194 334.637)"/><circle id="droplet-10" data-name="droplet" class="cls-2" cx="403.25" cy="195.29" r="13.41"/><circle id="droplet-11" data-name="droplet" class="cls-2" cx="529.53" cy="334.59" r="9"/><circle id="droplet-12" data-name="droplet" class="cls-2" cx="525.03" cy="281.09" r="4.5"/><circle id="droplet-13" data-name="droplet" class="cls-2" cx="594.19" cy="330.1" r="11.5"/><circle id="droplet-14" data-name="droplet" class="cls-2" cx="501.53" cy="493.06" r="2.75"/><circle id="droplet-15" data-name="droplet" class="cls-2" cx="451.8" cy="418.99" r="2.75"/><circle id="droplet-16" data-name="droplet" class="cls-2" cx="392.6" cy="233.03" r="2.75"/><circle id="droplet-17" data-name="droplet" class="cls-2" cx="701.02" cy="461.65" r="6.24"/><circle id="droplet-18" data-name="droplet" class="cls-2" cx="676.01" cy="436.53" r="2.75"/><circle id="droplet-19" data-name="droplet" class="cls-2" cx="408.38" cy="792.57" r="6.24"/><circle id="droplet-20" data-name="droplet" class="cls-2" cx="441.07" cy="810.46" r="2.75"/><circle id="droplet-21" data-name="droplet" class="cls-2" cx="320.89" cy="299.46" r="2.75"/><circle id="droplet-22" data-name="droplet" class="cls-2" cx="697.88" cy="804.75" r="7.62"/><circle id="droplet-23" data-name="droplet" class="cls-2" cx="677.89" cy="860.26" r="4.48"/><circle id="droplet-24" data-name="droplet" class="cls-2" cx="730.68" cy="821.97" r="7.52"/><circle id="droplet-25" data-name="droplet" class="cls-2" cx="700.63" cy="839.61" r="2.75"/><circle id="droplet-26" data-name="droplet" class="cls-2" cx="672.86" cy="839.61" r="2.75"/><circle id="droplet-27" data-name="droplet" class="cls-2" cx="370.84" cy="309.84" r="6.48"/><circle id="droplet-28" data-name="droplet" class="cls-2" cx="389.85" cy="757.75" r="10.01"/><circle id="droplet-29" data-name="droplet" class="cls-2" cx="639.54" cy="493.06" r="6.24"/><circle id="droplet-30" data-name="droplet" class="cls-2" cx="522.8" cy="606.03" r="8.77"/><circle id="droplet-31" data-name="droplet" class="cls-2" cx="401.9" cy="565.34" r="6.48"/><circle id="droplet-32" data-name="droplet" class="cls-2" cx="354.19" cy="272.22" r="7.62"/><circle id="droplet-33" data-name="droplet" class="cls-13" cx="547.35" cy="401.61" r="9.47" transform="rotate(-25 547.358 401.6)"/><circle id="droplet-34" data-name="droplet" class="cls-13" cx="581.63" cy="414.08" r="9.47" transform="rotate(-25 581.624 414.07)"/><circle id="droplet-35" data-name="droplet" class="cls-3" cx="563.35" cy="447.13" r="4.73" transform="rotate(-25 563.342 447.12)"/><circle id="droplet-36" data-name="droplet" class="cls-3" cx="521.89" cy="413.47" r="4.73" transform="rotate(-25 521.893 413.464)"/></g><g id="Droplets-slide2"><circle class="cls-6" cx="695.89" cy="816.16" r="3.06"/><circle class="cls-3" cx="686.1" cy="851.41" r="3.23"/><circle class="cls-14" cx="720.45" cy="826.44" r="3.23"/><circle class="cls-14" cx="693.33" cy="769.34" r="2.45"/><circle class="cls-14" cx="706.13" cy="751.72" r="4.57"/><circle class="cls-14" cx="639.46" cy="816.16" r="4.57"/><circle class="cls-6" cx="718.78" cy="777.63" r="2.17"/><circle class="cls-3" cx="726.29" cy="796.24" r="3.23"/><circle class="cls-6" cx="535.52" cy="851.41" r="5.61" transform="rotate(-45 535.521 851.4)"/><circle class="cls-6" cx="610.87" cy="840.18" r="5.61" transform="rotate(-45 610.865 840.182)"/><circle class="cls-3" cx="588.81" cy="882.93" r="5.92" transform="rotate(-45 588.814 882.935)"/><circle class="cls-3" cx="625.33" cy="905.19" r="5.92" transform="rotate(-45 625.332 905.19)"/><circle class="cls-14" cx="600.97" cy="806.02" r="5.92" transform="rotate(-45 600.974 806.019)"/><circle class="cls-14" cx="508.31" cy="767.14" r="4.49" transform="rotate(-45 508.31 767.141)"/><circle class="cls-14" cx="535.52" cy="796.24" r="8.38" transform="rotate(-45 535.532 796.236)"/><circle class="cls-14" cx="665.72" cy="744.9" r="8.38" transform="rotate(-45 665.718 744.9)"/><circle class="cls-6" cx="535.52" cy="744.9" r="3.98" transform="rotate(-45 535.527 744.898)"/><circle class="cls-3" cx="569.39" cy="759.29" r="5.92" transform="rotate(-45 569.389 759.291)"/><circle class="cls-3" cx="639.46" cy="864.73" r="5.92" transform="rotate(-45 639.461 864.726)"/><circle class="cls-3" cx="625.33" cy="775.46" r="5.92" transform="rotate(-45 625.327 775.461)"/></g></g></g></svg>
