<svg xmlns="http://www.w3.org/2000/svg" viewBox="0 0 915.79 955.39" class="heartfetti">
    <title>
        heartfetti
    </title>
    <g id="Layer_2" data-name="Layer 2">
        <g id="Layer_2-2" data-name="Layer 2">
            <g id="heartfetti">
                <g id="squares" class="cls-1">
                    <g id="row-1" class="rect-row">
                        <path id="rect" class="cls-2" d="M118.6 69.62h58.08v168.75H118.6z"/>
                        <path id="rect-2" data-name="rect" class="cls-2" d="M189.7 69.62h58.08v168.75H189.7z"/>
                        <path id="rect-3" data-name="rect" class="cls-2" d="M260.8 69.62h58.08v168.75H260.8z"/>
                        <path id="rect-4" data-name="rect" class="cls-2" d="M331.9 69.62h58.08v168.75H331.9z"/>
                        <path id="rect-5" data-name="rect" class="cls-2" d="M403.01 69.62h58.08v168.75h-58.08z"/>
                        <path id="rect-6" data-name="rect" class="cls-2" d="M474.11 69.62h58.08v168.75h-58.08z"/>
                        <path id="rect-7" data-name="rect" class="cls-2" d="M545.21 69.62h58.08v168.75h-58.08z"/>
                        <path id="rect-8" data-name="rect" class="cls-2" d="M616.31 69.62h58.08v168.75h-58.08z"/>
                        <path id="rect-9" data-name="rect" class="cls-2" d="M687.41 69.62h58.08v168.75h-58.08z"/>
                        <path id="rect-10" data-name="rect" class="cls-2" d="M758.51 69.62h58.08v168.75h-58.08z"/>
                    </g>
                    <g id="row-2" class="rect-row">
                        <path id="rect-11" data-name="rect" class="cls-2" d="M118.6 248.9h58.08v168.75H118.6z"/>
                        <path id="rect-12" data-name="rect" class="cls-2" d="M189.7 248.9h58.08v168.75H189.7z"/>
                        <path id="rect-13" data-name="rect" class="cls-2" d="M260.8 248.9h58.08v168.75H260.8z"/>
                        <path id="rect-14" data-name="rect" class="cls-2" d="M331.9 248.9h58.08v168.75H331.9z"/>
                        <path id="rect-15" data-name="rect" class="cls-2" d="M403.01 248.9h58.08v168.75h-58.08z"/>
                        <path id="rect-16" data-name="rect" class="cls-2" d="M474.11 248.9h58.08v168.75h-58.08z"/>
                        <path id="rect-17" data-name="rect" class="cls-2" d="M545.21 248.9h58.08v168.75h-58.08z"/>
                        <path id="rect-18" data-name="rect" class="cls-2" d="M616.31 248.9h58.08v168.75h-58.08z"/>
                        <path id="rect-19" data-name="rect" class="cls-2" d="M687.41 248.9h58.08v168.75h-58.08z"/>
                        <path id="rect-20" data-name="rect" class="cls-2" d="M758.51 248.9h58.08v168.75h-58.08z"/>
                    </g>
                    <g id="row-3" class="rect-row">
                        <path id="rect-21" data-name="rect" class="cls-2" d="M118.6 428.17h58.08v168.75H118.6z"/>
                        <path id="rect-22" data-name="rect" class="cls-2" d="M189.7 428.17h58.08v168.75H189.7z"/>
                        <path id="rect-23" data-name="rect" class="cls-2" d="M260.8 428.17h58.08v168.75H260.8z"/>
                        <path id="rect-24" data-name="rect" class="cls-2" d="M331.9 428.17h58.08v168.75H331.9z"/>
                        <path id="rect-25" data-name="rect" class="cls-2" d="M403.01 428.17h58.08v168.75h-58.08z"/>
                        <path id="rect-26" data-name="rect" class="cls-2" d="M474.11 428.17h58.08v168.75h-58.08z"/>
                        <path id="rect-27" data-name="rect" class="cls-2" d="M545.21 428.17h58.08v168.75h-58.08z"/>
                        <path id="rect-28" data-name="rect" class="cls-2" d="M616.31 428.17h58.08v168.75h-58.08z"/>
                        <path id="rect-29" data-name="rect" class="cls-2" d="M687.41 428.17h58.08v168.75h-58.08z"/>
                        <path id="rect-30" data-name="rect" class="cls-2" d="M758.51 428.17h58.08v168.75h-58.08z"/>
                    </g>
                    <g id="row-4" class="rect-row">
                        <path id="rect-31" data-name="rect" class="cls-2" d="M118.6 607.45h58.08V776.2H118.6z"/>
                        <path id="rect-32" data-name="rect" class="cls-2" d="M189.7 607.45h58.08V776.2H189.7z"/>
                        <path id="rect-33" data-name="rect" class="cls-2" d="M260.8 607.45h58.08V776.2H260.8z"/>
                        <path id="rect-34" data-name="rect" class="cls-2" d="M331.9 607.45h58.08V776.2H331.9z"/>
                        <path id="rect-35" data-name="rect" class="cls-2" d="M403.01 607.45h58.08V776.2h-58.08z"/>
                        <path id="rect-36" data-name="rect" class="cls-2" d="M474.11 607.45h58.08V776.2h-58.08z"/>
                        <path id="rect-37" data-name="rect" class="cls-2" d="M545.21 607.45h58.08V776.2h-58.08z"/>
                        <path id="rect-38" data-name="rect" class="cls-2" d="M616.31 607.45h58.08V776.2h-58.08z"/>
                        <path id="rect-39" data-name="rect" class="cls-2" d="M687.41 607.45h58.08V776.2h-58.08z"/>
                        <path id="rect-40" data-name="rect" class="cls-2" d="M758.51 607.45h58.08V776.2h-58.08z"/>
                    </g>
                    <g id="row-5" class="rect-row">
                        <path id="rect-41" data-name="rect" class="cls-2" d="M118.6 786.64h58.08v168.75H118.6z"/>
                        <path id="rect-42" data-name="rect" class="cls-2" d="M189.7 786.64h58.08v168.75H189.7z"/>
                        <path id="rect-43" data-name="rect" class="cls-2" d="M260.8 786.64h58.08v168.75H260.8z"/>
                        <path id="rect-44" data-name="rect" class="cls-2" d="M331.9 786.64h58.08v168.75H331.9z"/>
                        <path id="rect-45" data-name="rect" class="cls-2" d="M403.01 786.64h58.08v168.75h-58.08z"/>
                        <path id="rect-46" data-name="rect" class="cls-2" d="M474.11 786.64h58.08v168.75h-58.08z"/>
                        <path id="rect-47" data-name="rect" class="cls-2" d="M545.21 786.64h58.08v168.75h-58.08z"/>
                        <path id="rect-48" data-name="rect" class="cls-2" d="M616.31 786.64h58.08v168.75h-58.08z"/>
                        <path id="rect-49" data-name="rect" class="cls-2" d="M687.41 786.64h58.08v168.75h-58.08z"/>
                        <path id="rect-50" data-name="rect" class="cls-2" d="M758.51 786.64h58.08v168.75h-58.08z"/>
                    </g>
                </g>
                <g id="dots">
                    <path id="one" class="dots" d="M452.35 86.2a5.29 5.29 0 0 1 .3 7.63 5.72 5.72 0 0 1-7.88-.29 5.29 5.29 0 0 1-.3-7.63 5.72 5.72 0 0 1 7.88.29m10.43-10.1c-8.49-8.21-21.73-8.71-29.58-1.11s-7.34 20.43 1.14 28.64 21.73 8.71 29.58 1.11 7.34-20.43-1.14-28.64z"/>
                    <path class="dots" d="M406.1 131a5.29 5.29 0 0 1 .3 7.63 5.72 5.72 0 0 1-7.88-.29 5.29 5.29 0 0 1-.3-7.63 5.72 5.72 0 0 1 7.88.29m10.43-10.1c-8.49-8.21-21.73-8.71-29.58-1.11s-7.34 20.43 1.14 28.64 21.73 8.71 29.58 1.11 7.34-20.43-1.14-28.64zM498.32 130.7a5.29 5.29 0 0 1 .3 7.63 5.72 5.72 0 0 1-7.88-.29 5.29 5.29 0 0 1-.3-7.63 5.72 5.72 0 0 1 7.88.29m10.43-10.1c-8.49-8.21-21.73-8.71-29.58-1.11s-7.34 20.43 1.14 28.64 21.73 8.71 29.58 1.11 7.34-20.43-1.14-28.64z"/>
                    <path class="dots" d="M359.85 175.75a5.29 5.29 0 0 1 .3 7.63 5.72 5.72 0 0 1-7.88-.29 5.29 5.29 0 0 1-.3-7.63 5.72 5.72 0 0 1 7.88.29m10.43-10.1c-8.49-8.21-21.73-8.71-29.58-1.11s-7.34 20.43 1.14 28.64 21.73 8.71 29.58 1.11 7.34-20.43-1.14-28.64zM452.06 175.47a5.29 5.29 0 0 1 .3 7.63 5.72 5.72 0 0 1-7.88-.29 5.29 5.29 0 0 1-.3-7.63 5.72 5.72 0 0 1 7.88.29m10.43-10.1c-8.49-8.21-21.73-8.71-29.58-1.11s-7.34 20.43 1.14 28.64 21.73 8.71 29.58 1.11 7.34-20.43-1.14-28.64zM544.28 175.2a5.29 5.29 0 0 1 .3 7.63 5.72 5.72 0 0 1-7.88-.29 5.29 5.29 0 0 1-.3-7.63 5.72 5.72 0 0 1 7.88.29m10.43-10.1c-8.49-8.21-21.73-8.71-29.58-1.11s-7.34 20.43 1.14 28.64 21.73 8.71 29.58 1.11 7.34-20.43-1.14-28.64z"/>
                    <path class="dots" d="M313.6 220.53a5.29 5.29 0 0 1 .3 7.63 5.72 5.72 0 0 1-7.88-.29 5.29 5.29 0 0 1-.3-7.63 5.72 5.72 0 0 1 7.88.29m10.4-10.1c-8.49-8.21-21.73-8.71-29.58-1.11s-7.34 20.43 1.14 28.64 21.73 8.71 29.58 1.11 7.34-20.43-1.14-28.64zM405.81 220.25a5.29 5.29 0 0 1 .3 7.63 5.72 5.72 0 0 1-7.88-.29 5.29 5.29 0 0 1-.3-7.63 5.72 5.72 0 0 1 7.88.29m10.43-10.1c-8.49-8.21-21.73-8.71-29.58-1.11s-7.34 20.43 1.14 28.64 21.73 8.71 29.58 1.11 7.34-20.43-1.14-28.64zM498 220a5.29 5.29 0 0 1 .3 7.63 5.72 5.72 0 0 1-7.88-.29 5.29 5.29 0 0 1-.3-7.63 5.72 5.72 0 0 1 7.88.29m10.43-10.1c-8.49-8.21-21.73-8.71-29.58-1.11s-7.34 20.43 1.14 28.64 21.73 8.71 29.58 1.11 7.34-20.43-1.14-28.64zM590.24 219.7a5.29 5.29 0 0 1 .3 7.63 5.72 5.72 0 0 1-7.88-.29 5.29 5.29 0 0 1-.3-7.63 5.72 5.72 0 0 1 7.88.29m10.43-10.1c-8.49-8.21-21.73-8.71-29.58-1.11s-7.34 20.43 1.14 28.64 21.73 8.71 29.58 1.11 7.34-20.43-1.14-28.64z"/>
                    <path class="dots" d="M267.35 265.3a5.29 5.29 0 0 1 .3 7.63 5.72 5.72 0 0 1-7.88-.29 5.29 5.29 0 0 1-.3-7.63 5.72 5.72 0 0 1 7.88.29m10.43-10.1c-8.49-8.21-21.73-8.71-29.58-1.11s-7.34 20.43 1.14 28.64 21.73 8.71 29.58 1.11 7.34-20.43-1.14-28.64zM359.56 265a5.29 5.29 0 0 1 .3 7.63 5.72 5.72 0 0 1-7.88-.29 5.29 5.29 0 0 1-.3-7.63 5.72 5.72 0 0 1 7.88.29M370 254.92c-8.49-8.21-21.73-8.71-29.58-1.11s-7.34 20.43 1.14 28.64 21.73 8.71 29.58 1.11 7.34-20.43-1.14-28.64zM451.78 264.75a5.29 5.29 0 0 1 .3 7.63 5.72 5.72 0 0 1-7.88-.29 5.29 5.29 0 0 1-.3-7.63 5.72 5.72 0 0 1 7.88.29m10.43-10.1c-8.49-8.21-21.73-8.71-29.58-1.11s-7.34 20.43 1.14 28.64 21.73 8.71 29.58 1.11 7.34-20.43-1.14-28.64zM544 264.47a5.29 5.29 0 0 1 .3 7.63 5.72 5.72 0 0 1-7.88-.29 5.29 5.29 0 0 1-.3-7.63 5.72 5.72 0 0 1 7.88.29m10.43-10.1c-8.49-8.21-21.73-8.71-29.58-1.11s-7.35 20.43 1.15 28.64 21.73 8.71 29.58 1.11 7.34-20.43-1.14-28.64zM636.21 264.19a5.29 5.29 0 0 1 .3 7.63 5.72 5.72 0 0 1-7.88-.29 5.29 5.29 0 0 1-.3-7.63 5.72 5.72 0 0 1 7.88.29m10.43-10.1c-8.49-8.21-21.73-8.71-29.58-1.11s-7.34 20.43 1.14 28.64 21.73 8.71 29.58 1.11 7.34-20.43-1.14-28.64z"/>
                      <path class="dots" d="M221.1 310.07a5.29 5.29 0 0 1 .3 7.63 5.72 5.72 0 0 1-7.88-.29 5.29 5.29 0 0 1-.3-7.63 5.72 5.72 0 0 1 7.88.29M231.53 300c-8.49-8.21-21.73-8.71-29.58-1.11s-7.34 20.43 1.14 28.64 21.73 8.71 29.58 1.11 7.33-20.45-1.14-28.64zM313.31 309.8a5.29 5.29 0 0 1 .3 7.63 5.72 5.72 0 0 1-7.88-.29 5.29 5.29 0 0 1-.3-7.63 5.72 5.72 0 0 1 7.88.29m10.43-10.1c-8.49-8.21-21.73-8.71-29.58-1.11s-7.34 20.43 1.14 28.64 21.73 8.71 29.58 1.11 7.34-20.43-1.14-28.64zM405.53 309.52a5.29 5.29 0 0 1 .3 7.63 5.72 5.72 0 0 1-7.88-.29 5.29 5.29 0 0 1-.3-7.63 5.72 5.72 0 0 1 7.88.29m10.47-10.1c-8.49-8.21-21.73-8.71-29.58-1.11s-7.42 20.43 1.1 28.69 21.73 8.71 29.58 1.11 7.34-20.43-1.14-28.64zM497.74 309.24a5.29 5.29 0 0 1 .3 7.63 5.72 5.72 0 0 1-7.88-.29 5.29 5.29 0 0 1-.3-7.63 5.72 5.72 0 0 1 7.88.29m10.43-10.1c-8.49-8.21-21.73-8.71-29.58-1.11s-7.34 20.43 1.14 28.64 21.73 8.71 29.58 1.11 7.34-20.43-1.14-28.64zM590 309a5.29 5.29 0 0 1 .3 7.63 5.72 5.72 0 0 1-7.88-.29 5.29 5.29 0 0 1-.3-7.63 5.72 5.72 0 0 1 7.88.29m10.43-10.1c-8.49-8.21-21.73-8.71-29.58-1.11s-7.34 20.43 1.14 28.64 21.73 8.71 29.58 1.11 7.34-20.43-1.14-28.64zM682.17 308.69a5.29 5.29 0 0 1 .3 7.63 5.72 5.72 0 0 1-7.88-.29 5.29 5.29 0 0 1-.3-7.63 5.72 5.72 0 0 1 7.88.29m10.43-10.1c-8.49-8.21-21.73-8.71-29.58-1.11s-7.34 20.43 1.14 28.64 21.73 8.71 29.58 1.11 7.34-20.43-1.14-28.64z"/>
                      <path class="dots" d="M174.85 354.85a5.29 5.29 0 0 1 .3 7.63 5.72 5.72 0 0 1-7.88-.29 5.29 5.29 0 0 1-.3-7.63 5.72 5.72 0 0 1 7.88.29m10.43-10.1c-8.49-8.21-21.73-8.71-29.58-1.11s-7.34 20.43 1.14 28.64 21.73 8.71 29.58 1.11 7.34-20.43-1.14-28.64zM267.06 354.57a5.29 5.29 0 0 1 .3 7.63 5.72 5.72 0 0 1-7.88-.29 5.29 5.29 0 0 1-.3-7.63 5.72 5.72 0 0 1 7.88.29m10.43-10.1c-8.49-8.21-21.73-8.71-29.58-1.11s-7.34 20.43 1.14 28.64 21.73 8.71 29.58 1.11 7.34-20.43-1.14-28.64zM359.28 354.3a5.29 5.29 0 0 1 .3 7.63 5.72 5.72 0 0 1-7.88-.29 5.29 5.29 0 0 1-.3-7.63 5.72 5.72 0 0 1 7.88.29m10.43-10.1c-8.49-8.21-21.73-8.71-29.58-1.11s-7.34 20.43 1.14 28.64 21.73 8.71 29.58 1.11 7.34-20.43-1.14-28.64zM451.49 354a5.29 5.29 0 0 1 .3 7.63 5.72 5.72 0 0 1-7.88-.29 5.29 5.29 0 0 1-.3-7.63 5.72 5.72 0 0 1 7.88.29m10.43-10.1c-8.49-8.21-21.73-8.71-29.58-1.11s-7.34 20.43 1.14 28.64 21.73 8.71 29.58 1.11 7.34-20.43-1.14-28.64zM543.71 353.74a5.29 5.29 0 0 1 .3 7.63 5.72 5.72 0 0 1-7.88-.29 5.29 5.29 0 0 1-.3-7.63 5.72 5.72 0 0 1 7.88.29m10.43-10.1c-8.49-8.21-21.73-8.71-29.58-1.11s-7.34 20.43 1.14 28.64 21.73 8.71 29.58 1.11 7.34-20.43-1.14-28.64zM635.92 353.47a5.29 5.29 0 0 1 .3 7.63 5.72 5.72 0 0 1-7.88-.29 5.29 5.29 0 0 1-.3-7.63 5.72 5.72 0 0 1 7.88.29m10.43-10.1c-8.49-8.21-21.73-8.71-29.58-1.11s-7.34 20.43 1.14 28.64 21.73 8.71 29.58 1.11 7.34-20.43-1.14-28.64zM728.14 353.19a5.29 5.29 0 0 1 .3 7.63 5.72 5.72 0 0 1-7.88-.29 5.29 5.29 0 0 1-.3-7.63 5.72 5.72 0 0 1 7.88.29m10.43-10.1c-8.49-8.21-21.73-8.71-29.58-1.11s-7.34 20.43 1.14 28.64 21.73 8.71 29.58 1.11 7.34-20.43-1.14-28.64z"/>
                      <path class="dots" d="M128.6 399.62a5.29 5.29 0 0 1 .3 7.63 5.72 5.72 0 0 1-7.9-.25 5.29 5.29 0 0 1-.3-7.63 5.72 5.72 0 0 1 7.88.29M139 389.52c-8.49-8.21-21.73-8.71-29.58-1.11s-7.34 20.43 1.14 28.64 21.73 8.71 29.58 1.11 7.34-20.43-1.14-28.64zM220.81 399.35a5.29 5.29 0 0 1 .3 7.63 5.72 5.72 0 0 1-7.88-.29 5.29 5.29 0 0 1-.3-7.63 5.72 5.72 0 0 1 7.88.29m10.43-10.1c-8.49-8.21-21.73-8.71-29.58-1.11s-7.34 20.43 1.14 28.64 21.73 8.71 29.58 1.11 7.34-20.43-1.14-28.64zM313 399.07a5.29 5.29 0 0 1 .3 7.63 5.72 5.72 0 0 1-7.88-.29 5.29 5.29 0 0 1-.3-7.63 5.72 5.72 0 0 1 7.88.29M323.46 389c-8.49-8.21-21.73-8.71-29.58-1.11s-7.34 20.43 1.14 28.64 21.73 8.71 29.58 1.11 7.34-20.43-1.14-28.64zM405.24 398.79a5.29 5.29 0 0 1 .3 7.63 5.72 5.72 0 0 1-7.88-.29 5.29 5.29 0 0 1-.3-7.63 5.72 5.72 0 0 1 7.88.29m10.43-10.1c-8.49-8.21-21.73-8.71-29.58-1.11s-7.34 20.43 1.14 28.64 21.73 8.71 29.58 1.11 7.34-20.43-1.14-28.64zM497.46 398.52a5.29 5.29 0 0 1 .3 7.63 5.72 5.72 0 0 1-7.88-.29 5.29 5.29 0 0 1-.3-7.63 5.72 5.72 0 0 1 7.88.29m10.43-10.1c-8.49-8.21-21.73-8.71-29.58-1.11s-7.34 20.43 1.14 28.64 21.73 8.71 29.58 1.11 7.34-20.43-1.14-28.64zM589.67 398.24a5.29 5.29 0 0 1 .3 7.63 5.72 5.72 0 0 1-7.88-.29 5.29 5.29 0 0 1-.3-7.63 5.72 5.72 0 0 1 7.88.29m10.43-10.1c-8.49-8.21-21.73-8.71-29.58-1.11s-7.34 20.43 1.14 28.64 21.73 8.71 29.58 1.11 7.34-20.43-1.14-28.64zM681.89 398a5.29 5.29 0 0 1 .3 7.63 5.72 5.72 0 0 1-7.88-.29 5.29 5.29 0 0 1-.3-7.63 5.72 5.72 0 0 1 7.88.29m10.43-10.1c-8.49-8.21-21.73-8.71-29.58-1.11s-7.34 20.43 1.14 28.64 21.73 8.71 29.58 1.11 7.34-20.43-1.14-28.64zM774.1 397.69a5.29 5.29 0 0 1 .3 7.63 5.72 5.72 0 0 1-7.88-.29 5.29 5.29 0 0 1-.3-7.63 5.72 5.72 0 0 1 7.88.29m10.43-10.1c-8.49-8.21-21.73-8.71-29.58-1.11s-7.34 20.43 1.14 28.64 21.73 8.71 29.58 1.11 7.34-20.43-1.14-28.64z"/>
                      <path class="dots" d="M82.34 444.4a5.29 5.29 0 0 1 .3 7.63 5.72 5.72 0 0 1-7.88-.29 5.29 5.29 0 0 1-.3-7.63 5.72 5.72 0 0 1 7.88.29m10.43-10.1c-8.49-8.21-21.73-8.71-29.58-1.11s-7.34 20.43 1.14 28.64 21.73 8.71 29.58 1.11 7.34-20.43-1.14-28.64zM174.56 444.12a5.29 5.29 0 0 1 .3 7.63 5.72 5.72 0 0 1-7.88-.29 5.29 5.29 0 0 1-.3-7.63 5.72 5.72 0 0 1 7.88.29M185 434c-8.49-8.21-21.73-8.71-29.58-1.11s-7.34 20.43 1.14 28.64 21.73 8.71 29.58 1.11 7.34-20.4-1.14-28.64zM266.78 443.85a5.29 5.29 0 0 1 .3 7.63 5.72 5.72 0 0 1-7.88-.29 5.29 5.29 0 0 1-.3-7.63 5.72 5.72 0 0 1 7.88.29m10.43-10.1c-8.49-8.21-21.73-8.71-29.58-1.11s-7.34 20.43 1.14 28.64 21.73 8.71 29.58 1.11 7.34-20.43-1.14-28.64zM359 443.57a5.29 5.29 0 0 1 .3 7.63 5.72 5.72 0 0 1-7.88-.29 5.29 5.29 0 0 1-.3-7.63 5.72 5.72 0 0 1 7.88.29m10.43-10.1c-8.49-8.21-21.73-8.71-29.58-1.11S332.5 452.79 341 461s21.73 8.71 29.58 1.11 7.34-20.43-1.14-28.64zM451.21 443.29a5.29 5.29 0 0 1 .3 7.63 5.72 5.72 0 0 1-7.88-.29 5.29 5.29 0 0 1-.3-7.63 5.72 5.72 0 0 1 7.88.29m10.43-10.1c-8.49-8.21-21.73-8.71-29.58-1.11s-7.34 20.43 1.14 28.64 21.73 8.71 29.58 1.11 7.34-20.43-1.14-28.64zM543.42 443a5.29 5.29 0 0 1 .3 7.63 5.72 5.72 0 0 1-7.88-.29 5.29 5.29 0 0 1-.3-7.63 5.72 5.72 0 0 1 7.88.29m10.43-10.1c-8.49-8.21-21.73-8.71-29.58-1.11s-7.34 20.43 1.14 28.64 21.73 8.71 29.58 1.11 7.34-20.43-1.14-28.64zM635.64 442.74a5.29 5.29 0 0 1 .3 7.63 5.72 5.72 0 0 1-7.88-.29 5.29 5.29 0 0 1-.3-7.63 5.72 5.72 0 0 1 7.88.29m10.43-10.1c-8.49-8.21-21.73-8.71-29.58-1.11s-7.34 20.43 1.14 28.64 21.73 8.71 29.58 1.11 7.34-20.43-1.14-28.64zM727.85 442.46a5.29 5.29 0 0 1 .3 7.63 5.72 5.72 0 0 1-7.88-.29 5.29 5.29 0 0 1-.3-7.63 5.72 5.72 0 0 1 7.88.29m10.43-10.1c-8.49-8.21-21.73-8.71-29.58-1.11s-7.34 20.43 1.14 28.64 21.73 8.71 29.58 1.11 7.34-20.43-1.14-28.64zM820.07 442.18a5.29 5.29 0 0 1 .3 7.63 5.72 5.72 0 0 1-7.88-.29 5.29 5.29 0 0 1-.3-7.63 5.72 5.72 0 0 1 7.88.29m10.43-10.1c-8.49-8.21-21.73-8.71-29.58-1.11s-7.34 20.43 1.14 28.64 21.73 8.71 29.58 1.11 7.34-20.43-1.14-28.64z"/>
                      <path class="dots" d="M128.31 488.9a5.29 5.29 0 0 1 .3 7.63 5.72 5.72 0 0 1-7.88-.29 5.29 5.29 0 0 1-.3-7.63 5.72 5.72 0 0 1 7.88.29m10.43-10.1c-8.49-8.21-21.73-8.71-29.58-1.11s-7.34 20.43 1.14 28.64 21.7 8.67 29.59 1.11 7.34-20.43-1.14-28.64zM220.53 488.62a5.29 5.29 0 0 1 .3 7.63A5.72 5.72 0 0 1 213 496a5.29 5.29 0 0 1-.3-7.63 5.72 5.72 0 0 1 7.88.29M231 478.52c-8.49-8.21-21.73-8.71-29.58-1.11s-7.34 20.43 1.14 28.64 21.73 8.71 29.58 1.11 7.34-20.43-1.14-28.64zM312.74 488.34A5.29 5.29 0 0 1 313 496a5.72 5.72 0 0 1-7.88-.29 5.29 5.29 0 0 1-.3-7.63 5.72 5.72 0 0 1 7.88.29m10.43-10.1c-8.49-8.21-21.73-8.71-29.58-1.11s-7.34 20.43 1.14 28.64 21.73 8.71 29.58 1.11 7.34-20.43-1.14-28.64zM405 488.07a5.29 5.29 0 0 1 .3 7.63 5.72 5.72 0 0 1-7.88-.29 5.29 5.29 0 0 1-.3-7.63 5.72 5.72 0 0 1 7.88.29M415.39 478c-8.49-8.21-21.73-8.71-29.58-1.11s-7.34 20.43 1.14 28.64 21.73 8.71 29.58 1.11 7.34-20.43-1.14-28.64zM497.17 487.79a5.29 5.29 0 0 1 .3 7.63 5.72 5.72 0 0 1-7.88-.29 5.29 5.29 0 0 1-.3-7.63 5.72 5.72 0 0 1 7.88.29m10.43-10.1c-8.49-8.21-21.73-8.71-29.58-1.11s-7.34 20.43 1.14 28.64 21.73 8.71 29.58 1.11 7.34-20.43-1.14-28.64zM589.39 487.51a5.29 5.29 0 0 1 .3 7.63 5.72 5.72 0 0 1-7.88-.29 5.29 5.29 0 0 1-.3-7.63 5.72 5.72 0 0 1 7.88.29m10.43-10.1c-8.49-8.21-21.73-8.71-29.58-1.11s-7.34 20.43 1.14 28.64 21.73 8.71 29.58 1.11 7.34-20.43-1.14-28.64zM681.6 487.24a5.29 5.29 0 0 1 .3 7.63 5.72 5.72 0 0 1-7.88-.29 5.29 5.29 0 0 1-.3-7.63 5.72 5.72 0 0 1 7.88.29m10.4-10.11c-8.49-8.21-21.73-8.71-29.58-1.11s-7.34 20.43 1.14 28.64 21.73 8.71 29.58 1.11 7.34-20.43-1.14-28.64zM773.82 487a5.29 5.29 0 0 1 .3 7.63 5.72 5.72 0 0 1-7.88-.29 5.29 5.29 0 0 1-.3-7.63 5.72 5.72 0 0 1 7.88.29m10.43-10.1c-8.49-8.21-21.73-8.71-29.58-1.11s-7.34 20.43 1.14 28.64 21.73 8.71 29.58 1.11 7.34-20.43-1.14-28.64z"/>
                      <path class="dots" d="M174.27 533.39a5.29 5.29 0 0 1 .3 7.63 5.72 5.72 0 0 1-7.88-.29 5.29 5.29 0 0 1-.3-7.63 5.72 5.72 0 0 1 7.88.29m10.43-10.1c-8.49-8.21-21.73-8.71-29.58-1.11s-7.34 20.43 1.14 28.64 21.73 8.71 29.58 1.11 7.34-20.43-1.14-28.64zM266.49 533.12a5.29 5.29 0 0 1 .3 7.63 5.72 5.72 0 0 1-7.88-.29 5.29 5.29 0 0 1-.3-7.63 5.72 5.72 0 0 1 7.88.29M276.92 523c-8.49-8.21-21.73-8.71-29.58-1.11s-7.34 20.43 1.14 28.64 21.73 8.71 29.58 1.11 7.34-20.43-1.14-28.64zM358.71 532.84a5.29 5.29 0 0 1 .3 7.63 5.72 5.72 0 0 1-7.88-.29 5.29 5.29 0 0 1-.3-7.63 5.72 5.72 0 0 1 7.88.29m10.43-10.1c-8.49-8.21-21.73-8.71-29.58-1.11s-7.34 20.43 1.14 28.64 21.73 8.71 29.58 1.11 7.34-20.43-1.14-28.64zM450.92 532.56a5.29 5.29 0 0 1 .3 7.63 5.72 5.72 0 0 1-7.88-.29 5.29 5.29 0 0 1-.3-7.63 5.72 5.72 0 0 1 7.88.29m10.43-10.1c-8.49-8.21-21.73-8.71-29.58-1.11s-7.34 20.43 1.14 28.64 21.73 8.71 29.58 1.11 7.34-20.43-1.14-28.64zM543.14 532.29a5.29 5.29 0 0 1 .3 7.63 5.72 5.72 0 0 1-7.88-.29 5.29 5.29 0 0 1-.3-7.63 5.72 5.72 0 0 1 7.88.29m10.43-10.1c-8.49-8.21-21.73-8.71-29.58-1.11s-7.34 20.43 1.14 28.64 21.73 8.71 29.58 1.11 7.34-20.43-1.14-28.64zM635.35 532a5.29 5.29 0 0 1 .3 7.63 5.72 5.72 0 0 1-7.88-.29 5.29 5.29 0 0 1-.3-7.63 5.72 5.72 0 0 1 7.88.29m10.43-10.1c-8.49-8.21-21.73-8.71-29.58-1.11s-7.34 20.43 1.14 28.64 21.73 8.71 29.58 1.11 7.34-20.43-1.14-28.64zM727.57 531.73a5.29 5.29 0 0 1 .3 7.63 5.72 5.72 0 0 1-7.88-.29 5.29 5.29 0 0 1-.3-7.63 5.72 5.72 0 0 1 7.88.29m10.43-10.1c-8.49-8.21-21.73-8.71-29.58-1.11s-7.34 20.43 1.14 28.64 21.73 8.71 29.58 1.11 7.34-20.43-1.14-28.64z"/>
                      <path class="dots" d="M220.24 577.89a5.29 5.29 0 0 1 .3 7.63 5.72 5.72 0 0 1-7.88-.29 5.29 5.29 0 0 1-.3-7.63 5.72 5.72 0 0 1 7.88.29m10.43-10.1c-8.49-8.21-21.73-8.71-29.58-1.11s-7.34 20.43 1.14 28.64 21.77 8.68 29.59 1.11 7.34-20.43-1.14-28.64zM312.45 577.62a5.29 5.29 0 0 1 .3 7.63 5.72 5.72 0 0 1-7.88-.29 5.29 5.29 0 0 1-.3-7.63 5.72 5.72 0 0 1 7.88.29m10.43-10.1c-8.49-8.21-21.73-8.71-29.58-1.11s-7.3 20.42 1.15 28.59 21.73 8.71 29.58 1.11 7.34-20.43-1.14-28.64zM404.67 577.34A5.29 5.29 0 0 1 405 585a5.72 5.72 0 0 1-7.88-.29 5.29 5.29 0 0 1-.3-7.63 5.72 5.72 0 0 1 7.88.29m10.43-10.1c-8.49-8.21-21.73-8.71-29.58-1.11s-7.34 20.43 1.14 28.64 21.73 8.71 29.58 1.11 7.34-20.43-1.14-28.64zM496.89 577.06a5.29 5.29 0 0 1 .3 7.63 5.72 5.72 0 0 1-7.88-.29 5.29 5.29 0 0 1-.3-7.63 5.72 5.72 0 0 1 7.88.29M507.32 567c-8.49-8.21-21.73-8.71-29.58-1.11s-7.34 20.43 1.14 28.64 21.73 8.71 29.58 1.11 7.34-20.43-1.14-28.64zM589.1 576.78a5.29 5.29 0 0 1 .3 7.63 5.72 5.72 0 0 1-7.88-.29 5.29 5.29 0 0 1-.3-7.63 5.72 5.72 0 0 1 7.88.29m10.43-10.1c-8.53-8.21-21.73-8.68-29.53-1.1s-7.34 20.43 1.14 28.64 21.73 8.71 29.58 1.11 7.34-20.43-1.14-28.64zM681.32 576.51a5.29 5.29 0 0 1 .3 7.63 5.72 5.72 0 0 1-7.88-.29 5.29 5.29 0 0 1-.3-7.63 5.72 5.72 0 0 1 7.88.29m10.43-10.1c-8.49-8.21-21.73-8.71-29.58-1.11s-7.34 20.43 1.14 28.64 21.69 8.71 29.58 1.06 7.34-20.43-1.14-28.64z"/>
                      <path class="dots" d="M266.2 622.39a5.29 5.29 0 0 1 .3 7.63 5.72 5.72 0 0 1-7.88-.29 5.29 5.29 0 0 1-.3-7.63 5.72 5.72 0 0 1 7.88.29m10.43-10.1c-8.49-8.21-21.73-8.71-29.58-1.11s-7.34 20.43 1.14 28.64 21.73 8.71 29.58 1.11 7.34-20.43-1.14-28.64zM358.42 622.11a5.29 5.29 0 0 1 .3 7.63 5.72 5.72 0 0 1-7.88-.29 5.29 5.29 0 0 1-.3-7.63 5.72 5.72 0 0 1 7.88.29M368.85 612c-8.49-8.21-21.73-8.71-29.58-1.11s-7.34 20.43 1.14 28.64 21.73 8.71 29.58 1.11 7.34-20.43-1.14-28.64zM450.64 621.84a5.29 5.29 0 0 1 .3 7.63 5.72 5.72 0 0 1-7.88-.29 5.29 5.29 0 0 1-.3-7.63 5.72 5.72 0 0 1 7.88.29m10.43-10.1c-8.49-8.21-21.73-8.71-29.58-1.11s-7.34 20.43 1.14 28.64 21.73 8.71 29.58 1.11 7.34-20.43-1.14-28.64zM542.85 621.56a5.29 5.29 0 0 1 .3 7.63 5.72 5.72 0 0 1-7.88-.29 5.29 5.29 0 0 1-.3-7.63 5.72 5.72 0 0 1 7.88.29m10.43-10.1c-8.49-8.21-21.73-8.71-29.58-1.11s-7.34 20.43 1.14 28.64 21.73 8.71 29.58 1.11 7.34-20.43-1.14-28.64zM635.07 621.28a5.29 5.29 0 0 1 .3 7.63 5.72 5.72 0 0 1-7.88-.29 5.29 5.29 0 0 1-.3-7.63 5.72 5.72 0 0 1 7.88.29m10.43-10.1c-8.49-8.21-21.73-8.71-29.58-1.11s-7.34 20.43 1.14 28.64 21.73 8.71 29.58 1.11 7.34-20.43-1.14-28.64z"/>
                      <path class="dots" d="M312.17 666.89a5.29 5.29 0 0 1 .3 7.63 5.72 5.72 0 0 1-7.88-.29 5.29 5.29 0 0 1-.3-7.63 5.72 5.72 0 0 1 7.88.29m10.43-10.1c-8.49-8.21-21.73-8.71-29.58-1.11s-7.34 20.43 1.14 28.64 21.73 8.71 29.58 1.11 7.34-20.43-1.14-28.64zM404.38 666.61a5.29 5.29 0 0 1 .3 7.63 5.72 5.72 0 0 1-7.88-.29 5.29 5.29 0 0 1-.3-7.63 5.72 5.72 0 0 1 7.88.29m10.43-10.1c-8.49-8.21-21.73-8.71-29.58-1.11s-7.34 20.43 1.14 28.64 21.73 8.71 29.58 1.11 7.34-20.43-1.14-28.64zM496.6 666.33a5.29 5.29 0 0 1 .3 7.63 5.72 5.72 0 0 1-7.88-.29 5.29 5.29 0 0 1-.3-7.63 5.72 5.72 0 0 1 7.88.29m10.4-10.1c-8.49-8.21-21.73-8.71-29.58-1.11s-7.34 20.43 1.14 28.64 21.73 8.71 29.58 1.11 7.34-20.43-1.14-28.64zM588.82 666.06a5.29 5.29 0 0 1 .3 7.63 5.72 5.72 0 0 1-7.88-.29 5.29 5.29 0 0 1-.3-7.63 5.72 5.72 0 0 1 7.88.29M599.25 656c-8.49-8.21-21.73-8.71-29.58-1.11s-7.34 20.43 1.14 28.64 21.73 8.71 29.58 1.11 7.34-20.43-1.14-28.64z"/>
                      <path class="dots" d="M358.13 711.39a5.29 5.29 0 0 1 .3 7.63 5.72 5.72 0 0 1-7.88-.29 5.29 5.29 0 0 1-.3-7.63 5.72 5.72 0 0 1 7.88.29m10.43-10.1c-8.49-8.21-21.73-8.71-29.58-1.11s-7.34 20.43 1.14 28.64 21.73 8.71 29.58 1.11 7.34-20.43-1.14-28.64zM450.35 711.11a5.29 5.29 0 0 1 .3 7.63 5.72 5.72 0 0 1-7.88-.29 5.29 5.29 0 0 1-.3-7.63 5.72 5.72 0 0 1 7.88.29M460.78 701c-8.49-8.21-21.73-8.71-29.58-1.11s-7.34 20.43 1.14 28.64 21.73 8.71 29.58 1.11 7.34-20.43-1.14-28.64zM542.56 710.83a5.29 5.29 0 0 1 .3 7.63 5.72 5.72 0 0 1-7.88-.29 5.29 5.29 0 0 1-.3-7.63 5.72 5.72 0 0 1 7.88.29m10.44-10.1c-8.49-8.21-21.73-8.71-29.58-1.11s-7.34 20.43 1.14 28.64 21.73 8.71 29.58 1.11 7.34-20.43-1.14-28.64z"/>
                      <path class="dots" d="M404.1 755.88a5.29 5.29 0 0 1 .3 7.63 5.72 5.72 0 0 1-7.88-.29 5.29 5.29 0 0 1-.3-7.63 5.72 5.72 0 0 1 7.88.29m10.43-10.1c-8.49-8.21-21.73-8.71-29.58-1.11s-7.34 20.43 1.14 28.64 21.73 8.71 29.58 1.11 7.33-20.42-1.14-28.64zM496.31 755.61a5.29 5.29 0 0 1 .3 7.63 5.72 5.72 0 0 1-7.88-.29 5.29 5.29 0 0 1-.3-7.63 5.72 5.72 0 0 1 7.88.29m10.43-10.1c-8.49-8.21-21.73-8.71-29.58-1.11s-7.34 20.43 1.14 28.64 21.73 8.71 29.58 1.11 7.34-20.43-1.14-28.64z"/>
                      <path id="seventeen" class="dots" d="M450.06 800.38a5.29 5.29 0 0 1 .3 7.63 5.72 5.72 0 0 1-7.88-.29 5.29 5.29 0 0 1-.3-7.63 5.72 5.72 0 0 1 7.88.29m10.43-10.1c-8.49-8.21-21.73-8.71-29.58-1.11s-7.34 20.43 1.14 28.64 21.73 8.71 29.58 1.11 7.34-20.43-1.14-28.64z"/>

                </g>
                <g id="balls">
                    <path id="leftball" class="cls-4" d="M120.6 516.77c-128.13-87.1-159.06-258.26-69.09-382.3s266.78-154 394.91-66.89"/>
                    <path id="rightball" class="cls-4" d="M446.42 67.23C564.63-32.15 743.68-19.94 846.34 94.5s90 287.77-28.17 387.15"/>
                </g>
            </g>
        </g>
    </g>
</svg>
