<svg xmlns="http://www.w3.org/2000/svg" id="Cheers" viewBox="0 0 752.8 1780.15">
    <defs>
        <style>
            .cls-1,.cls-14{opacity:.45}.cls-11,.cls-13,.cls-14,.cls-2,.cls-3,.cls-4,.cls-5,.cls-9{fill:#fff}.cls-3,.cls-6{opacity:.3}.cls-12,.cls-4{opacity:.6}.cls-5,.cls-7{opacity:.15}.cls-6{fill:none;stroke:#fff;stroke-miterlimit:10}.cls-8{fill:#fffafe}.cls-10,.cls-8{opacity:.5}.cls-9{opacity:.2}.cls-10{fill:#fffdfd}.cls-11{opacity:.4}.cls-13{opacity:.7}
        </style>
    </defs>
    <title>
        HeartSpill
    </title>
    <g id="HeartSpill">
        <g id="WineglassLeft">
          <g id="WineGlass">
              <g class="cls-7">
                  <path class="cls-2" d="M397.86 1760.91a13 13 0 0 0-8.75-11.23l-74.39-25.52a51.55 51.55 0 0 1-34.82-48.76v-284.5a152.79 152.79 0 0 1 17-70.13l66.2-128.14a131.39 131.39 0 0 0 14.38-68.85L358.8 836.22c-.56-5.69-.3-9.19-.77-11.34 0 1.6-1 3.26-3 4.93-8.6 7.21-47.21 9.73-83.93 9.73-3.63 0-7.23 0-10.79-.07-39-.52-83.59-4-89.29-10.29a2.72 2.72 0 0 1-.76-1.8c-1.13 12.32-20 296.4-20 296.4a131.39 131.39 0 0 0 14.38 68.85l66.2 128.14a152.79 152.79 0 0 1 17 70.13v284.49a51.55 51.55 0 0 1-34.82 48.76l-74.39 25.52a13 13 0 0 0-8.75 11.23 6.26 6.26 0 0 0 .08 1.29c3 10 61.76 18 133.87 18 72.3 0 131.22-8 133.89-18a4.83 4.83 0 0 0 .14-1.28z"/>
              </g>
              <path class="cls-8" d="M271.09 839.54c-3.63 0-7.23 0-10.79-.07-39-.52-83.59-4-89.29-10.29a2.64 2.64 0 0 1 .23-3.93c13.38-13.23 88.33-14.87 91.51-14.93h.32c10.55 0 90.14.43 94.73 13.16.73 2-.2 4.16-2.78 6.32-8.6 7.2-47.21 9.74-83.93 9.74zm-8.31-27.22c-1.25 0-77.37 1.72-90.15 14.36-.59.58-.45.83-.15 1.16 4.4 4.89 42.16 9 87.84 9.63 49.32.65 86-3 93.43-9.2 1.87-1.57 2.6-2.95 2.18-4.1-3.15-8.75-57.41-11.9-93.15-11.85z"/>
              <path class="cls-9" d="M270 1706.25l1.54.23a44.73 44.73 0 0 1 13.48 4.69s-13-9.07-14.36-36.52l2.54-316.44 6-15.4s-13.83 11.3-29.5 1.57l5.57 12.28v324.31c-.33 7.16 1.76 14.47-8.57 24.92-1.71 1.73-6.62 7.1-6.62 7.1a45.7 45.7 0 0 1 29.92-6.74zM173.58 1747.62c-3.29 1.25-16.67 4.71-18.66 8.47l83.22-12.44a184.06 184.06 0 0 1 49-.73l78.51 9.35c-4.46-2.13-10.71-3.81-12.9-4.64l-44.9-15.17a126.15 126.15 0 0 1-20.62-9.11l-.3-.16-7.55 3.35a46.07 46.07 0 0 1-34.1 1.31l-8.11-2.88a125.92 125.92 0 0 1-24.6 10.62z"/>
              <path class="cls-10" d="M397.86 1760.91a4.83 4.83 0 0 1-.06 1.21c-2.67 10-61.59 18-133.89 18-72.11 0-130.9-8-133.87-18a6.26 6.26 0 0 1-.08-1.29l.15-1a12.32 12.32 0 0 1 2.33-5.57l.64-.86c0 .16 5.16 19.26 131.28 19.26 70.64 0 128.65-8.08 131.27-18.11a12.51 12.51 0 0 1 1.57 3.12 16.18 16.18 0 0 1 .66 3.24z"/>
              <path class="cls-11" d="M264.36 1772.74c66 0 121-7.05 130-16.15-1.56-4.52-21.69-7.91-25.68-9.43l-52.53-17.75a147.58 147.58 0 0 1-24.13-10.65l-6.31-3.49a44.82 44.82 0 0 0-14.17-5.1l-1.54-.23a45.33 45.33 0 0 0-29.92 6.8l-1.07.66a148 148 0 0 1-34.34 15.68l-45.61 14.08c-3.57 1.36-19.72 4.73-24.15 8.69 6.01 5.15 30.54 16.89 129.45 16.89zm-90.78-25.11l39-12a126.52 126.52 0 0 0 29.35-13.4l.91-.57a38.74 38.74 0 0 1 25.57-5.81l1.31.2a38.31 38.31 0 0 1 12.11 4.36l5.4 3a126.15 126.15 0 0 0 20.62 9.11l44.9 15.17c3.52 1.34 17.45 4.85 17.75 8.9a4.23 4.23 0 0 1 0 1c-1.91 7.94-44.6 12-96.33 12s-117.27-3.68-119.39-11.59a5.48 5.48 0 0 1-.06-1c.28-4.17 15.34-8 18.86-9.38z"/>
              <path class="cls-9" d="M285.06 1711.17a44.73 44.73 0 0 0-13.48-4.69l-1.54-.23a45.7 45.7 0 0 0-29.92 6.73s4.91-5.37 6.62-7.1c10.33-10.45 8.24-17.76 8.57-24.92V1357.2v-.55l-5.57-12.28a15.22 15.22 0 0 1 9.81 14l3 181.14-2.12 149.67a12.77 12.77 0 0 0 10 12.63c4.44.95 9.66 3.49 14.63 9.36zM281.12 1330.92l20.48-38.73-6-12a219 219 0 0 1-15.73 20.49 15.68 15.68 0 0 1-3.75 3l-7 36.86a19.93 19.93 0 0 0 12-9.62z"/>
              <path class="cls-9" d="M352.38 1196.19c-1.24-2.37-24.85 34.27-34.26 49.1A82.6 82.6 0 0 1 310 1256c-21.66 24.28-25.36 40.26-46.8 39.73-20.34-.5-34-4.49-83.26-101.6-19.4-34.7-5 4-5 4s63.17 117.24 71 132.38c3.42 6.64 8 10.8 15.51 10.8h2.22a19.94 19.94 0 0 0 17.5-10.4z"/>
              <path class="cls-3" d="M183.9 1142s-1.67 48 45 118.51c0 0-14.17-23.15-22.5-56.85-9.07-36.65-12.37-83.31-12.74-61.94-.29 17.22-9.76.28-9.76.28z"/>
              <path class="cls-9" d="M285.06 1286.72c-5.85 6-12 9.26-21.85 9s-18-1.3-29.37-13.09c0 0-26.76-18 11.23 46.27l.83 1.6c3.42 6.64 8 10.8 15.51 10.8h2.22a19.94 19.94 0 0 0 17.5-10.4l1.62-3.07s40.65-72.68 2.31-41.11z"/>
              <path class="cls-11" d="M177.9 1124c1.06-44.73 10.31-242.18 12.53-289-3.92-.58-7.4-1.22-10.34-1.92l-11.83 293.79c-1.1 23.09 7 44.6 17.41 65.43l13.84 23.7s-22.67-47.12-21.61-92z"/>
              <path class="cls-3" d="M198.5 836l-11.74 291.5c1.69 21.28 4.36.44 4.82-4.53 4.33-46.66 10.15-235.34 12.41-286.38-1.88-.17-3.71-.37-5.49-.59z"/>
              <path class="cls-9" d="M373.4 1122.71c-2.4-37-14.7-252.73-17.16-294.07-.07.06-.65.65-.72.71a9.94 9.94 0 0 1-2 1.46c.68 19.65 3.87 88.44 5.18 114.39 2.24 44.2 9.65 134 8.25 176.58-.6 18.23-5.75 46-18.75 70.5-9.33 17.58-45.78 83.24-68.33 108.42-7.85 8.76-29.12 8.69-36.67-.33-13.78-16.48-43.57-69.1-64.62-108.67a133.56 133.56 0 0 1-15.51-68.43l11.58-291.75a17.79 17.79 0 0 1-2.35-1l-2.51 51.21-11.89 231.65s-4 46 13.33 78c14.13 26.09 59.27 109.32 74.66 139.2 3.42 6.64 8 10.8 15.51 10.8h2.22a19.94 19.94 0 0 0 17.5-10.4l72.79-137.6s22.16-29.67 19.49-70.67z"/>
              <path class="cls-11" d="M359.76 1080.94L345.12 834c-2.34.57-4.91 1.15-7.77 1.62l13.89 243.91c.66 7.67-2.38 70.84-11.52 90.94l-46 101.19 39.28-68.72c11.68-19.55 20.68-39.64 25-62l.64-3.32c3.18-16.19 2.13-40.22 1.12-56.68z"/>
              <path class="cls-5" d="M262.78 812.32c-1.25 0-77.37 1.72-90.15 14.36-.59.58-.45.83-.15 1.16 4.4 4.89 42.16 9 87.84 9.63 49.32.65 86-3 93.43-9.2 1.87-1.57 2.6-2.95 2.18-4.1-3.15-8.75-57.41-11.9-93.15-11.85z"/>
              <path class="cls-5" d="M180.09 831c2.81.69 6.29 1.35 10.35 2l.4-13.57a80.75 80.75 0 0 0-10.75 3.1zM172.48 827.84a7.58 7.58 0 0 0 2.67 1.59v-4.61a13.5 13.5 0 0 0-2.47 1.87c-.68.57-.5.81-.2 1.15zM337.07 833.59c3-.51 5.68-1.07 8-1.67l-.49-13.42c-2.52-.61-5.39-1.18-8.53-1.69zM352.65 821.23l.68 7.34c.14-.1.29-.2.41-.3 1.87-1.57 2.6-2.95 2.18-4.1s-1.51-2.04-3.27-2.94z"/>
              <g id="Left-Contents-slide1">
                  <g id="liquid-2" data-name="liquid">
                      <path class="cls-5" d="M163.11 1123.28a133.56 133.56 0 0 0 15.51 68.43c18.5 34.77 43.74 79.61 58.94 101.16 5 6.57 12.07 8.65 18.94 8.72a36.59 36.59 0 0 0 28.71-13.94s13.33-15.33 25.35-30.18c16.43-26.24 32-54.52 37.68-65.17 13-24.5 18.15-52.27 18.75-70.5.07-2.18.12-4.49.15-6.91v-10.3L359 949.68c-.08-1.54-.16-3-.24-4.47s-.15-3-.23-4.66a12.58 12.58 0 0 0-1-4.51c-1.94-3.08-21.83 2.71-25.46 4.54-9.37 4.74-22.67 22-35.33 32s-18 14.67-67.8-5.33c-44.39-17.82-57.9 11.38-60.32 17.94zM160 1156.31a31 31 0 0 0 .91 4.94q-.53-2.49-.91-4.94z"/>
                  </g>
                  <path id="highlight-3" data-name="highlight" class="cls-5" d="M199.51 1018.25c30.54-1 30.13-16.5 61.58-18.5s32.45 12.23 56 2.61 38.51-39.75 41.69-57.15c.42-2.28 0-7.25-1.24-9.17-1.94-3.08-21.83 2.71-25.46 4.54-9.37 4.74-22.67 22-35.33 32s-18 14.67-67.8-5.33-60.74 19.21-60.74 19.21.79 32.79 31.3 31.79z"/>
                  <g id="Bubbles-3" data-name="Bubbles">
                      <circle class="cls-6" cx="220.36" cy="1046.24" r="4.32"/>
                      <circle class="cls-6" cx="287.71" cy="1069.64" r="4.32"/>
                      <circle class="cls-6" cx="253.69" cy="1179.68" r="4.32"/>
                      <circle class="cls-6" cx="203.57" cy="1091.55" r="2.83"/>
                      <circle class="cls-6" cx="266.74" cy="1043.79" r="2.83"/>
                      <circle class="cls-6" cx="301.6" cy="1153.76" r="2.83"/>
                      <circle class="cls-6" cx="224.68" cy="1153.76" r="2.83"/>
                      <circle class="cls-6" cx="244.32" cy="1098.52" r="5.05"/>
                      <circle class="cls-6" cx="306.66" cy="1098.52" r="5.05"/>
                      <circle class="cls-6" cx="316.76" cy="1050.55" r="5.05"/>
                      <circle class="cls-6" cx="271.79" cy="1129.2" r="5.05"/>
                      <circle class="cls-6" cx="293.72" cy="1201.59" r="9.2"/>
                  </g>
              </g>
          </g>
            <g id="Left-contents-slide3">
                <g id="Splash">
                    <g id="flow" class="cls-1">
                        <path class="cls-2" d="M258.94 797.5c21.58.55 5.59-16.65-7-22.36-2.16-1-3.42-4.24-2.85-7.47 1.54-8.76 1-22.34 3.13-34.11a7.62 7.62 0 0 1 1.28-3.16c18.36-24.81 6.09-26.47-10.57-18.43a3.35 3.35 0 0 1-4.27-1.26c-4.06-5.39-28.78-23.69-33.65-28.36a7.64 7.64 0 0 1-1.85-5.87c1.42-22.9-37.78-36-47.8-43.34a6.6 6.6 0 0 1-2.36-4.74c-3.1-32.72-15.8-21.14-34.88-11.52a3.18 3.18 0 0 1-3.73-.59C91.43 595 111 585 116.67 577.13c10-13.76 4.59-23.73-2.92-31.9s-7.41-24.8.19-33.26c13.26-14.79-2.09-16.12 8.44-20.88a3.22 3.22 0 0 1 1.6-.28c36.41 3 20.19-69.45-6.85-23.72-1.65 2.79-4.64 3.18-6.33.53-5.4-8.46-18.18 27-14.59 48.3-4-23.53-28.82 31.13-7.91 74a30 30 0 0 1 2.79 12.7c.56 51 125 117.8 123 194.64-1.52 56.74 69.91 5.24 72.22 10.86 3 7.09-17 4.28-17.11 12.91-.15 17.89 86.2 23.16 82.44 24.25-3.42 1-8.1 2.44-9 6.22-30 122.15-197.27 231.74-227.28 256.69-3.06 2.54-7.68 3.59-5.18 6.78 65.92 84.32 262.71-183.8 278.41-222.61a6.56 6.56 0 0 1 4-3.86c8.18-2.69 21.24-30.88 20.34-42.47a8.69 8.69 0 0 1 1.61-5.82c3.6-4.88-91-22.12-98.18-32.88-2.3-3.33-101-67.33-97.93-69.62 8.29-6.28 34.63 58.41 39.85 59.7a3.08 3.08 0 0 0 .66.09z"/>
                    </g>
                    <path id="body" class="cls-3" d="M199.68 691.75c-10.46 32.95 17.79 39.39 6.26 66.32-12.85 30 81.46 25.47 86.33 53.55 4.24 24.45 61.67 49.25 51.27 55.64a14.24 14.24 0 0 0-4.27 4.14l-1.38 2-.15-.07c-7.6 9.69-.38 30.05-13 58.15-114.06 253.71-215 180.84-215 180.84l-1.61 4.18a68.43 68.43 0 0 0-4.15 31.29c1 10.28 2.27 23.44 2.86 33.15 3.29 119.62 13.06 129.67 29.77 139.19 17.56 10 26.83-4.34 54.08-19.14a80.17 80.17 0 0 0 11.39-7.51c13.77-10.87 49.45-35.58 49.45-35.58l5.1-4.28c17.34-16.51 33.74-31.28 41.69-56l96-297.84c1.74-6 3.41-9.59 3.85-12a5.19 5.19 0 0 1-2.07 2.62 31.25 31.25 0 0 0-.56-9.11c-1.39-6.57-5.29-7.65 3.6-5.57 12.14 2.83 25.06.06 22.87-14.65-2.11-14.24-29.62-7.64-35.77-1.69-10.68 10.32-41.46-31.64-41.84-42.77s-37.77-47.36-4.3-57.07c15.52-4.5-29.18-14.25-38.88-27.62-10.45-14.4-35.83 43.15-17.77 1.75 5.73-13.13-35.87 24.27-42.11 5-46.12-142.45-31.19-79.87-41.66-46.92z"/>
                    <path id="highlight" class="cls-3" d="M248.77 769.13c1.93-8.83 1.14-23.72 3.56-36.33a5.06 5.06 0 0 1 .89-2.06c19.07-25.59 6-26.91-11.21-18.33a2.28 2.28 0 0 1-2.82-.71c-5.76-6.59-28.27-23.35-34.92-30.14a5.41 5.41 0 0 1-1.18-4.25c2.51-24.11-40-37.57-48.55-44.81a4.61 4.61 0 0 1-1.38-3.1c-2.87-33.15-15.11-22.74-33.64-13.19a5.32 5.32 0 0 1-6.37-1.16c-20.93-20.44-2-30.22 3.55-37.91 10.57-14.51 4-24.8-4.16-33.21-7.18-7.45-7-23.14.33-30.78 15.3-16-1.58-17.19 9.83-22.19a2.11 2.11 0 0 1 1-.17c20.39 1.89 24.46-19.73 19.42-31.51-.71-1.67-2.12-2.38-3.42-1.78-6.69 3.11-17.67 9.94-22.11 22.6-6.58 18.77-16.61 3.1-15.57 33s-21.41 17.9-9.7 44.24-5.92 40.21 4.89 52.8c5.57 6.49 14.3 11.57 21.46 15 6.23 3 13.2-.34 17-8.32 3-6.33 6.52-10.32 8.07 1.23 2.94 21.88 2.14 37 12.82 33.47s27.15-8.44 25 3.55 1.92 27.56 7.46 24.83 7.17-4.16 10.7 11.88 13.16 36.89 26.9 29.2 30.85-14.24 23.82-5.93-17.31 13.06-12.71 24.67 7.8 23 3.09 27.11 21 13.73 14.69 18.21a64.77 64.77 0 0 1-6.54 4c-2.65 1.44-2.66 6.9 0 8.23a2.13 2.13 0 0 0 1.4.19 18.67 18.67 0 0 1 8.07 0 2.07 2.07 0 0 0 .46.07c22.41.63 4.68-17.72-8.1-22.86-1.68-.67-2.55-3.18-2.03-5.54z"/>
                </g>
                <g id="spill">
                    <path id="spill-2" data-name="spill" class="cls-4" d="M397.65 726.94C364.21 658 269.74 625.74 204.11 600.2c-50.36-19.6-181.23-64.26-144-140.45 33.44-68.5 112.9-55.41 164.09-19.69-37 27.69 25.18 74.91 50 39 17.78-25.82-27-52.08-35.85-66.82-4-6.75-2-34.23-11.09-49-12.37-20.06-29.68-37.12-54.69-36-14.66.68-49.45 20.91-65.52 25.12-26.23 6.88-39.31 12-58.67 27.56C1.85 417.3-10.26 471.11 8.37 526.27c24 71.07 74.43 75.07 133.3 104 24.21 11.89 36.52 33.66 58.14 46.94 26.39 16.21 48.62 16.54 77.26 25.35 18 5.55 62.34 43.27 71.42 14.15 15.6 20.57 24.06 54.86 1.7 72.32-7.48 5.84-22-28.85-39.43-4.22-20.31 28.66 37.22 51.93 57 46.17 43.34-12.58 45.92-70.98 29.89-104.04z"/>
                    <path id="highlight-2" data-name="highlight" class="cls-4" d="M11.81 443.87c22.09-19.16 13.59-10.65 27.59-34.15s5.5-32 28.16-26.5c39.33 9.55 70.56 3 75.7-8s15.64-35.5 28.14-18-5.84 38 15.33 43.5 22.45-10.5 31.06 4.5 2.8 14.69 13 20.1 24.32 3.4 24.24 11.9a111.45 111.45 0 0 0 .56 13.42 13.17 13.17 0 1 0 20.79 6.44q-.56-1.43-1.27-2.84a13.26 13.26 0 0 0-2.06-2.66l-.84-2.34c-9.8-14.82-28.52-28.08-33.89-37.05-4-6.75-2-34.23-11.09-49-12.37-20.06-29.68-37.12-54.69-36-14.66.68-49.45 20.91-65.52 25.12-26.23 6.88-39.31 12-58.67 27.56-46.5 37.43-58.61 91.24-39.98 146.4 5.81 17.2 13.17 30.47 21.82 41.11l.71-.67s-18.67-20.5-19.08-50.5-22.09-53.21-.01-72.34z"/>
                    <path id="hightlight" class="cls-4" d="M215.9 604.76a13.16 13.16 0 0 1-13.06 20l17.49 4.23a28.56 28.56 0 0 1 13.79 7.77c31 31.83 54.34.22 70.65 13 19 14.92 24.75 43.19 30 50 9.17 12 21.46-17 34.82 15s18.06 48.94 16.71 52c-1 2.21 10.34 19.3 16.55 28.39 7.08-22.15 4-49.27-5.15-68.13-31.54-65.02-117.12-97.38-181.8-122.26z"/>
                </g>
            </g>
            <g id="Left-Contents-slide2">
                <path id="Liquid" class="cls-5" d="M191.55 1098a11 11 0 0 0-14.76 2.62c-15.51 20.69-47.81 48.11-46.72 68.88 2.07 39.33 6 90.64 10.67 116.59 1.73 8.05 7.28 12.94 13.48 15.91a36.59 36.59 0 0 0 31.91-.5s18.11-8.06 35.1-16.34a11.29 11.29 0 0 0 1.2-.68c25.79-16.74 51.56-35.55 61.11-42.76 22.14-16.71 38.54-39.7 46.79-56 1-1.95 2-4 3.05-6.2l4.23-9.07q.12-.26.23-.53l58-143.56 1.68-4.15 1.76-4.32a12.58 12.58 0 0 0 1-4.51c-.46-3.62 17.2-125.77 38-134.33 67.25-27.74-30.65-497.93-27.88-199.31.55 59.33 35.39 56.53 35.8 74 2 83.85-50.17 63.77-51.74 74.67-9 62.38-108.87 41.64-79.44 76.59 55.1 65.44 31 115.11-3.8 147.83-30.85 28.87-71.22 45.17-113.36 46.91a10.91 10.91 0 0 1-6.31-1.74z"/>
                <g id="Bubbles">
                    <circle class="cls-6" cx="298.08" cy="1182.7" r="4.32" transform="rotate(-65 298.08 1182.696)"/>
                    <circle class="cls-6" cx="316.38" cy="1107.48" r="4.32" transform="rotate(-65 316.386 1107.477)"/>
                    <circle class="cls-6" cx="239.16" cy="1195.77" r="4.32" transform="rotate(-65 239.153 1195.767)"/>
                    <circle class="cls-6" cx="337.02" cy="1099.99" r="2.83" transform="rotate(-65 337.017 1099.999)"/>
                    <circle class="cls-6" cx="293.76" cy="1130" r="2.83" transform="rotate(-65 293.764 1129.996)"/>
                    <circle class="cls-6" cx="269.46" cy="1203.77" r="2.83" transform="rotate(-65 269.464 1203.767)"/>
                    <circle class="cls-6" cx="263.81" cy="1174.82" r="2.83" transform="rotate(-65 263.808 1174.82)"/>
                    <circle class="cls-6" cx="295.93" cy="1156.35" r="5.05" transform="rotate(-65 295.928 1156.355)"/>
                    <circle class="cls-6" cx="310.39" cy="1148.52" r="5.05" transform="rotate(-65 310.387 1148.519)"/>
                    <circle class="cls-6" cx="329.14" cy="1127.28" r="5.05" transform="rotate(-65 329.14 1127.276)"/>
                    <circle class="cls-6" cx="272.29" cy="1161.41" r="5.05" transform="rotate(-65 272.293 1161.413)"/>
                    <circle class="cls-6" cx="223.03" cy="1242.22" r="9.2" transform="rotate(-65 223.03 1242.22)"/>
                </g>
                <g id="Bubbles-2" data-name="Bubbles">
                    <circle class="cls-6" cx="219.62" cy="1193.14" r="3.61" transform="rotate(-75.29 219.645 1193.159)"/>
                    <circle class="cls-6" cx="223.44" cy="1128.48" r="3.61" transform="rotate(-75.29 223.462 1128.498)"/>
                    <circle class="cls-6" cx="173.06" cy="1212.7" r="3.61" transform="rotate(-75.29 173.09 1212.727)"/>
                    <circle class="cls-6" cx="239.31" cy="1119.23" r="2.36" transform="rotate(-75.5 237.147 1115.33)"/>
                    <circle class="cls-6" cx="208.18" cy="1150.39" r="2.36" transform="rotate(-75.5 206.108 1146.34)"/>
                    <circle class="cls-6" cx="199.21" cy="1214.76" r="2.36" transform="rotate(-75.5 197.088 1210.46)"/>
                    <circle class="cls-6" cx="190.23" cy="1191.77" r="2.36" transform="rotate(-75.29 190.25 1191.794)"/>
                    <circle class="cls-6" cx="213.91" cy="1171.77" r="4.23" transform="rotate(-75.29 213.933 1171.787)"/>
                    <circle class="cls-6" cx="224.64" cy="1163.16" r="4.23" transform="rotate(-75.29 224.665 1163.182)"/>
                    <circle class="cls-6" cx="236.9" cy="1142.87" r="4.23" transform="rotate(-75.29 236.917 1142.888)"/>
                    <circle class="cls-6" cx="195.2" cy="1179.47" r="4.23" transform="rotate(-75.29 195.223 1179.49)"/>
                    <circle class="cls-6" cx="166.73" cy="1253.36" r="7.7" transform="rotate(-75.29 166.752 1253.38)"/>
                </g>
                <path id="spill-3" data-name="spill" class="cls-5" d="M323.07 1004.72a45.84 45.84 0 0 0 9.87-29.95c-.39-11.72.86-30.7 7.95-58.36 13.33-52-18.67-58.69 17.33-98.69s111.94 15.13 80-52.1-45.92-75.23-37.61-97.9 61.69-50.82 68.52-61.6c21.79-34.4 6.46-49.73 1.79-61.06s-1.33-28 6-18-4.14 10.67 6.93 16 11.74-8 17.07-4 17.33 6.67 8 26.67-18 8-10 34.67 22.67 32 8 46.67 3.49-2.67-26.59 22.67-27 47.85-19.23 57.59 31 1.07 22.75 20.41-15.6 8.54-26.26 35.27 3.33 40.77-2.67 52.75-10 19.31-33.33 28.64-3.33 32.67-14 68-42 153.78-69.67 145.67c-28-8.23-154.34 43.4-163.73 34.73-8.1-7.45 127.81-81.41 148.88-108.08z"/>
                <path id="spill-4" data-name="spill" class="cls-3" d="M487.05 787.81c-.24-17.47-7.5-24.75-19.5-45.25s-11-37.5 9.5-77.5 6-24 6.76-57.5-14.26-9.5-20.25-20.5-.51-8 0-18-14-14-8.11 0-5.89 11.5-13.57 20 8.67 19 8.67 19 15.5 2.5-8.67 54.5c-21.35 45.92-.18 73.52 5.09 106.2.31 4 .68 7.73 1.08 11.36v1.94c0 39-40.54 37.5-69.54 103.87s-24 19.63-35.5 64.89-69.71-21.52-62.53 11.3c.51 2.32 2.17 5.72 4.39 9.52a41.87 41.87 0 0 1-6.57 50.91l-.14.13c-5.53 7.24-95.17 68.41-95.9 69.38-45.44 60.74 94.41-5.59 104.57-5.65 50.57-.33 51.17-82.37 81.67-92.87s25.5-43.5 35.72-77.14c3.86-12.7 9.75-22.22 20.75-27.81 7.14-3.95 10.08-8.3 13.17-9.57 25.73-10.62 41.56-31.13 44.93-52.15 2.67-9.1 4.22-22.21 3.98-39.06z"/>
            </g>

        </g>
        <g id="wineglassRight">
            <g id="Right-contents-slide3">
                <g id="Splash-2" data-name="Splash">
                    <g id="flow-2" data-name="flow" class="cls-12">
                        <path class="cls-2" d="M401.58 822.47c-31.19.1-8.07-17.08 10.18-22.63a6.25 6.25 0 0 0 4.13-7.56c-2.21-9-1.42-22.79-4.47-34.82a6.84 6.84 0 0 0-1.85-3.24c-26.5-25.67-8.77-27.1 15.29-18.55a6 6 0 0 0 6.16-1.19c5.88-5.4 18.63-14.27 24.71-20.17a6.5 6.5 0 0 0 1.59-6.37c-6-22.78 47.37-45.62 60.19-55.4a6.29 6.29 0 0 0 2.37-5.29c-1.35-33.75 18.69-25.17 47.42-20.14a6 6 0 0 0 5.18-1.51c28.87-27.09-.56-32.43-10-38.94-16.63-11.44-10.66-22.82-1.45-32.89s6.15-26.81-6.09-33.49c-21.4-11.69.14-16.77-15.64-19a6.28 6.28 0 0 0-2.3.11c-51.08 12-40.81-65.11 5.53-25.59 2.83 2.41 7.13 2.08 9.06-1 6.17-9.85 30.51 22.84 29.15 45.15 1.51-24.7 46.3 24.37 24.18 72.67a22.87 22.87 0 0 0-1.76 13.3c8.62 51.47-154.45 140.44-136.71 217.25a24.68 24.68 0 0 1-2 16.44 25.14 25.14 0 0 0-.27 21.33c5.58 12.5 19.81 18.31 31.8 13l.1-.05c61.16 80.86 202.69 228.43 244.46 239.16 10.55 2.71 3.73 7 1.1 9.83-69.5 75.36-272-172.57-288.53-207.78a6.63 6.63 0 0 0-4.16-3.53c-8.61-2.52-22.33-28.11-21.36-38.57a7.1 7.1 0 0 0-1.69-5.27c-3.79-4.45-.56-19.51 7-29.14a6.67 6.67 0 0 0-1.62-9.61c-8.72-5.77-21.19-7.75-28.74-6.54a6.06 6.06 0 0 1-.96.03z"/>
                    </g>
                    <path id="body-2" data-name="body" class="cls-3" d="M446.59 786.49c15.58 0 10.64 29 5.48 54.33-4.5 22 37.5 46.21 48.44 52.1a14.43 14.43 0 0 1 4.49 3.78l1.45 1.84.15-.06c8 8.83-1.43 29.26 13.64 52.64 146.68 227.59 226.16 165.7 226.16 165.7l1.69 3.79a53.92 53.92 0 0 1 4.33 28.29c-1.1 9.26-2.42 21.13-3.05 29.89-3.6 107.93-13.9 116.9-31.51 125.3-18.5 8.83-28.25-4.22-56.92-17.9a87.9 87.9 0 0 1-12-6.91c-14.49-10-52-32.68-52-32.68l-5.37-3.92c-18.24-15.1-35.49-28.62-43.83-51L447 921.74c-1.83-5.41-3.58-8.7-4-10.85a4.94 4.94 0 0 0 2.18 2.39 24.23 24.23 0 0 1 .6-8.22c1.47-5.91 3-16.73-6.39-15-12.79 2.42-4-13.73.92-26.43C453.2 830 424.8 779.68 419 811c-2.45 13.21-13.24 25.28-23.11 23.39-11.51-2.2 14.79 24.57-2.33 23.64-9.94-.54-5.5-6.57-21.58-1.59s12.25-26.11 4.58-39.95c0 0-32.94-30.22 70.03-30z"/>
                    <path id="highlight-4" data-name="highlight" class="cls-3" d="M418.46 798.33c-5.72-7.76-3-27.21-7.59-42.86-29.78-28.21-8.54-28.57 17.71-18.41 4.06-5.46 26.18-19.88 30-26-13.41-26 57.19-53 61.5-61.06-2.56-37 17.81-28.06 47.36-22.89a5.85 5.85 0 0 0 5-1.46c29-27.14-.49-32.48-10-39-19.84-13.65-7.51-27.22 4.12-38.57 7.47-7.3 4.84-20.31-4.91-24.55-33-14.34-4-20.08-23.6-22.42-31.5 8-40.36-17.2-32.26-29.88 9.29 1.08 28.87 4.85 38.31 17.8 12.62 17.32 24.08-.93 27.85 29.51s33.51 12.8 21.53 42.22 15.43 39.1 2.33 54.44c-7.58 8.87-21.11 16.91-31.18 22.12a16.82 16.82 0 0 1-20.44-4.19c-5.75-6.68-12.7-11.93-12.9 1.36-.34 22.78 3.47 37.87-12.31 36.88s-40-1.89-34.8 9.68 2.11 28.26-6.21 26.86-10.89-2.44-13.08 14.59 3.37 30.81-16.48 22.68S403.88 730 414 738.63s25 13.67 18.34 25.37-11.3 23.29-4.5 27.56-30.35 13.53-21.25 18.24 21.52 8.53 21.52 8.53l-13 4.42a38.48 38.48 0 0 0-13-.32c-36.06.35-1.8-21.76 16.35-24.1z"/>
                </g>
                <g id="spill-5" data-name="spill">
                    <path id="spill-6" data-name="spill" class="cls-4" d="M514.81 32c-26.46-19.35-43.12 5-45.54 29.68-4.66-1.6-16.66-43.31-28.64-51.61-21-14.52-41-10.85-64.07-4.34-56.94 16-40.08 100.35-79.66 138-61 58 0 150 .37 216.35 0 6.56 14.35 47.3 37.94 27.15 28.14-24-10.6-32.73-12.88-49.24-2.52-18.18 10.75-44.69 10.33-66.64-.34-17.34-39.3-42-36.76-59.63 4.62-32.13 71.63-150.91 105-151.75 75-1.9 48.85 225.69 39.24 267.25C429 375.13 322.6 457.29 330.9 508.71c6.77 42 55.35 44 109.2 155 8.65 17.83 61.53-44.92 54.77-66.39-9.39-29.84-5.25 7.77-22 7.21-1.36 0-24 29.17-24.64 29.17-10.54 0-10.51-27.38-20.55-34.22-42.68-29.08 7.61-203.43 22.62-236.77 12.3-27.3 30.06-45 33.24-76.57 2.44-24.2-12.58-53.94-5.23-74.76C497.36 157.39 598.75 93.36 514.81 32zm-186 170.24c-.21.48-.58 1.29 0 0z"/>
                    <path id="highlight-5" data-name="highlight" class="cls-4" d="M472.9 604.54c-1.36 0-24 29.17-24.64 29.17-10.54 0-10.51-27.38-20.55-34.22-42.71-29.09 7.58-203.44 22.59-236.78 12.3-27.3 30.06-45 33.24-76.57 2.44-24.2-12.58-53.94-5.23-74.76 19-54 120.44-118 36.5-179.4-26.46-19.35-43.12 5-45.54 29.68-4.66-1.6-16.66-43.31-28.64-51.61-21-14.52-41-10.85-64.07-4.34-56.94 16-40.08 100.35-79.66 138-61 58 0 150 .37 216.35 0 6.56 14.35 47.3 37.94 27.15 20.13-17.19 6-26.54-4.45-36.5a11.64 11.64 0 0 0 3.21 3c6.42 5.89 13.2 12.44-12 11.19-4.75-1.06-.83-10.17-.83-10.17s-15.58-23.33-9.58-29-11.33-19.73-9.66-30.35 8.33-13.33 11.67-26.67-29.33-23.33-23.33-30.21-2-23.79-13.32-34.11 5.31-24.39 9.74-28.39 18.91-14 15.24-20 14.33-34.62 16.33-34.62 29.33-26.67 18.17-35.32 6.5-42.68 15.5-29.34 23 0 23-20 20-15.33 20-15.33c8-16 10.16-.67 10.16-.67s-6.83 17.28 6.5 24.66-5.33-18.67 11.33-30 25.54 18 32.77 46c2.81 10.9 8.55 9.85 11.87 6.66-13.15 49.88 5.07 22.54 13.36 45.34 10.67 29.33-9.33 68-12.76 91s-5.91 41-12.48 64.32-5.43 31.33 0 47-18.75 48.3-18.75 51.68-4.67 16.67-28.19 30.47 2.85 11.53 7.85 11.87-7 16.33-18.33 21.66-4.67 2-11.26 15.12 7.26.21 18.09 0-.16 12.21-5.49 20.68-14 8.2-31.33 11.53S358.9 492 371.12 492s13.78-7.33 21.11-.67-8 17.33-31.33 18.67 0 13.33 10.22 27.33 23.78 18.67 23.78 34 3.33 18 25.33 34.66 7.83 14 7.83 14 3.5 11.33 8.17 23.33 4 6.67 19.43 10.67 11.9-10.67 17.9-20.67 8.67-18 13.33-24.67 0-12 .16-19.79c-2.26 5.47-5.25 15.98-14.15 15.68z"/>
                </g>
            </g>
            <g id="Right-Contents-slide2">
                <g id="liquid-3" data-name="liquid">
                    <path class="cls-5" d="M584.18 1182.92a26.57 26.57 0 0 0 26.15 25.5c37.81.62-61.78-105.26 102.06 4.63 2.11 1.41-6 90.64-10.67 116.59-1.73 8.05-7.28 12.94-13.48 15.91a36.59 36.59 0 0 1-31.91-.5s-18.56-8.26-35.73-16.64c-26-16.84-52.07-35.88-61.69-43.14-22.14-16.71-38.54-39.7-46.79-56-1-1.95-2-4-3.05-6.2l-4.35-9.34-58.07-143.83-1.68-4.15-1.76-4.32c-.61-1.73-.71-3.57-1-4.51-31.37-102.64 29.06-81.4 33.83-157.85 3.89-62.35-16.32-124.81-14.5-124.76 6.65.21 69 157.74 4 217.74-30.42 28.08 29.14 61.2 28 67-1.67 8.5-27.18-3.8 24.07 30a331 331 0 0 1 33.65 25.63 95.51 95.51 0 0 1 32.91 68.24zM714.33 1173.08a31 31 0 0 1 1.27 4.86q-.6-2.46-1.27-4.86z"/>
                </g>
                <path id="highlight-6" data-name="highlight" class="cls-3" d="M497.07 700.12c-1.7-15.45-.85-36.05-15.44 5.17-19.9 11-30.89 34.31-20.77 64A405.51 405.51 0 0 1 473.79 832c-2.3 16.61-1.76 40.37-3.88 62.54C461 909.89 456 934 448.46 943.32c-16.95 8.46-6.35 23-2.35 35.74-8.12 16.13-3.67 34.41 8.11 34.67.71 9.35-12.41 47.23.17 51.76 3.9 18.82 2 25.24 27.24 21.45 19.93 13.16 23.27-5.14 38.68 7.44 14.89 30.44 31.41 39.14 29.82 32.48 1.59 15.23 28.85 33 25.75 28.21 3.26 20.57 18.37 59.23 14.31 43.83 4.06 15.4 29.47 34.84 28.45 0 10.63-4 11.41-25.61 3-41.73 3.58 9.51 7.47 35.78-10.82-19.51-7.62-32.07-16.53-71.89-27.71-70.23-3.94 16.19-2.19 23.33-2.74 22.76 5.17 13.63 13.57 23.8 10.15 26.83a19.54 19.54 0 0 0-6.32 9.61c-3.08 12-6.82 13.37-15.53-15.39-5-14.78-2.22-8.49-7.41-33.83-.64-9.58-14.85-48.8-22.37-46.55-5.74 12.26-11.84 15.61-6.53 22.64 6.28 19.83 19.41 23.24.9 21.24-16.73 13.77-24.32 15.22-35.7-12.33-11.89-12.22 14.93.49 4-22.77-13.72-12.17-21.16-11.62-20-25.87-4.11-6.35-7.51 25.28 0-18.75 2.21-38.46-11.66-56.94-7.19-80.18-1.72-27.58-.57-5.23 4.53-37.69-.54-41.46 28.77-65.43 22.63-79.36-9-32.76 5.45-32.07-9.05-36.21-10-9.74-25.74-3.24-15-24.48 11-24.94 17.84-20.14 26-23.38 5.63-32.49 4.94-45.53-6.41-13.6z"/>
                <path id="highlight-7" data-name="highlight" class="cls-5" d="M601.53 1213.28c-30.55-.35-21.26-88.27-50.61-76.79s-18.64-31.27-44-30.05-51.71-19.75-61.94-34.18c-1.34-1.89-50.06-128.89-41.5-129.15 80.84-2.49 34.71-68.22 38.4-134.55 24.76-445.1 55.18 258.59 70.88 262.3s-2.26-43.27 31.18-1.3c8 10 46.11 56 46.11 56s99.5 88.72 11.48 87.72z"/>
                <g id="Bubbles-4" data-name="Bubbles">
                    <circle class="cls-6" cx="562.85" cy="1245.26" r="4.32" transform="rotate(-25 562.848 1245.248)"/>
                    <circle class="cls-6" cx="542.2" cy="1202.88" r="4.32" transform="rotate(-25 542.19 1202.88)"/>
                    <circle class="cls-6" cx="555.24" cy="1218.39" r="4.32" transform="rotate(-25 555.245 1218.386)"/>
                    <circle class="cls-6" cx="578.08" cy="1216.11" r="2.83" transform="rotate(-25 578.086 1216.114)"/>
                    <circle class="cls-6" cx="506.78" cy="1124.06" r="2.83" transform="rotate(-25 506.778 1124.067)"/>
                    <circle class="cls-6" cx="520.18" cy="1177.94" r="2.83" transform="rotate(-25 520.178 1177.934)"/>
                    <circle class="cls-6" cx="526.08" cy="1198.56" r="2.83" transform="rotate(-25 526.09 1198.553)"/>
                    <circle class="cls-6" cx="583.13" cy="1243.92" r="5.05" transform="rotate(-25 583.136 1243.925)"/>
                    <circle class="cls-6" cx="526.08" cy="1156.35" r="5.05" transform="rotate(-25 526.073 1156.36)"/>
                    <circle class="cls-6" cx="501.73" cy="1140.7" r="5.05" transform="rotate(-25 501.72 1140.692)"/>
                    <circle class="cls-6" cx="539.32" cy="1175.12" r="5.05" transform="rotate(-25 539.332 1175.106)"/>
                    <circle class="cls-6" cx="592.33" cy="1270.64" r="9.2" transform="rotate(-25 592.333 1270.643)"/>
                </g>
                <g id="Bubbles-5" data-name="Bubbles">
                    <circle class="cls-6" cx="622.15" cy="1249.38" r="2.95" transform="rotate(-25 622.152 1249.38)"/>
                    <circle class="cls-6" cx="636.24" cy="1278.3" r="2.95" transform="rotate(-25 636.233 1278.293)"/>
                    <circle class="cls-6" cx="627.34" cy="1267.71" r="2.95" transform="rotate(-25 627.34 1267.709)"/>
                    <circle class="cls-6" cx="611.76" cy="1269.27" r="1.93" transform="rotate(-25 611.756 1269.27)"/>
                    <circle class="cls-6" cx="650.65" cy="1297.96" r="1.93" transform="rotate(-25 650.66 1297.96)"/>
                    <circle class="cls-6" cx="636.48" cy="1291.93" r="1.93" transform="rotate(-25 636.476 1291.93)"/>
                    <circle class="cls-6" cx="647.25" cy="1281.25" r="1.93" transform="rotate(-25 647.242 1281.255)"/>
                    <circle class="cls-6" cx="608.31" cy="1250.29" r="3.45" transform="rotate(-25 608.299 1250.284)"/>
                    <circle class="cls-6" cx="632.45" cy="1306.67" r="3.45" transform="rotate(-25 632.45 1306.677)"/>
                    <circle class="cls-6" cx="649.07" cy="1317.35" r="3.45" transform="rotate(-25 649.062 1317.34)"/>
                    <circle class="cls-6" cx="623.41" cy="1293.86" r="3.45" transform="rotate(-25 623.412 1293.86)"/>
                    <circle class="cls-6" cx="602.03" cy="1232.05" r="6.28" transform="rotate(-25 602.025 1232.046)"/>
                </g>
            </g>
            <g id="WineGlass-2" data-name="WineGlass">
                <g class="cls-7">
                    <path class="cls-2" d="M447.58 1760.91a13 13 0 0 1 8.75-11.23l74.39-25.52a51.55 51.55 0 0 0 34.82-48.76v-284.5a152.79 152.79 0 0 0-17-70.13l-66.2-128.14a131.39 131.39 0 0 1-14.38-68.85l18.74-287.56c.56-5.69.3-9.19.77-11.34 0 1.6 1 3.26 3 4.93 8.6 7.21 47.21 9.73 83.93 9.73 3.63 0 7.23 0 10.79-.07 39-.52 83.59-4 89.29-10.29a2.72 2.72 0 0 0 .76-1.8c1.13 12.32 20 296.4 20 296.4a131.39 131.39 0 0 1-14.38 68.85l-66.2 128.14a152.79 152.79 0 0 0-17 70.13v284.49a51.55 51.55 0 0 0 34.82 48.76l74.39 25.52a13 13 0 0 1 8.75 11.23 6.26 6.26 0 0 1-.08 1.29c-3 10-61.76 18-133.87 18-72.3 0-131.22-8-133.89-18a4.83 4.83 0 0 1-.2-1.28z"/>
                </g>
                <path class="cls-8" d="M490.42 829.81c-2.58-2.16-3.51-4.29-2.78-6.32 4.59-12.74 84.18-13.16 94.73-13.16h.32c3.18.06 78.14 1.7 91.51 14.93a2.64 2.64 0 0 1 .23 3.93c-5.7 6.33-50.28 9.77-89.29 10.29-3.56 0-7.17.07-10.79.07-36.72-.01-75.35-2.55-83.93-9.74zm-.91-5.64c-.42 1.16.32 2.54 2.18 4.1 7.44 6.24 44.11 9.85 93.43 9.2 45.68-.6 83.44-4.75 87.84-9.63.3-.33.44-.58-.15-1.16-12.81-12.68-88.9-14.33-90.15-14.36-35.74-.05-90 3.1-93.15 11.85z"/>
                <path class="cls-9" d="M575.4 1706.25l-1.54.23a44.73 44.73 0 0 0-13.48 4.69s13-9.07 14.36-36.52l-2.54-316.44-6-15.4s13.83 11.3 29.5 1.57l-5.57 12.28v324.31c.33 7.16-1.76 14.47 8.57 24.92 1.71 1.73 6.62 7.1 6.62 7.1a45.7 45.7 0 0 0-29.92-6.74zM671.86 1747.62c3.29 1.25 16.67 4.71 18.66 8.47l-83.22-12.44a184.06 184.06 0 0 0-49-.73l-78.51 9.35c4.46-2.13 10.71-3.81 12.9-4.64l44.9-15.17a126.15 126.15 0 0 0 20.62-9.11l.3-.16 7.55 3.35a46.07 46.07 0 0 0 34.1 1.31l8.11-2.88a125.92 125.92 0 0 0 24.6 10.62z"/>
                <path class="cls-10" d="M447.58 1760.91a4.83 4.83 0 0 0 .06 1.21c2.67 10 61.59 18 133.89 18 72.11 0 130.9-8 133.87-18a6.26 6.26 0 0 0 .08-1.29l-.15-1a12.32 12.32 0 0 0-2.33-5.57l-.64-.86c0 .16-5.16 19.26-131.28 19.26-70.64 0-128.65-8.08-131.27-18.11a12.51 12.51 0 0 0-1.57 3.12 16.18 16.18 0 0 0-.66 3.24z"/>
                <path class="cls-11" d="M710.49 1755.85c-4.43-4-20.58-7.34-24.15-8.69l-45.61-14.08a148 148 0 0 1-34.34-15.68l-1.07-.66a45.33 45.33 0 0 0-29.92-6.8l-1.54.23a44.82 44.82 0 0 0-14.17 5.1l-6.31 3.49a147.58 147.58 0 0 1-24.13 10.65l-52.53 17.75c-4 1.52-24.12 4.91-25.68 9.43 9.08 9.1 64.05 16.15 130 16.15 98.96 0 123.48-11.74 129.45-16.89zm-19.72 1a5.48 5.48 0 0 1-.06 1c-2.12 7.91-67.8 11.59-119.39 11.59s-94.42-4.07-96.33-12a4.23 4.23 0 0 1 0-1c.3-4 14.24-7.56 17.75-8.9l44.9-15.17a126.15 126.15 0 0 0 20.62-9.11l5.4-3a38.31 38.31 0 0 1 12.11-4.36l1.31-.2a38.74 38.74 0 0 1 25.57 5.81l.91.57a126.52 126.52 0 0 0 29.35 13.4l39 12c3.47 1.52 18.55 5.35 18.85 9.4z"/>
                <path class="cls-9" d="M560.38 1711.17a44.73 44.73 0 0 1 13.48-4.69l1.54-.23a45.7 45.7 0 0 1 29.92 6.73s-4.91-5.37-6.62-7.1c-10.33-10.45-8.24-17.76-8.57-24.92V1357.2v-.55l5.57-12.28a15.22 15.22 0 0 0-9.81 14l-3 181.14 2.11 149.65a12.77 12.77 0 0 1-10 12.63c-4.43.97-9.65 3.51-14.62 9.38zM564.32 1330.92l-20.48-38.73 6-12a219 219 0 0 0 15.73 20.49 15.68 15.68 0 0 0 3.75 3l7 36.86a19.93 19.93 0 0 1-12-9.62z"/>
                <path class="cls-9" d="M493.06 1196.19c1.24-2.37 24.85 34.27 34.26 49.1a82.6 82.6 0 0 0 8.12 10.7c21.66 24.28 25.36 40.26 46.8 39.73 20.34-.5 34-4.49 83.26-101.6 19.4-34.7 5 4 5 4s-63.17 117.24-71 132.38c-3.42 6.64-8 10.8-15.51 10.8h-2.22a19.94 19.94 0 0 1-17.5-10.4z"/>
                <path class="cls-3" d="M661.53 1142s1.67 48-45 118.51c0 0 14.17-23.15 22.5-56.85 9.07-36.65 12.37-83.31 12.74-61.94.3 17.22 9.76.28 9.76.28z"/>
                <path class="cls-9" d="M560.38 1286.72c5.85 6 12 9.26 21.85 9s18-1.3 29.37-13.09c0 0 26.76-18-11.23 46.27l-.83 1.6c-3.42 6.64-8 10.8-15.51 10.8h-2.22a19.94 19.94 0 0 1-17.5-10.4l-1.62-3.07s-40.69-72.68-2.31-41.11z"/>
                <path class="cls-11" d="M667.53 1124c-1.06-44.73-10.31-242.18-12.53-289 3.92-.58 7.4-1.22 10.34-1.92l11.83 293.79c1.1 23.09-7 44.6-17.41 65.43l-13.83 23.7s22.66-47.12 21.6-92z"/>
                <path class="cls-3" d="M646.94 836l11.74 291.5c-1.69 21.28-4.36.44-4.82-4.53-4.33-46.66-10.15-235.34-12.41-286.38 1.88-.17 3.71-.37 5.49-.59z"/>
                <path class="cls-9" d="M472 1122.71c2.4-37 14.7-252.73 17.16-294.07.07.06.65.65.72.71a9.94 9.94 0 0 0 2 1.46c-.68 19.65-3.87 88.44-5.18 114.39-2.24 44.2-9.65 134-8.25 176.58.6 18.23 5.75 46 18.75 70.5 9.33 17.58 45.78 83.24 68.33 108.42 7.85 8.76 29.12 8.69 36.67-.33 13.78-16.48 43.57-69.1 64.62-108.67a133.56 133.56 0 0 0 15.51-68.43l-11.58-291.74a17.79 17.79 0 0 0 2.35-1l2.51 51.21 11.92 231.69s4 46-13.33 78c-14.13 26.09-59.27 109.32-74.66 139.2-3.42 6.64-8 10.8-15.51 10.8h-2.22a19.94 19.94 0 0 1-17.5-10.4l-72.79-137.6s-22.15-29.72-19.52-70.72z"/>
                <path class="cls-11" d="M485.68 1080.94l14.64-247c2.34.57 4.91 1.15 7.77 1.62l-13.89 243.93c-.66 7.67 2.38 70.84 11.52 90.94l46 101.19-39.33-68.67c-11.68-19.55-20.68-39.64-25-62l-.64-3.32c-3.13-16.2-2.08-40.23-1.07-56.69z"/>
                <path class="cls-5" d="M582.66 812.32c1.25 0 77.37 1.72 90.15 14.36.59.58.45.83.15 1.16-4.4 4.89-42.16 9-87.84 9.63-49.32.65-86-3-93.43-9.2-1.87-1.57-2.6-2.95-2.18-4.1 3.15-8.75 57.41-11.9 93.15-11.85z"/>
                <path class="cls-5" d="M665.34 831c-2.81.69-6.29 1.35-10.35 2l-.4-13.57a80.75 80.75 0 0 1 10.75 3.1zM673 827.84a7.58 7.58 0 0 1-2.67 1.59v-4.61a13.5 13.5 0 0 1 2.47 1.87c.6.57.46.81.2 1.15zM508.37 833.59c-3-.51-5.68-1.07-8-1.67l.49-13.42c2.52-.61 5.39-1.18 8.53-1.69zM492.79 821.23l-.68 7.34c-.14-.1-.29-.2-.41-.3-1.87-1.57-2.6-2.95-2.18-4.1s1.48-2.04 3.27-2.94z"/>
                <g id="Right-Contents-slide1">
                    <g id="Liquid-4" data-name="Liquid">
                        <path class="cls-5" d="M682.33 1123.28a133.56 133.56 0 0 1-15.51 68.43c-18.5 34.77-43.74 79.61-58.94 101.16-5 6.57-12.07 8.65-18.94 8.72a36.59 36.59 0 0 1-28.71-13.94s-13.33-15.33-25.35-30.18c-16.43-26.24-32-54.52-37.68-65.17-13-24.5-18.15-52.27-18.75-70.5-.07-2.18-.12-4.49-.15-6.91v-10.3l8.16-154.9c.08-1.54.16-3 .24-4.47s.15-3 .23-4.66a12.58 12.58 0 0 1 1-4.51c1.94-3.08 21.83 2.71 25.46 4.54 9.37 4.74 22.67 22 35.33 32s18 14.67 67.8-5.33c44.39-17.82 57.9 11.38 60.32 17.94zM685.47 1156.31a31 31 0 0 1-.91 4.94q.5-2.49.91-4.94z"/>
                    </g>
                    <path id="highlight-8" data-name="highlight" class="cls-5" d="M645.93 1018.25c-30.54-1-30.13-16.5-61.58-18.5s-32.45 12.23-56 2.61-38.51-39.75-41.69-57.15c-.42-2.28 0-7.25 1.24-9.17 1.94-3.08 21.83 2.71 25.46 4.54 9.37 4.74 22.67 22 35.33 32s18 14.67 67.8-5.33 60.74 19.21 60.74 19.21-.76 32.79-31.3 31.79z"/>
                    <g id="Bubbles-6" data-name="Bubbles">
                        <circle class="cls-6" cx="625.08" cy="1046.24" r="4.32"/>
                        <circle class="cls-6" cx="557.73" cy="1069.64" r="4.32"/>
                        <circle class="cls-6" cx="591.75" cy="1179.68" r="4.32"/>
                        <circle class="cls-6" cx="641.86" cy="1091.55" r="2.83"/>
                        <circle class="cls-6" cx="578.7" cy="1043.79" r="2.83"/>
                        <circle class="cls-6" cx="543.84" cy="1153.76" r="2.83"/>
                        <circle class="cls-6" cx="620.76" cy="1153.76" r="2.83"/>
                        <circle class="cls-6" cx="601.12" cy="1098.52" r="5.05"/>
                        <circle class="cls-6" cx="538.78" cy="1098.52" r="5.05"/>
                        <circle class="cls-6" cx="528.67" cy="1050.55" r="5.05"/>
                        <circle class="cls-6" cx="573.65" cy="1129.2" r="5.05"/>
                        <circle class="cls-6" cx="551.72" cy="1201.59" r="9.2"/>
                    </g>
                </g>
            </g>
        </g>
        <g id="Droplets-slide3">
            <path id="droplet" class="cls-13" d="M105.39 436.28c-.33 5-4.39 8.37-9.06 7.44s-8.2-5.77-7.87-10.81 4.39-8.37 9.06-7.44 8.2 5.77 7.87 10.81z"/>
            <path id="droplet-2" data-name="droplet" class="cls-13" d="M126.85 465.72c-.33 5-4.39 8.37-9.06 7.44s-8.2-5.77-7.87-10.81 4.39-8.37 9.06-7.44 8.2 5.78 7.87 10.81z"/>
            <path id="droplet-3" data-name="droplet" class="cls-3" d="M93.91 480.88a3.8 3.8 0 0 1-4.53 3.72 5.21 5.21 0 0 1-3.94-5.4 3.8 3.8 0 0 1 4.56-3.73 5.21 5.21 0 0 1 3.91 5.41z"/>
            <path id="droplet-4" data-name="droplet" class="cls-3" d="M76 430.44a3.8 3.8 0 0 1-4.53 3.72 5.21 5.21 0 0 1-3.94-5.4A3.8 3.8 0 0 1 72.1 425a5.21 5.21 0 0 1 3.9 5.44z"/>
            <circle id="droplet-5" data-name="droplet" class="cls-2" cx="246.75" cy="315.72" r="10.01"/>
            <circle id="droplet-6" data-name="droplet" class="cls-2" cx="239.98" cy="232.27" r="6.24"/>
            <circle id="droplet-7" data-name="droplet" class="cls-2" cx="254.98" cy="277.48" r="8.77"/>
            <circle id="droplet-8" data-name="droplet" class="cls-2" cx="286.66" cy="424.96" r="15.24"/>
            <circle id="droplet-9" data-name="droplet" class="cls-2" cx="150.48" cy="308.71" r="4.48" transform="rotate(-18.32 150.517 308.754)"/>
            <circle id="droplet-10" data-name="droplet" class="cls-2" cx="225.62" cy="169.41" r="13.41"/>
            <circle id="droplet-11" data-name="droplet" class="cls-2" cx="351.9" cy="308.71" r="9"/>
            <circle id="droplet-12" data-name="droplet" class="cls-2" cx="347.4" cy="255.21" r="4.5"/>
            <circle id="droplet-13" data-name="droplet" class="cls-2" cx="416.56" cy="304.22" r="11.5"/>
            <circle id="droplet-14" data-name="droplet" class="cls-2" cx="323.9" cy="467.18" r="2.75"/>
            <circle id="droplet-15" data-name="droplet" class="cls-2" cx="274.16" cy="393.11" r="2.75"/>
            <circle id="droplet-16" data-name="droplet" class="cls-2" cx="214.97" cy="207.15" r="2.75"/>
            <circle id="droplet-17" data-name="droplet" class="cls-2" cx="523.38" cy="435.77" r="6.24"/>
            <circle id="droplet-18" data-name="droplet" class="cls-2" cx="498.37" cy="410.65" r="2.75"/>
            <circle id="droplet-19" data-name="droplet" class="cls-2" cx="230.74" cy="766.69" r="6.24"/>
            <circle id="droplet-20" data-name="droplet" class="cls-2" cx="263.43" cy="784.58" r="2.75"/>
            <circle id="droplet-21" data-name="droplet" class="cls-2" cx="143.26" cy="273.59" r="2.75"/>
            <circle id="droplet-22" data-name="droplet" class="cls-2" cx="520.24" cy="778.87" r="7.62"/>
            <circle id="droplet-23" data-name="droplet" class="cls-2" cx="500.26" cy="834.38" r="4.48"/>
            <circle id="droplet-24" data-name="droplet" class="cls-2" cx="553.05" cy="796.1" r="7.52"/>
            <circle id="droplet-25" data-name="droplet" class="cls-2" cx="522.99" cy="813.74" r="2.75"/>
            <circle id="droplet-26" data-name="droplet" class="cls-2" cx="495.22" cy="813.74" r="2.75"/>
            <circle id="droplet-27" data-name="droplet" class="cls-2" cx="193.2" cy="283.96" r="6.48"/>
            <circle id="droplet-28" data-name="droplet" class="cls-2" cx="212.22" cy="731.88" r="10.01"/>
            <circle id="droplet-29" data-name="droplet" class="cls-2" cx="461.9" cy="467.18" r="6.24"/>
            <circle id="droplet-30" data-name="droplet" class="cls-2" cx="345.17" cy="580.16" r="8.77"/>
            <circle id="droplet-31" data-name="droplet" class="cls-2" cx="224.27" cy="539.46" r="6.48"/>
            <circle id="droplet-32" data-name="droplet" class="cls-2" cx="176.56" cy="246.34" r="7.62"/>
            <circle id="droplet-33" data-name="droplet" class="cls-13" cx="369.71" cy="375.73" r="9.47" transform="rotate(-25 369.713 375.727)"/>
            <circle id="droplet-34" data-name="droplet" class="cls-13" cx="404" cy="388.2" r="9.47" transform="rotate(-25 404.001 388.203)"/>
            <circle id="droplet-35" data-name="droplet" class="cls-3" cx="385.72" cy="421.25" r="4.73" transform="rotate(-25 385.72 421.252)"/>
            <circle id="droplet-36" data-name="droplet" class="cls-3" cx="344.26" cy="387.6" r="4.73" transform="rotate(-25 344.271 387.597)"/>
        </g>
        <g id="Droplets-slide2">
            <circle class="cls-5" cx="518.25" cy="790.28" r="3.06"/>
            <circle class="cls-3" cx="508.46" cy="825.53" r="3.23"/>
            <circle class="cls-14" cx="542.81" cy="800.56" r="3.23"/>
            <circle class="cls-14" cx="515.7" cy="743.46" r="2.45"/>
            <circle class="cls-14" cx="528.49" cy="725.84" r="4.57"/>
            <circle class="cls-14" cx="461.83" cy="790.28" r="4.57"/>
            <circle class="cls-5" cx="541.14" cy="751.75" r="2.17"/>
            <circle class="cls-3" cx="548.66" cy="770.36" r="3.23"/>
            <circle class="cls-5" cx="357.89" cy="825.53" r="5.61" transform="rotate(-45 357.894 825.526)"/>
            <circle class="cls-5" cx="433.24" cy="814.3" r="5.61" transform="rotate(-45 433.237 814.307)"/>
            <circle class="cls-3" cx="411.18" cy="857.05" r="5.92" transform="rotate(-45 411.174 857.056)"/>
            <circle class="cls-3" cx="447.7" cy="879.31" r="5.92" transform="rotate(-45 447.692 879.31)"/>
            <circle class="cls-14" cx="423.34" cy="780.14" r="5.92" transform="rotate(-45 423.334 780.14)"/>
            <circle class="cls-14" cx="330.67" cy="741.26" r="4.49" transform="rotate(-45 330.67 741.262)"/>
            <circle class="cls-14" cx="357.89" cy="770.36" r="8.38" transform="rotate(-45 357.892 770.356)"/>
            <circle class="cls-14" cx="488.09" cy="719.02" r="8.38" transform="rotate(-45 488.09 719.026)"/>
            <circle class="cls-5" cx="357.89" cy="719.02" r="3.98" transform="rotate(-45 357.887 719.018)"/>
            <circle class="cls-3" cx="391.76" cy="733.41" r="5.92" transform="rotate(-45 391.766 733.405)"/>
            <circle class="cls-3" cx="461.83" cy="838.85" r="5.92" transform="rotate(-45 461.822 838.847)"/>
            <circle class="cls-3" cx="447.7" cy="749.58" r="5.92" transform="rotate(-45 447.7 749.587)"/>
        </g>
    </g>
</svg>
