<svg xmlns="http://www.w3.org/2000/svg" viewBox="0 0 352.9 460.23"><title>Party Popper</title><path d="M77.18 334.81a7 7 0 1 0 8.69 4.82 7 7 0 0 0-8.69-4.82zM117 346.28a7 7 0 1 0-8.69-4.82 7 7 0 0 0 8.69 4.82zm1.53 27.84a7 7 0 1 0-3.89 9.12 7.05 7.05 0 0 0 3.89-9.12zM67.79 376a7 7 0 1 0 9.14 3.89 7 7 0 0 0-9.14-3.89zm52.77 29.21a7 7 0 1 0 9.14 3.9 7 7 0 0 0-9.14-3.9zm45.99 41.5a7 7 0 1 0 9.14 3.89 7 7 0 0 0-9.14-3.89zm46.11-13.14a7 7 0 1 0 9.14 3.89 7 7 0 0 0-9.14-3.89zm27.2-35.22a7 7 0 1 0 9.14 3.89 7 7 0 0 0-9.14-3.89zm41.61 16.43a7 7 0 1 0 5.27 8.41 7 7 0 0 0-5.27-8.41zM34.78 363a7 7 0 1 0 5.27 8.41 7 7 0 0 0-5.27-8.41zm311.9-30.6a7 7 0 1 0 6.18 7.77 7 7 0 0 0-6.18-7.77z"/><path d="M333.69 367.32c-6.48 1.14-13.79 5.79-21.4 8.2-11.58 3.66-22.52 3.73-3.37-13.74s24.72-21.36 12.67-34.7-36.2 8.91-48 20.14-18.2 3.11-10.19-6c8.41-9.62 26.41-23.92 27.89-34.88a14.21 14.21 0 0 0-3.67-12 25.43 25.43 0 0 0 5.83-7.06 27.89 27.89 0 0 0 3-8.69c7.33-41.1 34.85-255.43-4.25-277.11-31-17.19-125.5 125.4-161.34 190.07-7.51 13.55-12.45 23.68-13.69 28.2-3.77 13.77 3.15 25.76 12.64 35.22a54.69 54.69 0 0 0 3.39 7.92c7.67 14.78-4 15.24-5.93 11.17-5.78-12.28-10.12-20.43-22.12-35.54-21-26.44-35.8 9.75-24.87 28.84 8.53 14.9 22.74 26.08 13.82 32.87-9.23 7-3.08-6.21-25.12-21.71-12.85-9-18.9-3.46-21.71 2.76A22.42 22.42 0 0 0 46 295.11c1.5 7.1 4.18 20.47 4.48 26.82.75 16.09 9.88 11.74 10.42-1.84.26-6.56-2.76-14.69-3.5-22.64-1.15-12.09 1.1-22.77 14.15-.32s15.66 28.72 31.27 19.87-1.07-37.23-9.58-51.12.79-18.43 8.06-8.64c7.64 10.28 17.83 30.93 28.24 34.73 13.84 5.06 23.67-9.74 21.18-21.19 1.82 1.1 3.55 2.1 5.07 3 5.9 3.29 12.08 6.41 18.42 9.29-1.72 2.08-3.44 4.12-5.18 5.92-14.88 15.51-9.55 27.57 14.53 27.63 16.66 0 11.72 10.61 7.21 10.42-13.56-.55-22.79-.48-41.72 3.18-33.13 6.4-7.72 36.25 14.26 35.38 17.15-.68 33.6-8.09 35.56 2.95 2 11.43-6.93-.14-30.81 12.22s-.37 26.88-.37 26.88 22.41 5.95 30.5 9.68c14.65 6.76 15-3.33 3.13-10.09-5.72-3.26-14.32-4.35-21.74-7.36-11.28-4.57-19.74-11.5 6.2-12.69s32.73-.61 32-18.55-33.6-16.26-49.85-15.14-16-9.22-4-11.14c12.64-2 35.67-1.51 43.81-9 12.63-11.58-1.2-30.83-14.9-29s-3-11.14-3-11.14l2.44-2.67a218.39 218.39 0 0 0 40.85 11.12c.55 17.39 11.88 21.29 28.91 7.2 12.82-10.6 15.79.7 12.21 3.43-10.76 8.23-17.8 14.18-30 29.08-21.33 26.08 17.27 32.86 33.59 18.18 12.75-11.56 20.63-27.77 29.16-20.51 8.87 7.52-5.4 4.32-15.82 29.08s16.92 21 16.92 21 21-9.72 29.61-12c15.61-4.13 9.38-12.13-4.02-9.81zm-203.4-127.54a10.29 10.29 0 0 0-1.76 4.6c-4.72-6.85-7-14.41-4.75-22.55.41-1.48 1.73-5.48 12.37-24.67l.52-.93c19-34.28 50.2-85.23 81.67-126.14C271 1.63 287.06 5.27 289.79 6.78c31.37 17.4 13.4 203.21 1.32 271a21.88 21.88 0 0 1-2.47 6.85 19.94 19.94 0 0 1-5.58 6.21 20.58 20.58 0 0 0-8.53-2.29c21.73-12.5-6.29-50.19-89.29-70.79-48.24-11.98-68.35 1.89-54.95 22.02zm132.43 52.37a13.14 13.14 0 0 0-1.41 1.26c-5.1 5.51-7.24 2.82-8.13-.76a67.34 67.34 0 0 0 9.54-.5zm-118-20.26c0 12-7 18.93-14.55 13.08-5.93-4.59-24.87-36.33-31.2-43.13s-16.33 6.46-16.33 6.46 1.33-12.33 9.67-14 24.33 23.2 30.57 35.58c9.09 18 17.34 11.25 17.09-4.25-.15-9.38-3.84-17.5-3.81-21a8.32 8.32 0 0 1 4.81-7.49c9.66-4.51 28.82-12.62 1.75 7.7-5.64 4.32 2.04 11.05 2.04 27.05zm13.77-3c-4-2.26-8.12-4.77-12-7.49-.45-2.31 1.07-3.29 3.15-3.59a182 182 0 0 0 31.4 16.47c-1.06 1.44-2.17 2.83-3.27 4.25-6.49-2.97-12.95-6.17-19.23-9.68zm20.23 27.56c-1.52 2.67 0 11.19 11.5 10.06 13-1.27 22.17 6.85 16.92 22.17-4.74 13.82-48.1 10.63-18.73 7 17.5-2.16 19.6-13 12-20.19-4.78-4.54-20.42-4.93-25.94-6.65-10.71-3.33-5.44-9.33-1.67-18.67 3.44-8.52 19.33-26.92 19.33-26.92 20.8-19.77-8.88 25.3-13.37 33.17zm54.47-.48A197.77 197.77 0 0 1 195 285.6c1-1.74 2.76-3.51 3.82-5.29l2.65.61c6.19 2.22 6 3 13.08 5.08 6.81 2 13 3.43 18.83 4.5.02 1.86-.04 3.67-.15 5.44zM247 361.14c-17-10.75 19.26-36 27.75-46.75 14-17.86-4.75-20-21.59-4-17.55 16.72-15.91-31.9-15.91-31.9s15.25-27.35 12.25 7.65c-2.12 24.69.24 23.95 6.44 17.59 4.2-4.31 14.95-9.45 20.56-7.29 26 10-15.46 34.26-24.12 43-3.32 3.36-9.23 14.4 4.13 18.41s30.41-15 30.41-15S264 371.89 247 361.14z"/><path d="M290 241.85l4.68-44.85a289.47 289.47 0 0 0-33.37-40.53 276.46 276.46 0 0 1 30 25.19l3.33-28.9c-.77-8.7-5.82-16.67-13.12-23.8 6.69 3.5 12.66 5.95 15.79 5.58 9.82-1.14-2.67-38.21-2.67-38.21l-36.69-28.55 39.5 18.1-7.63-10.31c3.39 3.38 8.42 4.06 7.52-23.39-1.33-40.8-10.43-39.86-10.43-39.86C270 7 237.87 52.18 237.87 52.18L208.26 91l-27.21 38-39 63.6S238 179.39 290 241.85zM35.8 331.21a7 7 0 1 0-8.41 5.24 7 7 0 0 0 8.41-5.24zm1.75-87.84a7 7 0 1 0 5.27 8.41 7 7 0 0 0-5.27-8.41zm36.54-20a7 7 0 1 0-5.27-8.42 7 7 0 0 0 5.27 8.42zM8.59 284a7 7 0 1 0 5.27 8.41A7 7 0 0 0 8.59 284z"/></svg>
