<svg xmlns="http://www.w3.org/2000/svg" viewBox="0 0 805.68 841.77"><title>tree</title><g id="Layer_2" data-name="Layer 2"><g id="Layer_1-2" data-name="Layer 1"><path d="M641.76,678.43c-40.62-46.94-109.5-83.56-193.26-93.55l2.69-141.29,180.48,82.79,9.86-130.48L524.74,330.66,656,233.46v-39.2H541.19l-131,72.13L305.1,194.25H165.69l-23.49,31.48L222,320.68l-26.59,9.52-35.6,114.08-5.25,110.49L362.19,464.3,361,583.86C272.92,592.24,205.21,635,158,679c-33,30.71-32.25,75.3-32.25,75.3,0,116.67,548.55,116.67,548.55,0,0,0-3.8-39.05-16.49-57.35C654.28,691.89,645.76,683.05,641.76,678.43Zm81.63-73.06M445.15,445.93,435.48,708a81.66,81.66,0,0,0-12.93,6.32c-8.53,5.25-21.6,5.11-30-.37h0c-5.39-3.52-15.74-6.72-15.9-6.7l-1.78-243V378l-15.82,72.86.15.06H359v-.06l-6.38-2.53-6,.09,4.52-46.32-15,49.24-15.93,7.16,6.63-52.22-18.39,57.49-12,5.62L305.64,413l-21.41,62.11-10.8,5.09L282,427.94l-33.24,63.91-9.35,4.39,11.36-53.88-36.73,65.83-10.33,4.88-12.37,4.78,24.71-61-44.6,70,3.28-69.3a266.87,266.87,0,0,1,9.06-31.24c3.77-10.36,9.49-30.1,14.48-48.21q5.4-19.54,10.52-39.15l23.52-9.5,73.32,2.43-74.79-19.71-9.09-16.71,83.88,14.3L186.7,258l34.43.56-66.61-35.11,0,0L169.9,205l122.6,5.86,102.69,80.53,12.48,8.54,13-9,127.09-73.34h84.81v4L531,265.24l16.63,19.86-58.82,10.27,22.81,16.45-91.49,17.83,62.4,3.64L514.06,351,617,409l-5.27,69.79-36.84-36,34.83,47.72-33.54-15.38-53.55-47.18,22.16,32.76-28.34-13L463,388.2l26.28,47L461,422.3l-8.46-3.87L444,380.11l1.17,45.57Z"/><path class="sunny" d="M402.46,806.44c-6.86,0-13.8-.17-20.65-.52h0c-1.57-.08-3.26-.18-5.14-.3a403.26,403.26,0,0,1-54.09-7.11,14.89,14.89,0,1,1,5.87-29.19,374.53,374.53,0,0,0,50.1,6.58c1.62.11,3.22.2,4.76.28,6.34.32,12.8.48,19.19.48a378.36,378.36,0,0,0,47.49-3h0a14.88,14.88,0,0,1,3.74,29.53A408.19,408.19,0,0,1,402.46,806.44ZM503.37,793.2a14.89,14.89,0,0,1-3.85-29.27,14.44,14.44,0,0,1,2.35-.43,15.22,15.22,0,0,1,2.24-.83,14.89,14.89,0,0,1,8.09,28.65h0a14.62,14.62,0,0,1-2.53.49,15.81,15.81,0,0,1-2.43.88A15,15,0,0,1,503.37,793.2ZM259,779.07v0a14.8,14.8,0,0,1-5.51-1.05,15.26,15.26,0,0,1-2.31-1.16,14.28,14.28,0,0,1-2.47-.78A14.89,14.89,0,1,1,260,748.55a15.47,15.47,0,0,1,2.13,1.09,16.57,16.57,0,0,1,2.29.7,14.88,14.88,0,0,1-5.5,28.72Zm314-11.95v0a14.89,14.89,0,0,1-6.56-28.26,374.87,374.87,0,0,0,43.75-25.22c1.41-.94,2.69-1.82,3.94-2.68a376.35,376.35,0,0,0,51.36-42.58,14.88,14.88,0,1,1,21,21.14,406.65,406.65,0,0,1-55.42,46l-4.26,2.89a403.94,403.94,0,0,1-47.25,27.23A14.62,14.62,0,0,1,573,767.12ZM207.23,753.88v0a14.93,14.93,0,0,1-7.48-2A405.74,405.74,0,0,1,141,710.2c-1.3-1.11-2.61-2.24-3.9-3.37a406.53,406.53,0,0,1-38.55-38.59A14.88,14.88,0,1,1,121,648.66a377.2,377.2,0,0,0,35.72,35.76c1.2,1.05,2.41,2.09,3.6,3.12h0l.11.1,0,0a376.33,376.33,0,0,0,54.27,38.47,14.89,14.89,0,0,1,5.37,20.35A15,15,0,0,1,207.23,753.88Zm503.42-99.49a14.73,14.73,0,0,1-9.05-3.08,14.91,14.91,0,0,1-2.75-20.87,16.19,16.19,0,0,1,1.61-1.79,17.31,17.31,0,0,1,1.28-2,14.89,14.89,0,1,1,23.85,17.83,14.48,14.48,0,0,1-1.73,1.93,14.85,14.85,0,0,1-13.21,8ZM69,617.23v0A14.91,14.91,0,0,1,56.21,610a14.62,14.62,0,0,1-1.12-2.31A14.89,14.89,0,0,1,59,585.2a14.89,14.89,0,0,1,20.35,5.4,15.72,15.72,0,0,1,1,2.14,16.22,16.22,0,0,1,1.39,2A14.89,14.89,0,0,1,69,617.23Zm681.07-25.82v0a14.89,14.89,0,0,1-13.31-21.55,372.63,372.63,0,0,0,19.45-46.65c.5-1.46,1-3,1.51-4.55a372.6,372.6,0,0,0,14.81-65v0a14.89,14.89,0,0,1,26.6-7,14.75,14.75,0,0,1,2.91,11,402.35,402.35,0,0,1-16,70.22c-.54,1.64-1.07,3.25-1.6,4.78l0,.13a401.17,401.17,0,0,1-21,50.39,14.79,14.79,0,0,1-5.59,6.07A15,15,0,0,1,750.07,591.41ZM43.23,565.89a14.84,14.84,0,0,1-13.76-9.23A400.3,400.3,0,0,1,8.14,487.87c-.37-1.73-.72-3.42-1-5.05A404.42,404.42,0,0,1,0,428.73,14.89,14.89,0,0,1,14,412.94l.94,0a14.9,14.9,0,0,1,14.85,14A376.41,376.41,0,0,0,36.28,477c.31,1.54.64,3.11,1,4.67A370.63,370.63,0,0,0,57,545.33a14.91,14.91,0,0,1-13.76,20.56ZM790.79,418.11a14.9,14.9,0,0,1-14.89-14.89c0-8.77-.31-17.64-.91-26.33-.1-1.51-.22-3.06-.36-4.76a372.81,372.81,0,0,0-11.39-65.71A14.89,14.89,0,1,1,792,298.74a402.43,402.43,0,0,1,12.3,71c.14,1.67.28,3.39.4,5.14.65,9.39,1,18.94,1,28.39A14.9,14.9,0,0,1,790.79,418.11ZM16.69,373.35a14.17,14.17,0,0,1-1.72-.1A14.88,14.88,0,0,1,1.89,356.77a15.21,15.21,0,0,1,.51-2.53,16.15,16.15,0,0,1,.11-2.59,14.9,14.9,0,0,1,14.75-13,15.33,15.33,0,0,1,1.91.12A14.89,14.89,0,0,1,32,355.42a15.3,15.3,0,0,1-.49,2.34,16.25,16.25,0,0,1-.09,2.4A14.88,14.88,0,0,1,16.69,373.35Zm10.76-56.47a15.09,15.09,0,0,1-3.87-.52,14.9,14.9,0,0,1-10.51-18.25A402.61,402.61,0,0,1,38,230.52c.69-1.46,1.43-3,2.25-4.65a403.21,403.21,0,0,1,27.3-47.26,14.89,14.89,0,1,1,24.71,16.6A374.8,374.8,0,0,0,67,239c-.68,1.41-1.39,2.86-2.07,4.31a371.6,371.6,0,0,0-23.07,62.59A14.91,14.91,0,0,1,27.45,316.89Zm733.17-49.12a14.87,14.87,0,0,1-13.73-9.12,15.21,15.21,0,0,1-.74-2.27,15.16,15.16,0,0,1-1.12-2.09,14.91,14.91,0,0,1,7.71-19.6,14.73,14.73,0,0,1,5.93-1.24,14.88,14.88,0,0,1,13.65,8.94,0,0,0,0,1,0,0,16,16,0,0,1,.82,2.44,14.93,14.93,0,0,1,1.25,13.67,14.91,14.91,0,0,1-13.77,9.27Zm-35.2-65.39v0A14.89,14.89,0,0,1,713,195.76a376.45,376.45,0,0,0-30.86-40L679,152.22A376.72,376.72,0,0,0,629.9,107,14.89,14.89,0,0,1,639,80.32a14.75,14.75,0,0,1,9.06,3.09,406.87,406.87,0,0,1,53,48.8c1.09,1.2,2.21,2.45,3.43,3.83l.11.13,0,0a405.88,405.88,0,0,1,33.18,43,14.88,14.88,0,0,1-12.36,23.16ZM123.56,147.89v0a14.89,14.89,0,0,1-10.7-25.24h0a15.07,15.07,0,0,1,2-1.7,13.69,13.69,0,0,1,1.66-2,14.88,14.88,0,1,1,21.11,21,14.21,14.21,0,0,1-1.82,1.56,15,15,0,0,1-1.53,1.86A14.76,14.76,0,0,1,123.56,147.89Zm43-38.23A14.89,14.89,0,0,1,157.44,83a404.64,404.64,0,0,1,60.83-38.53c1.53-.78,3.07-1.56,4.59-2.32a402.69,402.69,0,0,1,50.38-21,14.88,14.88,0,1,1,9.54,28.19,373.5,373.5,0,0,0-46.63,19.4h0l-.13.07c-1.31.65-2.65,1.33-4.1,2.07h0l-.19.1a374.76,374.76,0,0,0-56.15,35.58A14.71,14.71,0,0,1,166.51,109.66ZM595.24,80.94v0a14.85,14.85,0,0,1-7.38-2,13.75,13.75,0,0,1-2-1.36,15.2,15.2,0,0,1-2.17-1h0a14.89,14.89,0,0,1,14.47-26,0,0,0,0,1,0,0A14.88,14.88,0,0,1,600.3,52a15.81,15.81,0,0,1,2.35,1.09,14.88,14.88,0,0,1,5.52,20.31A14.93,14.93,0,0,1,595.24,80.94ZM527.52,50.36v0a14.64,14.64,0,0,1-4.79-.8,371.57,371.57,0,0,0-48.83-13c-1.49-.3-3.07-.59-4.68-.88a376.94,376.94,0,0,0-66.44-5.94,14.89,14.89,0,0,1,0-29.77,406.9,406.9,0,0,1,71.71,6.42c1.63.29,3.33.61,5.07.94a402.26,402.26,0,0,1,52.74,14,14.89,14.89,0,0,1-4.78,29ZM345.42,33.93a14.89,14.89,0,0,1-2.14-29.61,15,15,0,0,1,2.58-.16,15.48,15.48,0,0,1,2.52-.57,16.81,16.81,0,0,1,2-.13,14.93,14.93,0,0,1,14.74,12.91,14.89,14.89,0,0,1-12.77,16.73,14.94,14.94,0,0,1-2.39.13,15.85,15.85,0,0,1-2.33.54A14.78,14.78,0,0,1,345.42,33.93Z"/></g></g></svg>
