<svg xmlns="http://www.w3.org/2000/svg" viewBox="0 0 1216.03 1783.49"><defs><style>.cls-1,.cls-8{opacity:0.15;}.cls-10,.cls-12,.cls-2,.cls-4,.cls-6,.cls-7,.cls-8{fill:#fff;}.cls-3{fill:#fffafe;}.cls-3,.cls-5{opacity:0.5;}.cls-4{opacity:0.2;}.cls-5{fill:#fffdfd;}.cls-6{opacity:0.4;}.cls-7{opacity:0.3;}.cls-9{opacity:0.45;}.cls-10,.cls-11{opacity:0.6;}.cls-12{opacity:0.7;}</style></defs><title>WineGlass-s3</title><g id="Layer_2" data-name="Layer 2"><g id="HeartSpill"><g id="slide3"><g id="wineglassLeft"><g class="cls-1"><path class="cls-2" d="M243.31,1780.51a13,13,0,0,0-3.18-13.87l-56.63-54.57a51.55,51.55,0,0,1-11-58.9l120.23-257.83A152.79,152.79,0,0,1,337.86,1339L452,1250.82a131.39,131.39,0,0,0,42.13-56.32L598.7,926c1.9-5.39,3.61-8.45,4.09-10.6-.69,1.45-2.3,2.52-4.81,3.19-10.84,2.9-46.9-11.13-80.18-26.65q-4.93-2.3-9.75-4.63c-35.14-17-74.09-38.91-76.57-47.06a2.72,2.72,0,0,1,.07-1.95c-6.23,10.68-143.36,260.19-143.36,260.19a131.39,131.39,0,0,0-16.07,68.48L278,1311a152.79,152.79,0,0,1-14.19,70.76L143.55,1639.64a51.55,51.55,0,0,1-52.16,29.48l-78.21-8.3a13,13,0,0,0-12.67,6.48,6.26,6.26,0,0,0-.47,1.2c-1.53,10.31,48.39,42.38,113.74,72.85,65.53,30.56,122.31,48.19,129,40.24A4.83,4.83,0,0,0,243.31,1780.51Z"/></g><path class="cls-3" d="M517.8,891.89q-4.93-2.3-9.75-4.63c-35.14-17-74.09-38.91-76.57-47.06a2.64,2.64,0,0,1,1.87-3.46c17.71-6.34,86.33,23.86,89.25,25.14h0l.27.13c9.56,4.46,81.52,38.48,80.29,52-.2,2.15-1.94,3.68-5.19,4.55C587.14,921.44,551.08,907.41,517.8,891.89Zm4-28.18c-1.14-.5-70.85-31.14-87.77-25.09-.78.28-.76.56-.63,1,1.92,6.29,34.39,26,75.54,45.85,44.42,21.43,79.18,33.66,88.56,31.15,2.35-.63,3.6-1.57,3.71-2.8C602,904.56,554.18,878.77,521.77,863.71Z"/><path class="cls-4" d="M150.56,1677q.65.42,1.29.86a44.73,44.73,0,0,1,10.24,9.95h0s-8-13.73,2.42-39.17l136-285.72,12-11.41s-17.31,4.4-27.4-11L285,1353.9c-.09.16-.18.32-.26.49l-135.4,290.38h0s-1,2.3-1.42,3.05c-3.33,6.35-4.52,13.86-18.3,19-2.28.84-9,3.64-9,3.64A45.7,45.7,0,0,1,150.56,1677Z"/><path class="cls-4" d="M45.65,1673.69c-3.51-.26-17.1-2.77-20.49-.21l80.68,23.89a184.06,184.06,0,0,1,44.71,20l67.21,41.66c-3.15-3.82-8.1-8-9.73-9.66l-34.28-32.72a126.15,126.15,0,0,1-14.84-17l-.2-.27-8.26-.15A46.07,46.07,0,0,1,119,1686.06l-6.13-6a125.92,125.92,0,0,1-26.79-.78Z"/><path class="cls-5" d="M243.31,1780.51a4.83,4.83,0,0,1-.56,1.07c-6.66,8-63.44-9.68-129-40.24C48.42,1710.87-1.5,1678.8,0,1668.49a6.26,6.26,0,0,1,.47-1.2l.55-.84a12.32,12.32,0,0,1,4.47-4.07l.94-.5c-.1.14-3.46,19.63,110.84,72.93,64,29.85,120,47,126.62,39.07a12.51,12.51,0,0,1,.11,3.49A16.18,16.18,0,0,1,243.31,1780.51Z"/><path class="cls-6" d="M117.32,1734.81c59.8,27.89,112.6,44.72,124.68,40.32.5-4.76-16.31-16.34-19.29-19.4l-40.11-38.29a147.58,147.58,0,0,1-17.37-19.85l-4.25-5.83a44.82,44.82,0,0,0-10.69-10.61q-.64-.44-1.29-.86a45.33,45.33,0,0,0-30-6.48l-1.25.15a148,148,0,0,1-37.75-.3l-47.29-6.51c-3.81-.28-19.87-4-25.56-2.33C10.4,1672,27.67,1693,117.32,1734.81Zm-71.66-61.13,40.42,5.57a126.52,126.52,0,0,0,32.26.26l1.07-.13a38.74,38.74,0,0,1,25.63,5.54l1.11.73a38.31,38.31,0,0,1,9.13,9.07l3.63,5a126.15,126.15,0,0,0,14.84,17L208,1749.4c2.62,2.7,13.77,11.77,12.33,15.56a4.23,4.23,0,0,1-.44.85c-5.09,6.39-45.5-8-92.38-29.82S22.81,1683.1,24.23,1675a5.48,5.48,0,0,1,.38-.95C26.6,1670.55,41.9,1673.41,45.65,1673.69Z"/><path class="cls-4" d="M162.09,1687.77a44.73,44.73,0,0,0-10.24-9.95q-.64-.44-1.29-.86a45.7,45.7,0,0,0-30-6.54s6.72-2.8,9-3.64c13.78-5.11,15-12.61,18.3-19,.39-.75,1.42-3.05,1.42-3.05h0l135.4-290.38c.08-.17.17-.32.26-.49l.14-13.49h0a15.22,15.22,0,0,1,3,16.81l-73.82,165.44-65.18,134.75a12.77,12.77,0,0,0,3.76,15.68C156.41,1675.83,160.07,1680.34,162.09,1687.77Z"/><path class="cls-4" d="M319.22,1341.48,354.15,1315l-.32-13.43h0a219,219,0,0,1-22.92,11.92,15.68,15.68,0,0,1-4.67,1.14h0l-21.9,30.46h0A19.93,19.93,0,0,0,319.22,1341.48Z"/><path class="cls-7" d="M311,1129.16s-21.8,42.8-9.3,126.43c0,0-3.06-27,3.63-61,7.27-37,24-80.73,14.63-61.52C312.38,1148.52,311,1129.16,311,1129.16Z"/><path class="cls-4" d="M341.47,1303.08h0c-7.83,2.95-14.75,3.33-23.62-1.07s-15.77-8.78-21.09-24.28c0,0-16.65-27.61-9.38,46.68h0c0,.69.06,1.3.08,1.8.29,7.46,2.72,13.19,9.49,16.34l2,.94a19.94,19.94,0,0,0,20.26-2l2.77-2.09S389.57,1290.68,341.47,1303.08Z"/><path class="cls-6" d="M313.13,1110.31c19.86-40.09,111.7-215.13,133.5-256.65-3.31-2.19-6.19-4.24-8.56-6.1L303.19,1108.82c-10.76,20.46-12.5,43.38-11.87,66.66l2.49,27.39S293.2,1150.55,313.13,1110.31Z"/><path class="cls-7" d="M453.5,858,319.67,1117.25c-7.46,20,3.77,2.24,6.28-2.06,23.65-40.46,108.66-209,132.28-254.31Q455.79,859.43,453.5,858Z"/><path class="cls-6" d="M496.14,1148.15l91.11-230c-2.36-.47-4.94-1-7.72-1.82L489,1143.23c-2.64,7.23-32.1,63.2-48.87,77.55L355.71,1293l64.67-45.61c18.85-12.78,35.5-27.19,48.86-45.63l2-2.74C480.9,1185.72,490.1,1163.5,496.14,1148.15Z"/><path class="cls-8" d="M439,845.66c2.25,1.81,5.13,3.88,8.56,6.15l6.09-12.13a80.75,80.75,0,0,0-11.05-1.74Z"/><path class="cls-8" d="M433.38,839.61a7.58,7.58,0,0,0,1.75,2.57l1.9-4.07V838a13.5,13.5,0,0,0-3,.65C433.22,838.91,433.25,839.19,433.38,839.61Z"/><path class="cls-8" d="M521.77,863.71c-1.14-.5-70.85-31.14-87.77-25.09-.78.28-.76.56-.63,1,1.92,6.29,34.39,26,75.54,45.85,44.42,21.43,79.18,33.66,88.56,31.15,2.35-.63,3.6-1.57,3.71-2.8C602,904.56,554.18,878.77,521.77,863.71Z"/><path class="cls-8" d="M580.11,914.38c2.94.8,5.6,1.43,7.94,1.86l5.23-12.37c-2-1.62-4.39-3.34-7-5.13Z"/><path class="cls-8" d="M599.46,909.77,597,916.71c.17,0,.35-.06.5-.1,2.35-.63,3.6-1.57,3.71-2.8S600.67,911.33,599.46,909.77Z"/><path class="cls-4" d="M300,1103.42,433.81,843.89"/><path class="cls-4" d="M392.87,1292.36l133.79-259.53"/><path class="cls-4" d="M300,1103.42,433.81,843.89"/><path class="cls-4" d="M160.12,1663.19a74.5,74.5,0,0,1,4.39-14.6l136-285.72,10-9.56,0,0h0l1.91-1.82a21.14,21.14,0,0,1-2.9.45c-2,.7-3.76,2.62-11.19,9.88l-76.89,164.5-65,134.57C158.38,1663,159.45,1663.54,160.12,1663.19Z"/><g id="Splash"><g id="flow" class="cls-9"><path class="cls-2" d="M441.14,797.5c21.58.55,5.59-16.65-7-22.36-2.16-1-3.42-4.24-2.85-7.47,1.54-8.76,1-22.34,3.13-34.11a7.62,7.62,0,0,1,1.28-3.16C454,705.58,441.76,703.92,425.1,712a3.35,3.35,0,0,1-4.27-1.26c-4.06-5.39-28.78-23.69-33.65-28.36a7.64,7.64,0,0,1-1.85-5.87c1.42-22.9-37.78-36-47.8-43.34a6.6,6.6,0,0,1-2.29-4.73c-3.1-32.72-15.8-21.14-34.88-11.52a3.18,3.18,0,0,1-3.73-.59c-23-21.29-3.47-31.31,2.24-39.15,10-13.76,4.59-23.73-2.92-31.9s-7.41-24.8.19-33.26c13.26-14.79-2.09-16.12,8.44-20.88a3.22,3.22,0,0,1,1.6-.28c36.41,3,20.19-69.45-6.85-23.72-1.65,2.79-4.64,3.18-6.33.53-5.4-8.46-18.18,27-14.59,48.3-4-23.53-28.82,31.13-7.91,74a30,30,0,0,1,2.79,12.7c.56,51,125,117.8,123,194.64-1.48,56.76,69.91,5.26,72.26,10.89,3,7.09-17,4.28-17.11,12.91-.15,17.89,86.2,23.16,82.44,24.25-3.42,1-8.1,2.44-9,6.22-30,122.15-197.27,231.74-227.28,256.69-3.06,2.54-7.68,3.59-5.18,6.78,65.92,84.32,262.71-183.8,278.41-222.61a6.56,6.56,0,0,1,4-3.86C582.89,885.81,596,857.62,595,846a8.69,8.69,0,0,1,1.61-5.82c3.6-4.88-91-22.12-98.18-32.88C496.25,804,397.55,740,400.63,737.71c8.29-6.28,34.63,58.41,39.85,59.7A3.08,3.08,0,0,0,441.14,797.5Z"/></g><path id="body" class="cls-7" d="M381.88,691.75c-10.46,32.95,17.79,39.39,6.26,66.32-12.85,30,81.46,25.47,86.33,53.55,4.24,24.45,61.67,49.25,51.27,55.64a14.24,14.24,0,0,0-4.27,4.14l-1.38,2-.15-.07c-7.6,9.69-.38,30.05-13,58.15-114.06,253.71-215,180.84-215,180.84l-1.61,4.18a68.43,68.43,0,0,0-4.15,31.29c1,10.28,2.27,23.44,2.86,33.15,3.29,119.62,13.06,129.67,29.77,139.19,17.56,10,26.83-4.34,54.08-19.14a80.17,80.17,0,0,0,11.39-7.51c13.77-10.87,49.45-35.58,49.45-35.58l5.1-4.28c17.34-16.51,33.74-31.28,41.69-56l96-297.84c1.74-6,3.41-9.59,3.85-12a5.19,5.19,0,0,1-2.07,2.62,31.25,31.25,0,0,0-.56-9.11c-1.39-6.57-5.29-7.65,3.6-5.57,12.14,2.83,25.06.06,22.87-14.65-2.11-14.24-29.62-7.64-35.77-1.69-10.68,10.32-41.46-31.64-41.84-42.77s-37.77-47.36-4.3-57.07c15.52-4.5-29.18-14.25-38.88-27.62-10.45-14.4-35.83,43.15-17.77,1.75,5.73-13.13-35.87,24.27-42.11,5C377.41,596.22,392.34,658.8,381.88,691.75Z"/><path id="highlight" class="cls-7" d="M431,769.13c1.93-8.83,1.14-23.72,3.56-36.33a5.06,5.06,0,0,1,.89-2.06c19.07-25.59,6-26.91-11.21-18.33a2.28,2.28,0,0,1-2.82-.71c-5.76-6.59-28.27-23.35-34.92-30.14a5.41,5.41,0,0,1-1.18-4.25c2.51-24.11-40-37.57-48.55-44.81a4.61,4.61,0,0,1-1.38-3.1c-2.87-33.15-15.11-22.74-33.64-13.19a5.32,5.32,0,0,1-6.37-1.16c-20.93-20.44-2-30.22,3.55-37.91,10.57-14.51,4-24.8-4.16-33.21-7.18-7.45-7-23.14.33-30.78,15.3-16-1.58-17.19,9.83-22.19a2.11,2.11,0,0,1,1-.17c20.39,1.89,24.46-19.73,19.42-31.51-.71-1.67-2.12-2.38-3.42-1.78-6.69,3.11-17.67,9.94-22.11,22.6-6.58,18.77-16.61,3.1-15.57,33S262.8,531,274.51,557.34s-5.92,40.21,4.89,52.8c5.57,6.49,14.3,11.57,21.46,15,6.23,3,13.2-.34,17-8.32,3-6.33,6.52-10.32,8.07,1.23,2.94,21.88,2.14,37,12.82,33.47s27.15-8.44,25,3.55,1.92,27.56,7.46,24.83,7.17-4.16,10.7,11.88S395,728.64,408.78,721s30.85-14.24,23.82-5.93-17.31,13.06-12.71,24.67,7.8,23,3.09,27.11,21,13.73,14.69,18.21a64.77,64.77,0,0,1-6.54,4c-2.65,1.44-2.66,6.9,0,8.23h0a2.13,2.13,0,0,0,1.4.19,18.67,18.67,0,0,1,8.07,0,2.07,2.07,0,0,0,.46.07c22.41.63,4.68-17.72-8.1-22.86C431.32,774,430.45,771.49,431,769.13Z"/></g><g id="spill"><path id="spill-2" data-name="spill" class="cls-10" d="M579.84,726.94C546.41,658,451.94,625.74,386.31,600.2c-50.36-19.6-181.23-64.26-144-140.45,33.44-68.5,112.9-55.41,164.09-19.69-37,27.69,25.18,74.91,50,39,17.78-25.82-27-52.08-35.85-66.82-4-6.75-2-34.23-11.09-49-12.37-20.06-29.68-37.12-54.69-36-14.66.68-49.45,20.91-65.52,25.12-26.23,6.88-39.31,12-58.67,27.56C184,417.3,171.94,471.11,190.56,526.27c24,71.07,74.43,75.07,133.3,104,24.21,11.89,36.52,33.66,58.14,46.94,26.39,16.21,48.62,16.54,77.26,25.35,18,5.55,62.34,43.27,71.42,14.15,15.6,20.57,24.06,54.86,1.7,72.32-7.48,5.84-22-28.85-39.43-4.22-20.31,28.66,37.22,51.93,57,46.17C593.29,818.4,595.87,760,579.84,726.94Z"/><path id="highlight-2" data-name="highlight" class="cls-10" d="M194,443.87c22.08-19.16,13.58-10.65,27.58-34.16s5.5-32,28.16-26.5c39.33,9.55,70.56,3,75.7-8s15.64-35.5,28.14-18-5.84,38,15.33,43.5,22.45-10.5,31.06,4.5,2.8,14.69,13,20.1,24.32,3.4,24.24,11.9a111.45,111.45,0,0,0,.56,13.42,13.17,13.17,0,1,0,20.79,6.44q-.56-1.43-1.27-2.84a13.26,13.26,0,0,0-2.06-2.66l-.84-2.34c-9.8-14.82-28.52-28.08-33.89-37.05-4-6.75-2-34.23-11.09-49-12.37-20.06-29.68-37.12-54.69-36-14.66.68-49.45,20.91-65.52,25.12-26.23,6.88-39.31,12-58.67,27.56C184,417.3,171.94,471.11,190.56,526.27c5.81,17.2,13.17,30.47,21.82,41.11l.71-.67s-18.67-20.5-19.08-50.5S171.93,463,194,443.87Z"/><path id="hightlight" class="cls-10" d="M398.1,604.76h0a13.16,13.16,0,0,1-13.06,20l17.49,4.23a28.56,28.56,0,0,1,13.79,7.77c31,31.83,54.34.22,70.65,13,19,14.92,24.75,43.19,30,50,9.17,12,21.46-17,34.82,15s18.06,48.94,16.71,52c-1,2.21,10.34,19.3,16.55,28.39,7.08-22.15,4-49.27-5.15-68.13C548.36,662,462.78,629.64,398.1,604.76Z"/></g></g><g id="wineglassRight"><g id="WineGlass"><g class="cls-1"><path class="cls-2" d="M972.72,1778.92A13,13,0,0,1,975.9,1765l56.63-54.57a51.55,51.55,0,0,0,11-58.9L923.26,1393.74a152.79,152.79,0,0,0-45.09-56.35L764,1249.22a131.39,131.39,0,0,1-42.13-56.32L617.34,924.36c-1.9-5.39-3.61-8.45-4.09-10.6.69,1.45,2.3,2.52,4.81,3.19,10.84,2.9,46.9-11.13,80.18-26.65q4.93-2.3,9.75-4.63c35.14-17,74.09-38.91,76.57-47.06a2.72,2.72,0,0,0-.07-1.95c6.23,10.68,143.36,260.19,143.36,260.19a131.39,131.39,0,0,1,16.07,68.48l-5.84,144.11a152.79,152.79,0,0,0,14.19,70.76L1072.49,1638a51.55,51.55,0,0,0,52.16,29.48l78.21-8.3a13,13,0,0,1,12.67,6.48,6.26,6.26,0,0,1,.47,1.2c1.53,10.31-48.39,42.38-113.74,72.85-65.53,30.56-122.31,48.19-129,40.24A4.83,4.83,0,0,1,972.72,1778.92Z"/></g><path class="cls-3" d="M618.05,917c-3.25-.87-5-2.4-5.19-4.55-1.22-13.48,70.73-47.51,80.29-52l.27-.13h0c2.91-1.29,71.53-31.48,89.25-25.14a2.64,2.64,0,0,1,1.87,3.46c-2.49,8.15-41.44,30.11-76.57,47.06q-4.81,2.32-9.75,4.63C665,905.82,628.89,919.85,618.05,917Zm-3.21-4.73c.11,1.23,1.36,2.17,3.71,2.8,9.38,2.51,44.14-9.71,88.56-31.15C748.26,864,780.74,844.31,782.66,838c.13-.43.15-.71-.63-1-16.92-6.05-86.63,24.58-87.77,25.09C661.85,877.18,614,903,614.84,912.22Z"/><path class="cls-4" d="M1065.47,1675.37q-.65.42-1.29.86a44.73,44.73,0,0,0-10.24,9.95h0s8-13.73-2.42-39.17l-136-285.72-12-11.41s17.31,4.4,27.4-11l.14,13.49c.09.16.18.32.26.49l135.4,290.38h0s1,2.3,1.42,3.05c3.33,6.35,4.52,13.86,18.3,19,2.28.84,9,3.64,9,3.64A45.7,45.7,0,0,0,1065.47,1675.37Z"/><path class="cls-4" d="M1170.38,1672.09c3.51-.26,17.1-2.77,20.49-.21l-80.68,23.89a184.06,184.06,0,0,0-44.71,20l-67.21,41.66c3.15-3.82,8.1-8,9.73-9.66l34.28-32.72a126.15,126.15,0,0,0,14.84-17l.2-.27,8.26-.15a46.07,46.07,0,0,0,31.46-13.22l6.13-6a125.92,125.92,0,0,0,26.79-.78Z"/><path class="cls-5" d="M972.72,1778.92a4.83,4.83,0,0,0,.56,1.07c6.66,8,63.44-9.68,129-40.24,65.35-30.47,115.27-62.54,113.74-72.85a6.26,6.26,0,0,0-.47-1.2l-.55-.84a12.32,12.32,0,0,0-4.47-4.07l-.94-.5c.1.14,3.46,19.63-110.84,72.93-64,29.85-120,47-126.62,39.07a12.51,12.51,0,0,0-.11,3.49A16.18,16.18,0,0,0,972.72,1778.92Z"/><path class="cls-6" d="M1208.86,1663.23c-5.69-1.72-21.75,2-25.56,2.33l-47.29,6.51a148,148,0,0,1-37.75.3l-1.25-.15a45.33,45.33,0,0,0-30,6.48q-.65.42-1.29.86a44.82,44.82,0,0,0-10.69,10.61l-4.25,5.83a147.58,147.58,0,0,1-17.37,19.85l-40.11,38.29c-3,3.06-19.78,14.64-19.29,19.4,12.08,4.41,64.88-12.43,124.68-40.32C1188.36,1691.42,1205.63,1670.41,1208.86,1663.23Zm-17.44,9.27a5.48,5.48,0,0,1,.38.95c1.42,8.07-56.55,39.16-103.31,61s-87.29,36.21-92.38,29.82a4.23,4.23,0,0,1-.44-.85c-1.44-3.8,9.71-12.87,12.33-15.56l34.28-32.72a126.15,126.15,0,0,0,14.84-17l3.63-5a38.31,38.31,0,0,1,9.13-9.07l1.11-.73a38.74,38.74,0,0,1,25.63-5.54l1.07.13a126.52,126.52,0,0,0,32.26-.26l40.42-5.57C1174.13,1671.82,1189.44,1669,1191.42,1672.5Z"/><path class="cls-4" d="M1053.94,1686.17a44.73,44.73,0,0,1,10.24-9.95q.64-.44,1.29-.86a45.7,45.7,0,0,1,30-6.54s-6.72-2.8-9-3.64c-13.78-5.11-15-12.61-18.3-19-.39-.75-1.42-3.05-1.42-3.05h0L931.31,1352.8c-.08-.17-.17-.32-.26-.49l-.14-13.49h0a15.22,15.22,0,0,0-3,16.81l73.82,165.44,65.18,134.75a12.77,12.77,0,0,1-3.76,15.68C1059.62,1674.24,1056,1678.75,1053.94,1686.17Z"/><path class="cls-4" d="M896.81,1339.89l-34.93-26.44.32-13.43h0a219,219,0,0,0,22.92,11.92,15.68,15.68,0,0,0,4.67,1.14h0l21.9,30.46h0A19.93,19.93,0,0,1,896.81,1339.89Z"/><path class="cls-7" d="M905.07,1127.57s21.8,42.8,9.3,126.43c0,0,3.06-27-3.63-61-7.27-37-24-80.73-14.63-61.52C903.66,1146.93,905.07,1127.57,905.07,1127.57Z"/><path class="cls-4" d="M874.56,1301.49h0c7.83,2.95,14.75,3.33,23.62-1.07s15.77-8.78,21.09-24.28c0,0,16.65-27.61,9.38,46.68h0c0,.69-.06,1.3-.08,1.8-.29,7.46-2.72,13.19-9.49,16.34l-2,.94a19.94,19.94,0,0,1-20.26-2l-2.77-2.09S826.47,1289.09,874.56,1301.49Z"/><path class="cls-6" d="M902.9,1108.72C883,1068.63,791.2,893.59,769.4,852.06c3.31-2.19,6.19-4.24,8.56-6.1l134.88,261.27c10.76,20.46,12.5,43.38,11.87,66.66l-2.49,27.39S922.83,1149,902.9,1108.72Z"/><path class="cls-7" d="M762.53,856.43l133.83,259.22c7.46,20-3.77,2.24-6.28-2.06-23.65-40.46-108.66-209-132.28-254.31Q760.24,857.84,762.53,856.43Z"/><path class="cls-6" d="M719.89,1146.56l-91.11-230c2.36-.47,4.94-1,7.72-1.82L727,1141.64c2.64,7.23,32.1,63.2,48.87,77.55l84.45,72.26-64.67-45.61c-18.85-12.78-35.5-27.19-48.86-45.63l-2-2.74C735.14,1184.13,725.93,1161.9,719.89,1146.56Z"/><path class="cls-8" d="M777.07,844.07c-2.25,1.81-5.13,3.88-8.56,6.15l-6.09-12.13a80.75,80.75,0,0,1,11.05-1.74Z"/><path class="cls-8" d="M782.66,838a7.58,7.58,0,0,1-1.75,2.57l-1.9-4.07v-.13a13.5,13.5,0,0,1,3,.65C782.81,837.31,782.79,837.59,782.66,838Z"/><path class="cls-8" d="M694.26,862.12C695.4,861.62,765.11,831,782,837c.78.28.76.56.63,1-1.92,6.29-34.39,26-75.54,45.85-44.42,21.43-79.18,33.66-88.56,31.15-2.35-.63-3.6-1.57-3.71-2.8C614,903,661.85,877.18,694.26,862.12Z"/><path class="cls-8" d="M635.92,912.79c-2.94.8-5.6,1.43-7.94,1.86l-5.23-12.37c2-1.62,4.39-3.34,7-5.13Z"/><path class="cls-8" d="M616.58,908.18l2.48,6.94c-.17,0-.35-.06-.5-.1-2.35-.63-3.6-1.57-3.71-2.8S615.36,909.74,616.58,908.18Z"/><path class="cls-4" d="M916,1101.83,782.22,842.3"/><path class="cls-4" d="M823.16,1290.77,689.37,1031.24"/><path class="cls-4" d="M916,1101.83,782.22,842.3"/><path class="cls-4" d="M1055.91,1661.6a74.5,74.5,0,0,0-4.39-14.6l-136-285.72-10-9.56,0,0h0l-1.91-1.82a21.14,21.14,0,0,0,2.9.45c2,.7,3.76,2.62,11.19,9.88l76.89,164.5,65,134.57C1057.66,1661.4,1056.59,1661.95,1055.91,1661.6Z"/></g><g id="Splash-2" data-name="Splash"><g id="flow-2" data-name="flow" class="cls-11"><path class="cls-2" d="M583.77,822.47c-31.19.1-8.07-17.08,10.18-22.63a6.25,6.25,0,0,0,4.13-7.56c-2.21-9-1.42-22.79-4.47-34.82a6.84,6.84,0,0,0-1.85-3.24c-26.5-25.67-8.77-27.1,15.29-18.55a6,6,0,0,0,6.16-1.19c5.88-5.4,18.63-14.27,24.71-20.17a6.5,6.5,0,0,0,1.59-6.37c-6-22.78,47.37-45.62,60.19-55.4a6.29,6.29,0,0,0,2.37-5.29c-1.35-33.75,18.69-25.17,47.42-20.14a6,6,0,0,0,5.18-1.51c28.87-27.09-.56-32.43-10-38.94C728,575.23,734,563.85,743.2,553.78s6.15-26.81-6.09-33.49c-21.4-11.69.14-16.77-15.64-19a6.28,6.28,0,0,0-2.3.11c-51.08,12-40.81-65.11,5.53-25.59,2.83,2.41,7.13,2.08,9.06-1,6.17-9.85,30.51,22.84,29.15,45.15,1.51-24.7,46.3,24.37,24.18,72.67a22.87,22.87,0,0,0-1.76,13.3c8.62,51.47-154.45,140.44-136.71,217.25a24.68,24.68,0,0,1-2,16.44,25.14,25.14,0,0,0-.27,21.33c5.58,12.5,19.81,18.31,31.8,13l.1-.05c61.16,80.86,202.69,228.43,244.46,239.16,10.55,2.71,3.73,7,1.1,9.83-69.5,75.36-272-172.57-288.53-207.78a6.63,6.63,0,0,0-4.16-3.53C622.52,909,608.8,883.41,609.77,873a7.1,7.1,0,0,0-1.69-5.27c-3.79-4.45-.56-19.51,7-29.14a6.67,6.67,0,0,0-1.62-9.61c-8.72-5.77-21.19-7.75-28.74-6.54A6.06,6.06,0,0,1,583.77,822.47Z"/></g><path id="body-2" data-name="body" class="cls-7" d="M628.79,786.49c15.58,0,10.64,29,5.48,54.33-4.5,22,37.5,46.21,48.44,52.1a14.43,14.43,0,0,1,4.49,3.78l1.45,1.84.15-.06c8,8.83-1.43,29.26,13.64,52.64,146.68,227.59,226.16,165.7,226.16,165.7l1.69,3.79a53.92,53.92,0,0,1,4.33,28.29c-1.1,9.26-2.42,21.13-3.05,29.89-3.6,107.93-13.9,116.9-31.51,125.3-18.5,8.83-28.25-4.22-56.92-17.9a87.9,87.9,0,0,1-12-6.91c-14.49-10-52-32.68-52-32.68l-5.37-3.92c-18.24-15.1-35.49-28.62-43.83-51L629.22,921.74c-1.83-5.41-3.58-8.7-4-10.85a4.94,4.94,0,0,0,2.18,2.39,24.23,24.23,0,0,1,.6-8.22c1.47-5.91,3-16.73-6.39-15-12.79,2.42-4-13.73.92-26.43C635.39,830,607,779.68,601.2,811c-2.45,13.21-13.24,25.28-23.11,23.39-11.51-2.2,14.79,24.57-2.33,23.64-9.94-.54-5.5-6.57-21.58-1.59s12.25-26.11,4.58-39.95C558.76,816.49,525.81,786.27,628.79,786.49Z"/><path id="highlight-3" data-name="highlight" class="cls-7" d="M600.66,798.33c-5.72-7.76-3-27.21-7.59-42.86-29.78-28.21-8.54-28.57,17.71-18.41,4.06-5.46,26.18-19.88,30-26-13.41-26,57.19-53,61.5-61.06C699.68,613,720,622,749.59,627.13a5.85,5.85,0,0,0,5-1.46c29-27.14-.49-32.48-10-39-19.84-13.65-7.51-27.22,4.12-38.57,7.47-7.3,4.84-20.31-4.91-24.55-33-14.34-4-20.08-23.6-22.42-31.5,8-40.36-17.2-32.26-29.88,9.29,1.08,28.87,4.85,38.31,17.8,12.62,17.32,24.08-.93,27.85,29.51s33.51,12.8,21.53,42.22,15.43,39.1,2.33,54.44c-7.58,8.87-21.11,16.91-31.18,22.12a16.82,16.82,0,0,1-20.44-4.19c-5.75-6.68-12.7-11.93-12.9,1.36-.34,22.78,3.47,37.87-12.31,36.88s-40-1.89-34.8,9.68,2.11,28.26-6.21,26.86-10.89-2.44-13.08,14.59,3.37,30.81-16.48,22.68-44.55-15.17-34.41-6.55,25,13.67,18.33,25.41-11.3,23.29-4.5,27.56-30.35,13.53-21.25,18.24,21.52,8.53,21.52,8.53l-13,4.42a38.48,38.48,0,0,0-13-.32C548.25,822.78,582.5,800.67,600.66,798.33Z"/></g><g id="spill-3" data-name="spill"><path id="spill-4" data-name="spill" class="cls-10" d="M697,32c-26.46-19.35-43.12,5-45.54,29.68-4.66-1.6-16.66-43.31-28.64-51.61-21-14.52-41-10.85-64.07-4.34-56.94,16-40.08,100.35-79.66,138-61,58,0,150,.37,216.35,0,6.56,14.35,47.3,37.94,27.15,28.14-24-10.6-32.73-12.88-49.24-2.52-18.18,10.75-44.69,10.33-66.64-.34-17.34-39.3-42-36.76-59.63,4.62-32.13,71.63-150.91,105-151.75,75-1.9,48.85,225.69,39.24,267.25-11.08,47.92-117.49,130.08-109.2,181.5,6.77,42,55.35,44,109.2,155,8.65,17.83,61.53-44.92,54.77-66.39-9.39-29.84-5.25,7.77-22,7.21-1.36,0-24,29.17-24.64,29.17-10.54,0-10.51-27.38-20.55-34.22-42.69-29.09,7.58-203.44,22.6-236.78,12.3-27.3,30.06-45,33.24-76.57,2.44-24.2-12.58-53.94-5.23-74.76C679.55,157.39,780.94,93.36,697,32ZM511,202.23c-.21.48-.58,1.29,0,0Z"/><path id="highlight-4" data-name="highlight" class="cls-10" d="M655.09,604.54c-1.36,0-24,29.17-24.64,29.17-10.54,0-10.51-27.38-20.55-34.22-42.69-29.09,7.58-203.44,22.6-236.78,12.3-27.3,30.06-45,33.24-76.57,2.44-24.2-12.58-53.94-5.23-74.76,19-54,120.44-118,36.5-179.4-26.46-19.35-43.12,5-45.54,29.68-4.66-1.6-16.66-43.31-28.64-51.61-21-14.52-41-10.85-64.07-4.34-56.94,16-40.08,100.35-79.66,138-61,58,0,150,.37,216.35,0,6.56,14.35,47.3,37.94,27.15,20.13-17.19,6-26.54-4.45-36.5a11.64,11.64,0,0,0,3.21,3h0c6.42,5.89,13.2,12.44-12,11.19-4.75-1.06-.83-10.17-.83-10.17s-15.58-23.33-9.58-29-11.33-19.69-9.67-30.35,8.33-13.33,11.67-26.67-29.33-23.33-23.33-30.21-2-23.79-13.32-34.11S464.43,180,468.85,176s18.91-14,15.24-20,14.33-34.62,16.33-34.62,29.33-26.67,18.17-35.32,6.5-42.68,15.5-29.34,23,0,23-20,20-15.33,20-15.33c8-16,10.16-.67,10.16-.67S580.43,38,593.76,45.38s-5.33-18.67,11.33-30,25.54,18,32.77,46c2.81,10.9,8.55,9.85,11.87,6.66-13.15,49.88,5.07,22.54,13.36,45.34,10.67,29.33-9.33,68-12.76,91s-5.91,41-12.48,64.32-5.43,31.33,0,47S619.09,364,619.09,367.38s-4.67,16.67-28.19,30.47,2.85,11.53,7.85,11.87-7,16.33-18.33,21.66-4.67,2-11.26,15.12,7.26.21,18.09,0-.16,12.21-5.49,20.68-14,8.2-31.33,11.53S541.09,492,553.32,492s13.78-7.33,21.11-.67-8,17.33-31.33,18.67,0,13.33,10.22,27.33,23.78,18.67,23.78,34,3.33,18,25.33,34.66,7.83,14,7.83,14,3.5,11.33,8.17,23.33,4,6.67,19.43,10.67,11.9-10.67,17.9-20.67,8.67-18,13.33-24.67,0-12,.16-19.79C667,594.33,664,604.84,655.09,604.54Z"/></g></g><g id="DropletGroup"><path id="droplet" class="cls-12" d="M287.59,436.28c-.33,5-4.39,8.37-9.06,7.44s-8.2-5.77-7.87-10.81,4.39-8.37,9.06-7.44S287.91,431.24,287.59,436.28Z"/><path id="droplet-2" data-name="droplet" class="cls-12" d="M309,465.72c-.33,5-4.39,8.37-9.06,7.44s-8.2-5.77-7.87-10.81,4.39-8.37,9.06-7.44S309.37,460.69,309,465.72Z"/><path id="droplet-3" data-name="droplet" class="cls-7" d="M276.11,480.88a3.8,3.8,0,0,1-4.53,3.72,5.21,5.21,0,0,1-3.94-5.4,3.8,3.8,0,0,1,4.53-3.72A5.21,5.21,0,0,1,276.11,480.88Z"/><path id="droplet-4" data-name="droplet" class="cls-7" d="M258.23,430.44a3.8,3.8,0,0,1-4.53,3.72,5.21,5.21,0,0,1-3.94-5.4,3.8,3.8,0,0,1,4.53-3.72A5.21,5.21,0,0,1,258.23,430.44Z"/><circle id="droplet-5" data-name="droplet" class="cls-2" cx="428.95" cy="315.72" r="10.01"/><circle id="droplet-6" data-name="droplet" class="cls-2" cx="422.17" cy="232.27" r="6.24"/><circle id="droplet-7" data-name="droplet" class="cls-2" cx="437.18" cy="277.48" r="8.77"/><circle id="droplet-8" data-name="droplet" class="cls-2" cx="468.85" cy="424.96" r="15.24"/><circle id="droplet-9" data-name="droplet" class="cls-2" cx="332.68" cy="308.71" r="4.48" transform="translate(-80.19 120.24) rotate(-18.32)"/><circle id="droplet-10" data-name="droplet" class="cls-2" cx="407.82" cy="169.41" r="13.41"/><circle id="droplet-11" data-name="droplet" class="cls-2" cx="534.09" cy="308.71" r="9"/><circle id="droplet-12" data-name="droplet" class="cls-2" cx="529.59" cy="255.21" r="4.5"/><circle id="droplet-13" data-name="droplet" class="cls-2" cx="598.75" cy="304.22" r="11.5"/><circle id="droplet-14" data-name="droplet" class="cls-2" cx="506.09" cy="467.18" r="2.75"/><circle id="droplet-15" data-name="droplet" class="cls-2" cx="456.36" cy="393.11" r="2.75"/><circle id="droplet-16" data-name="droplet" class="cls-2" cx="397.16" cy="207.15" r="2.75"/><circle id="droplet-17" data-name="droplet" class="cls-2" cx="705.58" cy="435.77" r="6.24"/><circle id="droplet-18" data-name="droplet" class="cls-2" cx="680.57" cy="410.65" r="2.75"/><circle id="droplet-19" data-name="droplet" class="cls-2" cx="412.94" cy="766.69" r="6.24"/><circle id="droplet-20" data-name="droplet" class="cls-2" cx="445.63" cy="784.58" r="2.75"/><circle id="droplet-21" data-name="droplet" class="cls-2" cx="325.45" cy="273.59" r="2.75"/><circle id="droplet-22" data-name="droplet" class="cls-2" cx="702.44" cy="778.87" r="7.62"/><circle id="droplet-23" data-name="droplet" class="cls-2" cx="682.46" cy="834.38" r="4.48"/><circle id="droplet-24" data-name="droplet" class="cls-2" cx="735.25" cy="796.1" r="7.52"/><circle id="droplet-25" data-name="droplet" class="cls-2" cx="705.19" cy="813.74" r="2.75"/><circle id="droplet-26" data-name="droplet" class="cls-2" cx="677.42" cy="813.74" r="2.75"/><circle id="droplet-27" data-name="droplet" class="cls-2" cx="375.4" cy="283.96" r="6.48"/><circle id="droplet-28" data-name="droplet" class="cls-2" cx="394.41" cy="731.88" r="10.01"/><circle id="droplet-29" data-name="droplet" class="cls-2" cx="644.1" cy="467.18" r="6.24"/><circle id="droplet-30" data-name="droplet" class="cls-2" cx="527.36" cy="580.16" r="8.77"/><circle id="droplet-31" data-name="droplet" class="cls-2" cx="406.46" cy="539.46" r="6.48"/><circle id="droplet-32" data-name="droplet" class="cls-2" cx="358.75" cy="246.34" r="7.62"/></g></g></g></g></svg>