<svg xmlns="http://www.w3.org/2000/svg" viewBox="0 0 585.54 969.83"><defs><style>.cls-1,.cls-4,.cls-6,.cls-8,.cls-9{fill:#fff;}.cls-1,.cls-3{opacity:0.15;}.cls-2{fill:none;stroke:#fff;stroke-miterlimit:10;}.cls-2,.cls-9{opacity:0.3;}.cls-5{fill:#fffafe;}.cls-5,.cls-7{opacity:0.5;}.cls-6{opacity:0.2;}.cls-7{fill:#fffdfd;}.cls-8{opacity:0.4;}</style></defs><title>WineGlass-s1</title><g id="Layer_2" data-name="Layer 2"><g id="HeartSpill"><g id="Slide1"><g id="WineglassLeft"><path id="highlight" class="cls-1" d="M69.56,207.93c30.54-1,30.13-16.5,61.58-18.5s32.45,12.23,56,2.61,38.51-39.75,41.69-57.15c.42-2.28,0-7.25-1.24-9.17-1.94-3.08-21.83,2.71-25.46,4.54-9.37,4.74-22.67,22-35.33,32s-18,14.67-67.8-5.33-60.74,19.21-60.74,19.21S39,208.93,69.56,207.93Z"/><g id="Bubbles"><circle class="cls-2" cx="90.41" cy="235.92" r="4.32"/><circle class="cls-2" cx="157.76" cy="259.32" r="4.32"/><circle class="cls-2" cx="123.74" cy="369.36" r="4.32"/><circle class="cls-2" cx="73.63" cy="281.24" r="2.83"/><circle class="cls-2" cx="136.79" cy="233.47" r="2.83"/><circle class="cls-2" cx="171.65" cy="343.44" r="2.83"/><circle class="cls-2" cx="94.73" cy="343.44" r="2.83"/><circle class="cls-2" cx="114.37" cy="288.2" r="5.05"/><circle class="cls-2" cx="176.71" cy="288.2" r="5.05"/><circle class="cls-2" cx="186.82" cy="240.24" r="5.05"/><circle class="cls-2" cx="141.84" cy="318.88" r="5.05"/><circle class="cls-2" cx="163.77" cy="391.27" r="9.2"/></g><g id="WineGlass"><g class="cls-3"><path class="cls-4" d="M267.91,950.59a13,13,0,0,0-8.75-11.23l-74.39-25.52A51.55,51.55,0,0,1,150,865.07V580.58a152.79,152.79,0,0,1,17-70.13l66.2-128.14a131.39,131.39,0,0,0,14.38-68.85L228.85,25.9c-.56-5.69-.3-9.19-.77-11.34,0,1.6-1,3.26-3,4.93-8.6,7.21-47.21,9.73-83.93,9.73-3.63,0-7.23,0-10.79-.07-39-.52-83.59-4-89.29-10.29a2.72,2.72,0,0,1-.76-1.8c-1.13,12.32-20,296.4-20,296.4a131.39,131.39,0,0,0,14.38,68.85l66.2,128.14a152.79,152.79,0,0,1,17,70.13V865.07a51.55,51.55,0,0,1-34.82,48.76L8.75,939.36A13,13,0,0,0,0,950.59a6.26,6.26,0,0,0,.08,1.29c3,10,61.76,18,133.87,18,72.3,0,131.22-8,133.89-18A4.83,4.83,0,0,0,267.91,950.59Z"/></g><path class="cls-5" d="M141.14,29.22c-3.63,0-7.23,0-10.79-.07-39-.52-83.59-4-89.29-10.29a2.64,2.64,0,0,1,.23-3.93C54.67,1.7,129.62.06,132.8,0h.32c10.55,0,90.14.43,94.73,13.16.73,2-.2,4.16-2.78,6.32C216.47,26.7,177.86,29.22,141.14,29.22ZM132.83,2c-1.25,0-77.37,1.72-90.15,14.36-.59.58-.45.83-.15,1.16,4.4,4.89,42.16,9,87.84,9.63,49.32.65,86-3,93.43-9.2,1.87-1.57,2.6-2.95,2.18-4.1C222.83,5.1,168.57,2,132.83,2Z"/><path class="cls-6" d="M140.09,895.93l1.54.23a44.73,44.73,0,0,1,13.48,4.69h0s-13-9.07-14.36-36.52l2.54-316.44,6-15.4s-13.83,11.3-29.5,1.57l5.57,12.28c0,.18,0,.36,0,.55V867.28h0s0,2.52,0,3.37c-.33,7.16,1.76,14.47-8.57,24.92-1.71,1.73-6.62,7.1-6.62,7.1A45.7,45.7,0,0,1,140.09,895.93Z"/><path class="cls-6" d="M43.63,937.3C40.34,938.55,27,942,25,945.77l83.22-12.44a184.06,184.06,0,0,1,49-.73l78.51,9.35c-4.46-2.13-10.71-3.81-12.9-4.64l-44.9-15.17A126.15,126.15,0,0,1,157.27,913l-.3-.16-7.55,3.35a46.07,46.07,0,0,1-34.1,1.31l-8.11-2.88a125.92,125.92,0,0,1-24.6,10.62Z"/><path class="cls-7" d="M267.91,950.59a4.83,4.83,0,0,1-.06,1.21c-2.67,10-61.59,18-133.89,18-72.11,0-130.9-8-133.87-18A6.26,6.26,0,0,1,0,950.59l.15-1A12.32,12.32,0,0,1,2.49,944l.64-.86c0,.16,5.16,19.26,131.28,19.26,70.64,0,128.65-8.08,131.27-18.11a12.51,12.51,0,0,1,1.57,3.12A16.18,16.18,0,0,1,267.91,950.59Z"/><path class="cls-8" d="M134.41,962.42c66,0,121-7.05,130-16.15-1.56-4.52-21.69-7.91-25.68-9.43l-52.53-17.75a147.58,147.58,0,0,1-24.13-10.65l-6.31-3.49a44.82,44.82,0,0,0-14.17-5.1l-1.54-.23a45.33,45.33,0,0,0-29.92,6.8l-1.07.66a148,148,0,0,1-34.34,15.68L29.15,936.84c-3.57,1.36-19.72,4.73-24.15,8.69C11,950.68,35.5,962.42,134.41,962.42ZM43.63,937.3l39-12A126.52,126.52,0,0,0,112,911.86l.91-.57a38.74,38.74,0,0,1,25.57-5.81l1.31.2A38.31,38.31,0,0,1,151.88,910l5.4,3a126.15,126.15,0,0,0,20.62,9.11l44.9,15.17c3.52,1.34,17.45,4.85,17.75,8.9a4.23,4.23,0,0,1,0,1c-1.91,7.94-44.6,12-96.33,12S26.91,955.49,24.79,947.58a5.48,5.48,0,0,1-.06-1C25,942.51,40.11,938.64,43.63,937.3Z"/><path class="cls-6" d="M155.11,900.85a44.73,44.73,0,0,0-13.48-4.69l-1.54-.23a45.7,45.7,0,0,0-29.92,6.73s4.91-5.37,6.62-7.1c10.33-10.45,8.24-17.76,8.57-24.92,0-.84,0-3.37,0-3.37h0V546.88c0-.19,0-.37,0-.55l-5.57-12.28h0a15.22,15.22,0,0,1,9.81,14l3,181.14-2.12,149.67a12.77,12.77,0,0,0,10,12.63C144.92,892.44,150.14,895,155.11,900.85Z"/><path class="cls-6" d="M151.17,520.6l20.48-38.73-6-12h0A219,219,0,0,1,150,490.33a15.68,15.68,0,0,1-3.75,3h0l-7,36.86h0A19.93,19.93,0,0,0,151.17,520.6Z"/><path class="cls-6" d="M222.43,385.88c-1.24-2.37-24.85,34.27-34.26,49.1a82.6,82.6,0,0,1-8.12,10.7c-21.66,24.28-25.36,40.26-46.8,39.73-20.34-.5-34-4.49-83.26-101.6-19.4-34.7-5,4-5,4s63.17,117.24,71,132.38c3.42,6.64,8,10.8,15.51,10.8h2.22a19.94,19.94,0,0,0,17.5-10.4Z"/><path class="cls-9" d="M54,331.67s-1.67,48,45,118.51c0,0-14.17-23.15-22.5-56.85C67.39,356.68,64.08,310,63.71,331.39,63.42,348.62,54,331.67,54,331.67Z"/><path class="cls-6" d="M155.11,476.4h0c-5.85,6-12,9.26-21.85,9s-18-1.3-29.37-13.09c0,0-26.76-18,11.23,46.27h0l.83,1.6c3.42,6.64,8,10.8,15.51,10.8h2.22a19.94,19.94,0,0,0,17.5-10.4l1.62-3.07S193.46,444.83,155.11,476.4Z"/><path class="cls-8" d="M48,313.67C49,268.94,58.27,71.49,60.48,24.64c-3.92-.58-7.4-1.22-10.34-1.92L38.32,316.52c-1.1,23.09,7,44.6,17.41,65.43l13.83,23.77S46.9,358.56,48,313.67Z"/><path class="cls-9" d="M68.55,25.7,56.82,317.19c1.69,21.28,4.36.44,4.82-4.53C66,266,71.79,77.33,74,26.28,72.16,26.1,70.33,25.9,68.55,25.7Z"/><path class="cls-6" d="M243.46,312.4c-2.4-37-14.7-252.73-17.16-294.07-.07.06-.65.65-.72.71a9.94,9.94,0,0,1-2,1.46c.68,19.65,3.87,88.44,5.18,114.39,2.24,44.2,9.65,134,8.25,176.58-.6,18.23-5.75,46-18.75,70.5C209,399.56,172.51,465.22,150,490.4c-7.85,8.76-29.12,8.69-36.67-.33C99.51,473.58,69.72,421,48.67,381.4A133.56,133.56,0,0,1,33.16,313L44.74,21.21a17.79,17.79,0,0,1-2.35-1L39.87,71.37,28,303.06s-4,46,13.33,78c14.13,26.09,59.27,109.32,74.66,139.2,3.42,6.64,8,10.8,15.51,10.8h2.22a19.94,19.94,0,0,0,17.5-10.4L224,383.06S246.12,353.4,243.46,312.4Z"/><path class="cls-8" d="M229.81,270.62l-14.64-247c-2.34.57-4.91,1.15-7.77,1.62l13.89,243.91c.66,7.67-2.38,70.84-11.52,90.94l-46,101.19,39.33-68.67c11.68-19.55,20.68-39.64,25-62l.64-3.32C231.87,311.11,230.82,287.08,229.81,270.62Z"/><path class="cls-1" d="M132.83,2c-1.25,0-77.37,1.72-90.15,14.36-.59.58-.45.83-.15,1.16,4.4,4.89,42.16,9,87.84,9.63,49.32.65,86-3,93.43-9.2,1.87-1.57,2.6-2.95,2.18-4.1C222.83,5.1,168.57,2,132.83,2Z"/><path class="cls-1" d="M50.15,20.64c2.81.69,6.29,1.35,10.35,2L60.9,9a80.75,80.75,0,0,0-10.75,3.1Z"/><path class="cls-1" d="M42.53,17.52a7.58,7.58,0,0,0,2.67,1.59V14.61l0-.12a13.5,13.5,0,0,0-2.47,1.87C42.09,16.94,42.23,17.18,42.53,17.52Z"/><path class="cls-1" d="M207.12,23.27c3-.51,5.68-1.07,8-1.67l-.49-13.42c-2.52-.61-5.39-1.18-8.53-1.69Z"/><path class="cls-1" d="M222.7,10.91l.68,7.34c.14-.1.29-.2.41-.3,1.87-1.57,2.6-2.95,2.18-4.1S224.46,11.81,222.7,10.91Z"/></g><path class="cls-1" d="M33.16,313A133.56,133.56,0,0,0,48.67,381.4c18.5,34.77,43.74,79.61,58.94,101.16,5,6.57,12.07,8.65,18.94,8.72a36.59,36.59,0,0,0,28.71-13.94s13.33-15.33,25.35-30.18c16.43-26.24,32-54.52,37.68-65.17,13-24.5,18.15-52.27,18.75-70.5.07-2.18.12-4.49.15-6.91v-10.3L229,139.37c-.08-1.54-.16-3-.24-4.47s-.15-3-.23-4.66a12.58,12.58,0,0,0-1-4.51c-1.94-3.08-21.83,2.71-25.46,4.54-9.37,4.74-22.67,22-35.33,32s-18,14.67-67.8-5.33c-44.39-17.82-57.9,11.38-60.32,17.94Z"/><path class="cls-1" d="M30,346a31,31,0,0,0,.91,4.94Q30.43,348.44,30,346Z"/></g><g id="wineglassRight"><path id="highlight-2" data-name="highlight" class="cls-1" d="M516,207.93c-30.54-1-30.13-16.5-61.58-18.5s-32.45,12.23-56,2.61-38.51-39.75-41.69-57.15c-.42-2.28,0-7.25,1.24-9.17,1.94-3.08,21.83,2.71,25.46,4.54,9.37,4.74,22.67,22,35.33,32s18,14.67,67.8-5.33,60.74,19.21,60.74,19.21S546.52,208.93,516,207.93Z"/><g id="Bubbles-2" data-name="Bubbles"><circle class="cls-2" cx="495.13" cy="235.92" r="4.32"/><circle class="cls-2" cx="427.78" cy="259.32" r="4.32"/><circle class="cls-2" cx="461.8" cy="369.36" r="4.32"/><circle class="cls-2" cx="511.92" cy="281.24" r="2.83"/><circle class="cls-2" cx="448.75" cy="233.47" r="2.83"/><circle class="cls-2" cx="413.89" cy="343.44" r="2.83"/><circle class="cls-2" cx="490.81" cy="343.44" r="2.83"/><circle class="cls-2" cx="471.17" cy="288.2" r="5.05"/><circle class="cls-2" cx="408.83" cy="288.2" r="5.05"/><circle class="cls-2" cx="398.73" cy="240.24" r="5.05"/><circle class="cls-2" cx="443.7" cy="318.88" r="5.05"/><circle class="cls-2" cx="421.77" cy="391.27" r="9.2"/></g><g id="WineGlass-2" data-name="WineGlass"><g class="cls-3"><path class="cls-4" d="M317.63,950.59a13,13,0,0,1,8.75-11.23l74.39-25.52a51.55,51.55,0,0,0,34.82-48.76V580.58a152.79,152.79,0,0,0-17-70.13l-66.2-128.14A131.39,131.39,0,0,1,338,313.46L356.69,25.9c.56-5.69.3-9.19.77-11.34,0,1.6,1,3.26,3,4.93,8.6,7.21,47.21,9.73,83.93,9.73,3.63,0,7.23,0,10.79-.07,39-.52,83.59-4,89.29-10.29a2.72,2.72,0,0,0,.76-1.8c1.13,12.32,20,296.4,20,296.4a131.39,131.39,0,0,1-14.38,68.85l-66.2,128.14a152.79,152.79,0,0,0-17,70.13V865.07a51.55,51.55,0,0,0,34.82,48.76l74.39,25.52a13,13,0,0,1,8.75,11.23,6.26,6.26,0,0,1-.08,1.29c-3,10-61.76,18-133.87,18-72.3,0-131.22-8-133.89-18A4.83,4.83,0,0,1,317.63,950.59Z"/></g><path class="cls-5" d="M360.47,19.49c-2.58-2.16-3.51-4.29-2.78-6.32C362.28.43,441.88,0,452.42,0h.32c3.18.06,78.14,1.7,91.51,14.93a2.64,2.64,0,0,1,.23,3.93c-5.7,6.33-50.28,9.77-89.29,10.29-3.56,0-7.17.07-10.79.07C407.68,29.22,369.07,26.7,360.47,19.49Zm-.91-5.64c-.42,1.16.32,2.54,2.18,4.1,7.44,6.24,44.11,9.85,93.43,9.2,45.68-.6,83.44-4.75,87.84-9.63.3-.33.44-.58-.15-1.16C530.08,3.72,454,2,452.71,2,417,2,362.71,5.1,359.56,13.85Z"/><path class="cls-6" d="M445.45,895.93l-1.54.23a44.73,44.73,0,0,0-13.48,4.69h0s13-9.07,14.36-36.52l-2.54-316.44-6-15.4s13.83,11.3,29.5,1.57l-5.57,12.28c0,.18,0,.36,0,.55V867.28h0s0,2.52,0,3.37c.33,7.16-1.76,14.47,8.57,24.92,1.71,1.73,6.62,7.1,6.62,7.1A45.7,45.7,0,0,0,445.45,895.93Z"/><path class="cls-6" d="M541.91,937.3c3.29,1.25,16.67,4.71,18.66,8.47l-83.22-12.44a184.06,184.06,0,0,0-49-.73l-78.51,9.35c4.46-2.13,10.71-3.81,12.9-4.64l44.9-15.17A126.15,126.15,0,0,0,428.27,913l.3-.16,7.55,3.35a46.07,46.07,0,0,0,34.1,1.31l8.11-2.88a125.92,125.92,0,0,0,24.6,10.62Z"/><path class="cls-7" d="M317.63,950.59a4.83,4.83,0,0,0,.06,1.21c2.67,10,61.59,18,133.89,18,72.11,0,130.9-8,133.87-18a6.26,6.26,0,0,0,.08-1.29l-.15-1a12.32,12.32,0,0,0-2.33-5.57l-.64-.86c0,.16-5.16,19.26-131.28,19.26-70.64,0-128.65-8.08-131.27-18.11a12.51,12.51,0,0,0-1.57,3.12A16.18,16.18,0,0,0,317.63,950.59Z"/><path class="cls-8" d="M580.54,945.53c-4.43-4-20.58-7.34-24.15-8.69l-45.61-14.08a148,148,0,0,1-34.34-15.68l-1.07-.66a45.33,45.33,0,0,0-29.92-6.8l-1.54.23a44.82,44.82,0,0,0-14.17,5.1l-6.31,3.49a147.58,147.58,0,0,1-24.13,10.65l-52.53,17.75c-4,1.52-24.12,4.91-25.68,9.43,9.08,9.1,64.05,16.15,130,16.15C550,962.42,574.57,950.68,580.54,945.53Zm-19.72,1a5.48,5.48,0,0,1-.06,1c-2.12,7.91-67.8,11.59-119.39,11.59s-94.42-4.07-96.33-12a4.23,4.23,0,0,1,0-1c.3-4,14.24-7.56,17.75-8.9l44.9-15.17A126.15,126.15,0,0,0,428.27,913l5.4-3a38.31,38.31,0,0,1,12.11-4.36l1.31-.2a38.74,38.74,0,0,1,25.57,5.81l.91.57a126.52,126.52,0,0,0,29.35,13.4l39,12C545.43,938.64,560.51,942.51,560.81,946.56Z"/><path class="cls-6" d="M430.43,900.85a44.73,44.73,0,0,1,13.48-4.69l1.54-.23a45.7,45.7,0,0,1,29.92,6.73s-4.91-5.37-6.62-7.1c-10.33-10.45-8.24-17.76-8.57-24.92,0-.84,0-3.37,0-3.37h0V546.88c0-.19,0-.37,0-.55l5.57-12.28h0a15.22,15.22,0,0,0-9.81,14l-3,181.14L455,878.84a12.77,12.77,0,0,1-10,12.63C440.62,892.44,435.4,895,430.43,900.85Z"/><path class="cls-6" d="M434.37,520.6l-20.48-38.73,6-12h0a219,219,0,0,0,15.73,20.49,15.68,15.68,0,0,0,3.75,3h0l7,36.86h0A19.93,19.93,0,0,1,434.37,520.6Z"/><path class="cls-6" d="M363.11,385.88c1.24-2.37,24.85,34.27,34.26,49.1a82.6,82.6,0,0,0,8.12,10.7c21.66,24.28,25.36,40.26,46.8,39.73,20.34-.5,34-4.49,83.26-101.6,19.4-34.7,5,4,5,4s-63.17,117.24-71,132.38c-3.42,6.64-8,10.8-15.51,10.8h-2.22a19.94,19.94,0,0,1-17.5-10.4Z"/><path class="cls-9" d="M531.59,331.67s1.67,48-45,118.51c0,0,14.17-23.15,22.5-56.85,9.07-36.65,12.37-83.31,12.74-61.94C522.12,348.62,531.59,331.67,531.59,331.67Z"/><path class="cls-6" d="M430.43,476.4h0c5.85,6,12,9.26,21.85,9s18-1.3,29.37-13.09c0,0,26.76-18-11.23,46.27h0l-.83,1.6c-3.42,6.64-8,10.8-15.51,10.8h-2.22a19.94,19.94,0,0,1-17.5-10.4l-1.62-3.07S392.09,444.83,430.43,476.4Z"/><path class="cls-8" d="M537.59,313.67c-1.06-44.73-10.31-242.18-12.53-289,3.92-.58,7.4-1.22,10.34-1.92l11.83,293.79c1.1,23.09-7,44.6-17.41,65.43L516,405.72S538.65,358.56,537.59,313.67Z"/><path class="cls-9" d="M517,25.7l11.74,291.5c-1.69,21.28-4.36.44-4.82-4.53C519.57,266,513.76,77.33,511.5,26.28,513.38,26.1,515.21,25.9,517,25.7Z"/><path class="cls-6" d="M342.09,312.4c2.4-37,14.7-252.73,17.16-294.07.07.06.65.65.72.71a9.94,9.94,0,0,0,2,1.46c-.68,19.65-3.87,88.44-5.18,114.39-2.24,44.2-9.65,134-8.25,176.58.6,18.23,5.75,46,18.75,70.5,9.33,17.58,45.78,83.24,68.33,108.42,7.85,8.76,29.12,8.69,36.67-.33C486,473.58,515.82,421,536.87,381.4A133.56,133.56,0,0,0,552.38,313L540.8,21.21a17.79,17.79,0,0,0,2.35-1l2.51,51.21,11.92,231.69s4,46-13.33,78C530.12,407.15,485,490.38,469.6,520.26c-3.42,6.64-8,10.8-15.51,10.8h-2.22a19.94,19.94,0,0,1-17.5-10.4l-72.79-137.6S339.42,353.4,342.09,312.4Z"/><path class="cls-8" d="M355.73,270.62l14.64-247c2.34.57,4.91,1.15,7.77,1.62L364.25,269.17c-.66,7.67,2.38,70.84,11.52,90.94l46,101.19-39.33-68.67c-11.68-19.55-20.68-39.64-25-62l-.64-3.32C353.67,311.11,354.72,287.08,355.73,270.62Z"/><path class="cls-1" d="M452.71,2c1.25,0,77.37,1.72,90.15,14.36.59.58.45.83.15,1.16-4.4,4.89-42.16,9-87.84,9.63-49.32.65-86-3-93.43-9.2-1.87-1.57-2.6-2.95-2.18-4.1C362.71,5.1,417,2,452.71,2Z"/><path class="cls-1" d="M535.4,20.64c-2.81.69-6.29,1.35-10.35,2L524.64,9a80.75,80.75,0,0,1,10.75,3.1Z"/><path class="cls-1" d="M543,17.52a7.58,7.58,0,0,1-2.67,1.59V14.61l0-.12a13.5,13.5,0,0,1,2.47,1.87C543.45,16.94,543.31,17.18,543,17.52Z"/><path class="cls-1" d="M378.42,23.27c-3-.51-5.68-1.07-8-1.67l.49-13.42c2.52-.61,5.39-1.18,8.53-1.69Z"/><path class="cls-1" d="M362.84,10.91l-.68,7.34c-.14-.1-.29-.2-.41-.3-1.87-1.57-2.6-2.95-2.18-4.1S361.08,11.81,362.84,10.91Z"/></g><path class="cls-1" d="M552.38,313a133.56,133.56,0,0,1-15.51,68.43c-18.5,34.77-43.74,79.61-58.94,101.16-5,6.57-12.07,8.65-18.94,8.72a36.59,36.59,0,0,1-28.71-13.94S417,462,404.93,447.15c-16.43-26.24-32-54.52-37.68-65.17-13-24.5-18.15-52.27-18.75-70.5-.07-2.18-.12-4.49-.15-6.91v-10.3l8.16-154.9c.08-1.54.16-3,.24-4.47s.15-3,.23-4.66a12.58,12.58,0,0,1,1-4.51c1.94-3.08,21.83,2.71,25.46,4.54,9.37,4.74,22.67,22,35.33,32s18,14.67,67.8-5.33c44.39-17.82,57.9,11.38,60.32,17.94Z"/><path class="cls-1" d="M555.52,346a31,31,0,0,1-.91,4.94Q555.11,348.44,555.52,346Z"/></g></g></g></g></svg>