<svg xmlns="http://www.w3.org/2000/svg" viewBox="0 0 1152.65 1300.55"><defs><style>.cls-1,.cls-10,.cls-4,.cls-6,.cls-8,.cls-9{fill:#fff;}.cls-1,.cls-3{opacity:0.15;}.cls-2{fill:none;stroke:#fff;stroke-miterlimit:10;}.cls-2,.cls-9{opacity:0.3;}.cls-5{fill:#fffafe;}.cls-5,.cls-7{opacity:0.5;}.cls-6{opacity:0.2;}.cls-7{fill:#fffdfd;}.cls-8{opacity:0.4;}.cls-10{opacity:0.45;}</style></defs><title>WineGlass-s2</title><g id="Layer_2" data-name="Layer 2"><g id="HeartSpill"><g id="Slide2"><g id="tiltWineglassLeft"><path id="Liquid" class="cls-1" d="M346.64,574a11,11,0,0,0-14.76,2.62c-15.51,20.69-47.81,48.11-46.72,68.88,2.07,39.33,6,90.64,10.67,116.59,1.73,8.05,7.28,12.94,13.48,15.91a36.59,36.59,0,0,0,31.91-.5s18.11-8.06,35.1-16.34a11.29,11.29,0,0,0,1.2-.68c25.79-16.74,51.56-35.55,61.11-42.76,22.14-16.71,38.54-39.7,46.79-56,1-1.95,2-4,3.05-6.2l4.23-9.07q.12-.26.23-.53l58-143.56,1.68-4.15,1.76-4.32a12.58,12.58,0,0,0,1-4.51c-.46-3.62,17.2-125.77,38-134.33,67.25-27.74-30.65-497.93-27.88-199.31.55,59.33,35.39,56.53,35.8,74,2,83.85-50.17,63.77-51.74,74.67C540.48,366.78,440.59,346,470,381c55.1,65.44,31,115.11-3.8,147.83C435.46,557.71,395.05,574,353,575.75a10.91,10.91,0,0,1-6.31-1.74Z"/><g id="Bubbles"><circle class="cls-2" cx="453.18" cy="658.71" r="4.32" transform="translate(-335.34 791.04) rotate(-65)"/><circle class="cls-2" cx="471.48" cy="583.49" r="4.32" transform="translate(-256.6 764.2) rotate(-65)"/><circle class="cls-2" cx="394.25" cy="671.78" r="4.32" transform="translate(-381.21 745.18) rotate(-65)"/><circle class="cls-2" cx="492.11" cy="576" r="2.83" transform="translate(-237.9 778.58) rotate(-65)"/><circle class="cls-2" cx="448.86" cy="606.01" r="2.83" transform="translate(-290.07 756.7) rotate(-65)"/><circle class="cls-2" cx="424.56" cy="679.78" r="2.83" transform="translate(-370.96 777.27) rotate(-65)"/><circle class="cls-2" cx="418.91" cy="650.83" r="2.83" transform="translate(-347.98 755.43) rotate(-65)"/><circle class="cls-2" cx="451.03" cy="632.36" r="5.05" transform="translate(-312.7 773.88) rotate(-65)"/><circle class="cls-2" cx="465.48" cy="624.53" r="5.05" transform="translate(-297.26 782.46) rotate(-65)"/><circle class="cls-2" cx="484.23" cy="603.29" r="5.05" transform="translate(-267.18 787.19) rotate(-65)"/><circle class="cls-2" cx="427.38" cy="637.42" r="5.05" transform="translate(-330.93 755.38) rotate(-65)"/><circle class="cls-2" cx="378.12" cy="718.23" r="9.2" transform="translate(-432.62 757.39) rotate(-65)"/></g><g id="Bubbles-2" data-name="Bubbles"><circle class="cls-2" cx="374.71" cy="669.15" r="3.61" transform="translate(-367.65 861.68) rotate(-75.29)"/><circle class="cls-2" cx="378.53" cy="604.49" r="3.61" transform="translate(-302.25 817.14) rotate(-75.29)"/><circle class="cls-2" cx="328.15" cy="688.71" r="3.61" transform="translate(-421.31 831.26) rotate(-75.29)"/><circle class="cls-2" cx="394.4" cy="595.24" r="2.36" transform="matrix(0.25, -0.97, 0.97, 0.25, -281.47, 825.59)"/><circle class="cls-2" cx="363.28" cy="626.4" r="2.36" transform="translate(-334.84 818.74) rotate(-75.29)"/><circle class="cls-2" cx="354.3" cy="690.77" r="2.36" transform="matrix(0.25, -0.97, 0.97, 0.25, -403.79, 858.08)"/><circle class="cls-2" cx="345.32" cy="667.78" r="2.36" transform="matrix(0.25, -0.97, 0.97, 0.25, -388.25, 832.24)"/><circle class="cls-2" cx="369" cy="647.78" r="4.23" transform="translate(-351.24 840.22) rotate(-75.29)"/><circle class="cls-2" cx="379.73" cy="639.17" r="4.23" transform="translate(-334.9 844.18) rotate(-75.29)"/><circle class="cls-2" cx="391.99" cy="618.88" r="4.23" transform="translate(-306.13 840.89) rotate(-75.29)"/><circle class="cls-2" cx="350.3" cy="655.48" r="4.23" transform="translate(-372.64 827.87) rotate(-75.29)"/><circle class="cls-2" cx="321.82" cy="729.37" r="7.7" transform="matrix(0.25, -0.97, 0.97, 0.25, -465.35, 855.46)"/></g><g id="WineGlass"><g class="cls-3"><path class="cls-4" d="M243.31,1254a13,13,0,0,0-3.18-13.87l-56.63-54.57a51.55,51.55,0,0,1-11-58.9L292.78,868.83a152.79,152.79,0,0,1,45.09-56.35L452,724.32A131.39,131.39,0,0,0,494.15,668L598.7,399.45c1.9-5.39,3.61-8.45,4.09-10.6-.69,1.45-2.3,2.52-4.81,3.19-10.84,2.9-46.9-11.13-80.18-26.65q-4.93-2.3-9.75-4.63c-35.14-17-74.09-38.91-76.57-47.06a2.72,2.72,0,0,1,.07-1.95C425.32,322.44,288.19,572,288.19,572a131.39,131.39,0,0,0-16.07,68.48L278,784.54a152.79,152.79,0,0,1-14.19,70.76L143.55,1113.14a51.55,51.55,0,0,1-52.16,29.48l-78.21-8.3a13,13,0,0,0-12.67,6.48A6.26,6.26,0,0,0,0,1142c-1.53,10.31,48.39,42.38,113.74,72.85,65.53,30.56,122.31,48.19,129,40.24A4.83,4.83,0,0,0,243.31,1254Z"/></g><path class="cls-5" d="M517.8,365.4q-4.93-2.3-9.75-4.63c-35.14-17-74.09-38.91-76.57-47.06a2.64,2.64,0,0,1,1.87-3.46c17.71-6.34,86.33,23.86,89.25,25.14h0l.27.13c9.56,4.46,81.52,38.48,80.29,52-.2,2.15-1.94,3.68-5.19,4.55C587.14,394.95,551.08,380.92,517.8,365.4Zm4-28.18c-1.14-.5-70.85-31.14-87.77-25.09-.78.28-.76.56-.63,1,1.92,6.29,34.39,26,75.54,45.85,44.42,21.43,79.18,33.66,88.56,31.15,2.35-.63,3.6-1.57,3.71-2.8C602,378.06,554.18,352.27,521.77,337.21Z"/><path class="cls-6" d="M150.56,1150.46q.65.42,1.29.86a44.73,44.73,0,0,1,10.24,9.95h0s-8-13.73,2.42-39.17l136-285.72,12-11.41s-17.31,4.4-27.4-11L285,827.4c-.09.16-.18.32-.26.49l-135.4,290.38h0s-1,2.3-1.42,3.05c-3.33,6.35-4.52,13.86-18.3,19-2.28.84-9,3.64-9,3.64A45.7,45.7,0,0,1,150.56,1150.46Z"/><path class="cls-6" d="M45.65,1147.19c-3.51-.26-17.1-2.77-20.49-.21l80.68,23.89a184.06,184.06,0,0,1,44.71,20l67.21,41.66c-3.15-3.82-8.1-8-9.73-9.66l-34.28-32.72a126.15,126.15,0,0,1-14.84-17l-.2-.27-8.26-.15A46.07,46.07,0,0,1,119,1159.57l-6.13-6a125.92,125.92,0,0,1-26.79-.78Z"/><path class="cls-7" d="M243.31,1254a4.83,4.83,0,0,1-.56,1.07c-6.66,8-63.44-9.68-129-40.24C48.42,1184.37-1.5,1152.3,0,1142a6.26,6.26,0,0,1,.47-1.2l.55-.84a12.32,12.32,0,0,1,4.47-4.07l.94-.5c-.1.14-3.46,19.63,110.84,72.93,64,29.85,120,47,126.62,39.07a12.51,12.51,0,0,1,.11,3.49A16.18,16.18,0,0,1,243.31,1254Z"/><path class="cls-8" d="M117.32,1208.31c59.8,27.89,112.6,44.72,124.68,40.32.5-4.76-16.31-16.34-19.29-19.4l-40.11-38.29a147.58,147.58,0,0,1-17.37-19.85l-4.25-5.83a44.82,44.82,0,0,0-10.69-10.61q-.64-.44-1.29-.86a45.33,45.33,0,0,0-30-6.48l-1.25.15a148,148,0,0,1-37.75-.3l-47.29-6.51c-3.81-.28-19.87-4-25.56-2.33C10.4,1145.51,27.67,1166.51,117.32,1208.31Zm-71.66-61.13,40.42,5.57a126.52,126.52,0,0,0,32.26.26l1.07-.13a38.74,38.74,0,0,1,25.63,5.54l1.11.73a38.31,38.31,0,0,1,9.13,9.07l3.63,5a126.15,126.15,0,0,0,14.84,17L208,1222.91c2.62,2.7,13.77,11.77,12.33,15.56a4.23,4.23,0,0,1-.44.85c-5.09,6.39-45.5-8-92.38-29.82s-104.73-52.89-103.31-61a5.48,5.48,0,0,1,.38-.95C26.6,1144,41.9,1146.91,45.65,1147.19Z"/><path class="cls-6" d="M162.09,1161.27a44.73,44.73,0,0,0-10.24-9.95q-.64-.44-1.29-.86a45.7,45.7,0,0,0-30-6.54s6.72-2.8,9-3.64c13.78-5.11,15-12.61,18.3-19,.39-.75,1.42-3.05,1.42-3.05h0l135.4-290.38c.08-.17.17-.32.26-.49l.14-13.49h0a15.22,15.22,0,0,1,3,16.81L214.29,996.17l-65.18,134.75a12.77,12.77,0,0,0,3.76,15.68C156.41,1149.33,160.07,1153.84,162.09,1161.27Z"/><path class="cls-6" d="M319.22,815l34.93-26.44-.32-13.43h0A219,219,0,0,1,330.92,787a15.68,15.68,0,0,1-4.67,1.14h0l-21.9,30.46h0A19.93,19.93,0,0,0,319.22,815Z"/><path class="cls-6" d="M440.75,723c-.12-2.68-37,20.56-51.8,30a82.6,82.6,0,0,1-11.89,6.27c-29.89,12.85-40,25.77-59.2,16.23-18.23-9.05-28.88-18.43-32.52-127.27-2.92-39.65-6.23,1.51-6.23,1.51s7.7,133,8.37,150c.29,7.46,2.72,13.19,9.49,16.34l2,.94a19.94,19.94,0,0,0,20.26-2Z"/><path class="cls-9" d="M311,602.66s-21.8,42.8-9.3,126.43c0,0-3.06-27,3.63-61,7.27-37,24-80.73,14.63-61.52C312.38,622,311,602.66,311,602.66Z"/><path class="cls-6" d="M341.47,776.58h0c-7.83,2.95-14.75,3.33-23.62-1.07s-15.77-8.78-21.09-24.28c0,0-16.65-27.61-9.38,46.68h0c0,.69.06,1.3.08,1.8.29,7.46,2.72,13.19,9.49,16.34l2,.94a19.94,19.94,0,0,0,20.26-2l2.77-2.09S389.57,764.18,341.47,776.58Z"/><path class="cls-8" d="M313.13,583.81c19.86-40.09,111.7-215.13,133.5-256.65-3.31-2.19-6.19-4.24-8.56-6.1L303.19,582.32c-10.76,20.46-12.5,43.38-11.87,66.66l2.49,27.39S293.2,624,313.13,583.81Z"/><path class="cls-9" d="M453.5,331.53,319.67,590.75c-7.46,20,3.77,2.24,6.28-2.06,23.65-40.46,108.66-209,132.28-254.31Q455.79,332.93,453.5,331.53Z"/><path class="cls-6" d="M490.85,665.28C504.3,630.76,584.34,430,599.59,391.51l-1,.34a9.94,9.94,0,0,1-2.41.49c-7.68,18.1-33.87,81.78-43.65,105.86-16.65,41-47.87,125.5-67.15,163.53-8.25,16.27-24.65,39.26-46.79,56-15.89,12-76.67,56.09-107.75,69.38-10.81,4.62-30.07-4.43-33.09-15.8-5.52-20.76-10.29-81-12.64-125.79A133.56,133.56,0,0,1,300,576.92L433.81,317.39a17.79,17.79,0,0,1-1.69-1.95L408.21,360.8,299.49,565.75s-23.07,40-20.88,76.33c1.78,29.61,7.52,124.13,8.83,157.71.29,7.46,2.72,13.19,9.49,16.34l2,.94a19.94,19.94,0,0,0,20.26-2l124.12-94S475.94,703.57,490.85,665.28Z"/><path class="cls-8" d="M496.14,621.66l91.11-230c-2.36-.47-4.94-1-7.72-1.82L489,616.73c-2.64,7.23-32.1,63.2-48.87,77.55l-84.45,72.26,64.67-45.61c18.85-12.78,35.5-27.19,48.86-45.63l2-2.74C480.9,659.22,490.1,637,496.14,621.66Z"/><path class="cls-1" d="M521.77,337.21c-1.14-.5-70.85-31.14-87.77-25.09-.78.28-.76.56-.63,1,1.92,6.29,34.39,26,75.54,45.85,44.42,21.43,79.18,33.66,88.56,31.15,2.35-.63,3.6-1.57,3.71-2.8C602,378.06,554.18,352.27,521.77,337.21Z"/><path class="cls-1" d="M439,319.16c2.25,1.81,5.13,3.88,8.56,6.15l6.09-12.13a80.75,80.75,0,0,0-11.05-1.74Z"/><path class="cls-1" d="M433.38,313.11a7.58,7.58,0,0,0,1.75,2.57l1.9-4.07v-.13a13.5,13.5,0,0,0-3,.65C433.22,312.41,433.25,312.69,433.38,313.11Z"/><path class="cls-1" d="M580.11,387.89c2.94.8,5.6,1.43,7.94,1.86l5.23-12.37c-2-1.62-4.39-3.34-7-5.13Z"/><path class="cls-1" d="M599.46,383.27,597,390.22c.17,0,.35-.06.5-.1,2.35-.63,3.6-1.57,3.71-2.8S600.67,384.83,599.46,383.27Z"/></g><path id="spill" class="cls-1" d="M478.16,480.73A45.84,45.84,0,0,0,488,450.79c-.39-11.72.86-30.7,7.95-58.36,13.33-52-18.67-58.69,17.33-98.69s111.94,15.13,80-52.1-45.92-75.23-37.61-97.9,61.69-50.82,68.52-61.6C646,47.74,630.65,32.4,626,21.07s-1.33-28,6-18-4.14,10.67,6.93,16,11.74-8,17.07-4,17.33,6.67,8,26.67-18,8-10,34.67,22.67,32,8,46.67,3.49-2.67-26.59,22.67-27,47.85-19.23,57.59,31,1.07,22.75,20.41-15.6,8.54-26.26,35.27S616,299.78,610,311.76s-10,19.31-33.33,28.64-3.33,32.67-14,68-42,153.78-69.67,145.67c-28-8.23-154.34,43.4-163.73,34.73C321.18,581.36,457.07,507.4,478.16,480.73Z"/><path id="spill-2" data-name="spill" class="cls-9" d="M642.15,263.82c-.24-17.47-7.5-24.75-19.5-45.25s-11-37.5,9.5-77.5,6-24,6.76-57.5-14.26-9.5-20.25-20.5-.51-8,0-18-14-14-8.11,0-5.89,11.5-13.57,20,8.67,19,8.67,19,15.5,2.5-8.67,54.5c-21.35,45.92-.18,73.52,5.09,106.2.31,4,.68,7.73,1.08,11.36,0,.65,0,1.29,0,1.94,0,39-40.54,37.5-69.54,103.87s-24,19.63-35.5,64.89-69.71-21.52-62.53,11.3c.51,2.32,2.17,5.72,4.39,9.52a41.87,41.87,0,0,1-6.57,50.91l-.14.13c-5.53,7.24-95.17,68.41-95.9,69.38C292,628.84,431.82,562.51,442,562.44c50.57-.33,51.17-82.37,81.67-92.87s25.5-43.5,35.72-77.14c3.86-12.7,9.75-22.22,20.75-27.81,7.14-3.95,10.08-8.3,13.17-9.57,25.73-10.62,41.56-31.13,44.93-52.15C640.83,293.78,642.38,280.67,642.15,263.82Z"/></g><g id="wineglassRight"><path id="highlight" class="cls-1" d="M756.63,689.29c-30.55-.35-21.26-88.27-50.61-76.79s-18.64-31.27-44-30.05-51.71-19.75-61.94-34.18c-1.34-1.89-50.06-128.89-41.5-129.15,80.84-2.49,34.71-68.22,38.4-134.55,24.76-445.1,55.18,258.59,70.88,262.3s-2.26-43.27,31.18-1.3c8,10,46.11,56,46.11,56S844.65,690.29,756.63,689.29Z"/><g id="Bubbles-3" data-name="Bubbles"><circle class="cls-2" cx="717.94" cy="721.27" r="4.32" transform="translate(-237.56 370.99) rotate(-25)"/><circle class="cls-2" cx="697.3" cy="678.89" r="4.32" transform="translate(-221.58 358.3) rotate(-25)"/><circle class="cls-2" cx="710.33" cy="694.4" r="4.32" transform="translate(-226.92 365.26) rotate(-25)"/><circle class="cls-2" cx="733.17" cy="692.12" r="2.83" transform="translate(-223.81 374.7) rotate(-25)"/><circle class="cls-2" cx="661.88" cy="600.07" r="2.83" transform="translate(-191.59 335.94) rotate(-25)"/><circle class="cls-2" cx="675.27" cy="653.95" r="2.83" transform="translate(-213.1 346.65) rotate(-25)"/><circle class="cls-2" cx="681.17" cy="674.57" r="2.83" transform="translate(-221.26 351.08) rotate(-25)"/><circle class="cls-2" cx="738.23" cy="719.93" r="5.05" transform="translate(-235.09 379.44) rotate(-25)"/><circle class="cls-2" cx="681.17" cy="632.36" r="5.05" transform="translate(-203.43 347.12) rotate(-25)"/><circle class="cls-2" cx="656.82" cy="616.71" r="5.05" transform="translate(-199.1 335.37) rotate(-25)"/><circle class="cls-2" cx="694.42" cy="651.13" r="5.05" transform="translate(-210.12 354.48) rotate(-25)"/><circle class="cls-2" cx="747.43" cy="746.65" r="9.2" transform="translate(-245.52 385.83) rotate(-25)"/></g><g id="Bubbles-4" data-name="Bubbles"><circle class="cls-2" cx="777.24" cy="725.39" r="2.95" transform="translate(-233.74 396.44) rotate(-25)"/><circle class="cls-2" cx="791.34" cy="754.31" r="2.95" transform="translate(-244.64 405.11) rotate(-25)"/><circle class="cls-2" cx="782.44" cy="743.72" r="2.95" transform="translate(-241 400.35) rotate(-25)"/><circle class="cls-2" cx="766.85" cy="745.28" r="1.93" transform="translate(-243.12 393.91) rotate(-25)"/><circle class="cls-2" cx="805.75" cy="773.97" r="1.93" transform="translate(-251.6 413.04) rotate(-25)"/><circle class="cls-2" cx="791.57" cy="767.94" r="1.93" transform="translate(-250.38 406.48) rotate(-25)"/><circle class="cls-2" cx="802.34" cy="757.26" r="1.93" transform="translate(-244.86 410.03) rotate(-25)"/><circle class="cls-2" cx="763.4" cy="726.3" r="3.45" transform="translate(-235.42 390.68) rotate(-25)"/><circle class="cls-2" cx="787.55" cy="782.68" r="3.45" transform="translate(-256.99 406.16) rotate(-25)"/><circle class="cls-2" cx="804.16" cy="793.36" r="3.45" transform="translate(-259.94 414.19) rotate(-25)"/><circle class="cls-2" cx="778.51" cy="769.87" r="3.45" transform="translate(-252.42 401.14) rotate(-25)"/><circle class="cls-2" cx="757.12" cy="708.06" r="6.28" transform="translate(-228.3 386.31) rotate(-25)"/></g><g id="WineGlass-2" data-name="WineGlass"><g class="cls-3"><path class="cls-4" d="M909.34,1297.58a13,13,0,0,1,3.18-13.87l56.63-54.57a51.55,51.55,0,0,0,11-58.9L859.87,912.4A152.79,152.79,0,0,0,814.78,856L700.63,767.88a131.39,131.39,0,0,1-42.13-56.32L554,443c-1.9-5.39-3.61-8.45-4.09-10.6.69,1.45,2.3,2.52,4.81,3.19,10.84,2.9,46.9-11.13,80.18-26.65q4.93-2.3,9.75-4.63c35.14-17,74.09-38.91,76.57-47.06a2.72,2.72,0,0,0-.07-1.95C727.33,366,864.46,615.52,864.46,615.52A131.39,131.39,0,0,1,880.53,684l-5.84,144.11a152.79,152.79,0,0,0,14.19,70.76l120.23,257.83a51.55,51.55,0,0,0,52.16,29.48l78.21-8.3a13,13,0,0,1,12.67,6.48,6.26,6.26,0,0,1,.47,1.2c1.53,10.31-48.39,42.38-113.74,72.85-65.53,30.56-122.31,48.19-129,40.24A4.83,4.83,0,0,1,909.34,1297.58Z"/></g><path class="cls-5" d="M554.67,435.61c-3.25-.87-5-2.4-5.19-4.55-1.22-13.48,70.73-47.51,80.29-52L630,379h0c2.91-1.29,71.53-31.48,89.25-25.14a2.64,2.64,0,0,1,1.87,3.46c-2.49,8.15-41.44,30.11-76.57,47.06q-4.81,2.32-9.75,4.63C601.57,424.48,565.51,438.51,554.67,435.61Zm-3.21-4.73c.11,1.23,1.36,2.17,3.71,2.8,9.38,2.51,44.14-9.71,88.56-31.15,41.15-19.85,73.62-39.57,75.54-45.85.13-.43.15-.71-.63-1-16.92-6.05-86.63,24.58-87.77,25.09C598.47,395.84,550.62,421.63,551.46,430.88Z"/><path class="cls-6" d="M1002.09,1194q-.65.42-1.29.86a44.73,44.73,0,0,0-10.24,9.95h0s8-13.73-2.42-39.17l-136-285.72-12-11.41s17.31,4.4,27.4-11l.14,13.49c.09.16.18.32.26.49l135.4,290.38h0s1,2.3,1.42,3.05c3.33,6.35,4.52,13.86,18.3,19,2.28.84,9,3.64,9,3.64A45.7,45.7,0,0,0,1002.09,1194Z"/><path class="cls-6" d="M1107,1190.75c3.51-.26,17.1-2.77,20.49-.21l-80.68,23.89a184.06,184.06,0,0,0-44.71,20l-67.21,41.66c3.15-3.82,8.1-8,9.73-9.66l34.28-32.72a126.15,126.15,0,0,0,14.84-17l.2-.27,8.26-.15a46.07,46.07,0,0,0,31.46-13.22l6.13-6a125.92,125.92,0,0,0,26.79-.78Z"/><path class="cls-7" d="M909.34,1297.58a4.83,4.83,0,0,0,.56,1.07c6.66,8,63.44-9.68,129-40.24,65.35-30.47,115.27-62.54,113.74-72.85a6.26,6.26,0,0,0-.47-1.2l-.55-.84a12.32,12.32,0,0,0-4.47-4.07l-.94-.5c.1.14,3.46,19.63-110.84,72.93-64,29.85-120,47-126.62,39.07a12.51,12.51,0,0,0-.11,3.49A16.18,16.18,0,0,0,909.34,1297.58Z"/><path class="cls-8" d="M1145.48,1181.89c-5.69-1.72-21.75,2-25.56,2.33l-47.29,6.51a148,148,0,0,1-37.75.3l-1.25-.15a45.33,45.33,0,0,0-30,6.48q-.65.42-1.29.86a44.82,44.82,0,0,0-10.69,10.61l-4.25,5.83a147.58,147.58,0,0,1-17.37,19.85l-40.11,38.29c-3,3.06-19.78,14.64-19.29,19.4,12.08,4.41,64.88-12.43,124.68-40.32C1125,1210.08,1142.25,1189.07,1145.48,1181.89Zm-17.44,9.27a5.48,5.48,0,0,1,.38.95c1.42,8.07-56.55,39.16-103.31,61s-87.29,36.21-92.38,29.82a4.23,4.23,0,0,1-.44-.85c-1.44-3.8,9.71-12.87,12.33-15.56l34.28-32.72a126.15,126.15,0,0,0,14.84-17l3.63-5a38.31,38.31,0,0,1,9.13-9.07l1.11-.73a38.74,38.74,0,0,1,25.63-5.54l1.07.13a126.52,126.52,0,0,0,32.26-.26l40.42-5.57C1110.75,1190.48,1126.05,1187.61,1128,1191.15Z"/><path class="cls-6" d="M990.56,1204.83a44.73,44.73,0,0,1,10.24-9.95q.64-.44,1.29-.86a45.7,45.7,0,0,1,30-6.54s-6.72-2.8-9-3.64c-13.78-5.11-15-12.61-18.3-19-.39-.75-1.42-3.05-1.42-3.05h0L867.92,871.46c-.08-.17-.17-.32-.26-.49l-.14-13.49h0a15.22,15.22,0,0,0-3,16.81l73.82,165.44,65.18,134.75a12.77,12.77,0,0,1-3.76,15.68C996.24,1192.9,992.58,1197.41,990.56,1204.83Z"/><path class="cls-6" d="M833.43,858.55,798.5,832.1l.32-13.43h0a219,219,0,0,0,22.92,11.92,15.68,15.68,0,0,0,4.67,1.14h0l21.9,30.46h0A19.93,19.93,0,0,1,833.43,858.55Z"/><path class="cls-6" d="M711.9,766.56c.12-2.68,37,20.56,51.8,30a82.6,82.6,0,0,0,11.89,6.27c29.89,12.85,40,25.77,59.2,16.23C853,810,863.67,800.65,867.31,691.81c2.92-39.65,6.23,1.51,6.23,1.51s-7.7,133-8.37,150c-.29,7.46-2.72,13.19-9.49,16.34l-2,.94a19.94,19.94,0,0,1-20.26-2Z"/><path class="cls-9" d="M841.68,646.22s21.8,42.8,9.3,126.43c0,0,3.06-27-3.63-61-7.27-37-24-80.73-14.63-61.52C840.27,665.58,841.68,646.22,841.68,646.22Z"/><path class="cls-6" d="M811.18,820.15h0c7.83,2.95,14.75,3.33,23.62-1.07s15.77-8.78,21.09-24.28c0,0,16.65-27.61,9.38,46.68h0c0,.69-.06,1.3-.08,1.8-.29,7.46-2.72,13.19-9.49,16.34l-2,.94a19.94,19.94,0,0,1-20.26-2l-2.77-2.09S763.08,807.74,811.18,820.15Z"/><path class="cls-8" d="M839.51,627.37C819.65,587.28,727.82,412.25,706,370.72c3.31-2.19,6.19-4.24,8.56-6.1L849.46,625.89c10.76,20.46,12.5,43.38,11.87,66.66l-2.49,27.39S859.45,667.61,839.51,627.37Z"/><path class="cls-9" d="M699.15,375.09,833,634.31c7.46,20-3.77,2.24-6.28-2.06C803,591.79,718,423.25,694.42,377.94Q696.86,376.5,699.15,375.09Z"/><path class="cls-6" d="M661.79,708.84c-13.44-34.52-93.48-235.27-108.73-273.77l1,.34a9.94,9.94,0,0,0,2.41.49c7.68,18.1,33.87,81.78,43.65,105.86,16.65,41,47.87,125.5,67.15,163.53,8.25,16.27,24.65,39.26,46.79,56,15.89,12,76.67,56.09,107.75,69.38,10.81,4.62,30.07-4.43,33.09-15.8,5.52-20.76,10.29-81,12.64-125.79a133.56,133.56,0,0,0-14.86-68.58L718.83,361a17.79,17.79,0,0,0,1.69-1.95l23.92,45.35L853.16,609.31s23.07,40,20.88,76.33c-1.78,29.61-7.52,124.13-8.83,157.71-.29,7.46-2.72,13.19-9.49,16.34l-2,.94a19.94,19.94,0,0,1-20.26-2l-124.12-94S676.7,747.13,661.79,708.84Z"/><path class="cls-8" d="M656.51,665.22l-91.11-230c2.36-.47,4.94-1,7.72-1.82L663.61,660.3c2.64,7.23,32.1,63.2,48.87,77.55l84.45,72.26L732.27,764.5c-18.85-12.78-35.5-27.19-48.86-45.63l-2-2.74C671.75,702.78,662.55,680.56,656.51,665.22Z"/><path class="cls-1" d="M630.88,380.78c1.14-.5,70.85-31.14,87.77-25.09.78.28.76.56.63,1-1.92,6.29-34.39,26-75.54,45.85-44.42,21.43-79.18,33.66-88.56,31.15-2.35-.63-3.6-1.57-3.71-2.8C550.62,421.63,598.47,395.84,630.88,380.78Z"/><path class="cls-1" d="M713.69,362.72c-2.25,1.81-5.13,3.88-8.56,6.15L699,356.75A80.75,80.75,0,0,1,710.09,355Z"/><path class="cls-1" d="M719.27,356.68a7.58,7.58,0,0,1-1.75,2.57l-1.9-4.07V355a13.5,13.5,0,0,1,3,.65C719.43,356,719.4,356.25,719.27,356.68Z"/><path class="cls-1" d="M572.54,431.45c-2.94.8-5.6,1.43-7.94,1.86l-5.23-12.37c2-1.62,4.39-3.34,7-5.13Z"/><path class="cls-1" d="M553.19,426.84l2.48,6.94c-.17,0-.35-.06-.5-.1-2.35-.63-3.6-1.57-3.71-2.8S552,428.39,553.19,426.84Z"/></g><path class="cls-1" d="M739.27,658.93a26.57,26.57,0,0,0,26.15,25.5c37.81.62-61.78-105.26,102.06,4.63,2.11,1.41-6,90.64-10.67,116.59-1.73,8.05-7.28,12.94-13.48,15.91a36.59,36.59,0,0,1-31.91-.5s-18.56-8.26-35.73-16.64c-26-16.84-52.07-35.88-61.69-43.14-22.14-16.71-38.54-39.7-46.79-56-1-1.95-2-4-3.05-6.2l-4.35-9.34L601.75,545.93l-1.68-4.15-1.76-4.32c-.61-1.73-.71-3.57-1-4.51-31.37-102.64,29.06-81.4,33.83-157.85,3.89-62.35-16.32-124.81-14.5-124.76,6.65.21,69,157.74,4,217.74-30.42,28.08,29.14,61.2,28,67-1.67,8.5-27.18-3.8,24.07,30a331,331,0,0,1,33.65,25.63,95.51,95.51,0,0,1,32.91,68.24Z"/><path class="cls-1" d="M869.43,649.09a31,31,0,0,1,1.27,4.86Q870.09,651.49,869.43,649.09Z"/><path class="cls-9" d="M652.16,176.13c-1.7-15.45-.85-36.05-15.44,5.17-19.9,11-30.89,34.31-20.77,64A405.51,405.51,0,0,1,628.88,308c-2.3,16.61-1.76,40.37-3.88,62.54-8.87,15.32-13.91,39.46-21.45,48.74-16.95,8.46-6.35,23-2.35,35.74-8.12,16.13-3.67,34.41,8.11,34.67.71,9.35-12.41,47.23.17,51.76,3.9,18.82,2,25.24,27.24,21.45,19.93,13.16,23.27-5.14,38.68,7.44,14.89,30.44,31.41,39.14,29.82,32.48,1.59,15.23,28.85,33,25.75,28.21,3.26,20.57,18.37,59.23,14.31,43.83,4.06,15.4,29.47,34.84,28.45,0,10.63-4,11.41-25.61,3-41.73,3.58,9.51,7.47,35.78-10.82-19.51-7.62-32.07-16.53-71.89-27.71-70.23-3.94,16.19-2.19,23.33-2.74,22.76C740.6,579.83,749,590,745.59,593a19.54,19.54,0,0,0-6.32,9.61c-3.08,12-6.82,13.37-15.53-15.39-5-14.78-2.22-8.49-7.41-33.83-.64-9.58-14.85-48.8-22.37-46.55-5.74,12.26-11.84,15.61-6.53,22.64,6.28,19.83,19.41,23.24.9,21.24C671.62,564.51,664,566,652.65,538.4c-11.89-12.22,14.93.49,4-22.77-13.72-12.17-21.16-11.62-20-25.87-4.11-6.35-7.51,25.28,0-18.75,2.21-38.46-11.66-56.94-7.19-80.18-1.72-27.58-.57-5.23,4.53-37.69-.54-41.46,28.77-65.43,22.63-79.36-9-32.76,5.45-32.07-9.05-36.21-10-9.74-25.74-3.24-15-24.48,11-24.94,17.84-20.14,26-23.38C664.2,157.24,663.51,144.2,652.16,176.13Z"/></g><g id="Droplets"><circle class="cls-1" cx="673.35" cy="266.29" r="3.06"/><circle class="cls-9" cx="663.56" cy="301.54" r="3.23"/><circle class="cls-10" cx="697.91" cy="276.57" r="3.23"/><circle class="cls-10" cx="670.79" cy="219.47" r="2.45"/><circle class="cls-10" cx="683.59" cy="201.85" r="4.57"/><circle class="cls-10" cx="616.92" cy="266.29" r="4.57"/><circle class="cls-1" cx="696.24" cy="227.76" r="2.17"/><circle class="cls-9" cx="703.75" cy="246.37" r="3.23"/><circle class="cls-1" cx="512.99" cy="301.54" r="5.61" transform="translate(-62.97 451.05) rotate(-45)"/><circle class="cls-1" cx="588.33" cy="290.31" r="5.61" transform="translate(-32.96 501.04) rotate(-45)"/><circle class="cls-9" cx="566.27" cy="333.06" r="5.92" transform="translate(-69.65 497.97) rotate(-45)"/><circle class="cls-9" cx="602.79" cy="355.32" r="5.92" transform="translate(-74.7 530.31) rotate(-45)"/><circle class="cls-10" cx="578.43" cy="256.15" r="5.92" transform="translate(-11.71 484.04) rotate(-45)"/><circle class="cls-10" cx="485.77" cy="217.27" r="4.49" transform="translate(-11.36 407.13) rotate(-45)"/><circle class="cls-10" cx="512.99" cy="246.37" r="8.38" transform="translate(-23.96 434.89) rotate(-45)"/><circle class="cls-10" cx="643.18" cy="195.03" r="8.38" transform="translate(50.47 511.92) rotate(-45)"/><circle class="cls-1" cx="512.99" cy="195.03" r="3.98" transform="translate(12.34 419.86) rotate(-45)"/><circle class="cls-9" cx="546.85" cy="209.42" r="5.92" transform="translate(12.09 448.02) rotate(-45)"/><circle class="cls-9" cx="616.92" cy="314.86" r="5.92" transform="translate(-41.95 528.45) rotate(-45)"/><circle class="cls-9" cx="602.79" cy="225.59" r="5.92" transform="translate(17.04 492.31) rotate(-45)"/></g></g></g></g></svg>