<svg xmlns="http://www.w3.org/2000/svg" viewBox="0 0 465.96 466.17"><defs><style>.cls-1{opacity:0.39;}.cls-2{fill:#fff;}</style></defs><title>emblem_white</title><g id="Layer_2" data-name="Layer 2"><g id="Layer_1-2" data-name="Layer 1"><g class="cls-1"><path class="cls-2" d="M192.19,209.19l-65.87-65.87a35.33,35.33,0,0,0-50,0l-66,66a35.33,35.33,0,0,0,0,50L76.2,325.19a35.33,35.33,0,0,0,50,0l66-66A35.33,35.33,0,0,0,192.19,209.19Z"/><path class="cls-2" d="M256.55,274a35.33,35.33,0,0,0-50,0l-66,66a35.33,35.33,0,0,0,0,50l65.87,65.87a35.33,35.33,0,0,0,50,0l66-66a35.33,35.33,0,0,0,0-50Z"/><path class="cls-2" d="M455.63,206.64l-65.87-65.87a35.33,35.33,0,0,0-50,0l-66,66a35.33,35.33,0,0,0,0,50l65.87,65.87a35.33,35.33,0,0,0,50,0l66-66A35.33,35.33,0,0,0,455.63,206.64Z"/><path class="cls-2" d="M209.19,192.19a35.33,35.33,0,0,0,50,0l66-66a35.33,35.33,0,0,0,0-50L259.32,10.33a35.33,35.33,0,0,0-50,0l-66,66a35.33,35.33,0,0,0,0,50Z"/></g></g></g></svg>
