<svg xmlns="http://www.w3.org/2000/svg" viewBox="0 0 299.28 334.01"><defs><style>.cls-1{fill:#26cad3;}</style></defs><title>Asset 1</title><g id="Layer_2" data-name="Layer 2"><g id="Layer_1-2" data-name="Layer 1"><path class="cls-1" d="M119.33,103.41a4.22,4.22,0,0,0,2.36-.74c18.41-12.37,28.22-29.3,31-40,2-7.76,1.07-15.67-2.41-20.16A8.25,8.25,0,0,0,143.63,39c-4.32,0-13.31,0-21.06,30.07-2,7.57-4.41,17.28-7.36,29.05a4.13,4.13,0,0,0,.75,3.62A4.32,4.32,0,0,0,119.33,103.41ZM299,182.13l-1.67,6.77q-1.86,7.53-3.81,15.37a8.16,8.16,0,0,1-7.91,6.27l-.55,0c-2-.14-4-.21-6-.21-28.31,0-43,14.51-58.92,39.58a4.21,4.21,0,0,0,0,4.6c8.5,12.57,20.44,26.51,44.59,34.5a8.25,8.25,0,0,1,5.34,9.79q-2.69,10.76-5.44,21.9a8.28,8.28,0,0,1-8.06,6.25,8.46,8.46,0,0,1-2.53-.39c-22-7-39.76-18.37-54.27-34.77a4.2,4.2,0,0,0-6.52.25c-13.48,18-36.27,42-78.41,42-1.35,0-2.72,0-4.12-.08a8.06,8.06,0,0,1-6.21-3.23,8.27,8.27,0,0,1-1.43-7q3-12.12,5.65-22.51a8.2,8.2,0,0,1,7.7-6.2c25.49-.59,38.65-14.26,55.39-41a4.29,4.29,0,0,0,.1-4.37c-11.57-20.41-19.91-33.13-38.15-37.7a42.66,42.66,0,0,0-10.35-1.29c-22.24,0-40.47,17.63-47.57,46L67.81,288.5a8.21,8.21,0,0,1-8,6.27H36.61a8.25,8.25,0,0,1-8-10.23l31.08-124.7a4.19,4.19,0,0,0-3.25-5.13,69.71,69.71,0,0,1-41.86-25.47A72.23,72.23,0,0,1,.07,93.85a8.17,8.17,0,0,1,2-6.44,8.29,8.29,0,0,1,6.23-2.82H31a8.35,8.35,0,0,1,8.14,6.88,32.45,32.45,0,0,0,6.18,13.74c5,6.45,12.17,10.37,21.18,11.65a4,4,0,0,0,.6,0,4.29,4.29,0,0,0,4.09-3.23c6.62-26.76,10.7-43,13.65-54.33C95,20,114.74,0,143.63,0A46.54,46.54,0,0,1,181,18.1c10.91,13.95,14.47,34.12,9.54,54-6.63,26.66-23.82,49-49.71,64.65a140.83,140.83,0,0,1-36.78,15.47,4.25,4.25,0,0,0-3,3.06L96.5,173.48A2.12,2.12,0,0,0,99.25,176a75.64,75.64,0,0,1,25.13-4.31,78,78,0,0,1,19,2.38c27.05,6.78,41.61,23.86,50.22,36.12a4.19,4.19,0,0,0,6.75.21c21.27-26.7,46.14-39.14,78.27-39.14,4.26,0,8.7.23,13.22.67a8.31,8.31,0,0,1,6,3.49A8.22,8.22,0,0,1,299,182.13Z"/></g></g></svg>