<svg xmlns="http://www.w3.org/2000/svg" viewBox="0 0 299.98 334.85"><defs><style>.cls-1{fill:#fff;opacity:0.5}</style></defs><title>Hatcx_logo_white</title><g id="Layer_2" data-name="Layer 2"><path class="cls-1" d="M299.71 182.57l-1.71 6.79q-1.86 7.55-3.82 15.41a8.18 8.18 0 0 1-7.93 6.28h-.55q-3-.21-6-.21c-28.38 0-43.1 14.54-59.06 39.68a4.22 4.22 0 0 0 0 4.61c8.52 12.6 20.49 26.57 44.7 34.58a8.27 8.27 0 0 1 5.35 9.81q-2.7 10.79-5.45 22a8.3 8.3 0 0 1-8.08 6.27 8.48 8.48 0 0 1-2.54-.39c-22.05-7-39.86-18.41-54.4-34.85a4.21 4.21 0 0 0-6.54.25c-13.51 18-36.36 42.1-78.6 42.1-1.35 0-2.73 0-4.13-.08a8.08 8.08 0 0 1-6.22-3.24 8.29 8.29 0 0 1-1.43-7q3-12.15 5.66-22.56a8.22 8.22 0 0 1 7.72-6.21c25.55-.59 38.74-14.29 55.52-41.1a4.3 4.3 0 0 0 .1-4.38c-11.6-20.46-20-33.21-38.24-37.79a42.77 42.77 0 0 0-10.37-1.29c-22.29 0-40.57 17.67-47.68 46.11L68 289.2a8.23 8.23 0 0 1-8 6.29H36.69a8.27 8.27 0 0 1-8-10.25l31.15-125a4.2 4.2 0 0 0-3.26-5.14 69.88 69.88 0 0 1-42-25.53A72.4 72.4 0 0 1 .06 94.08a8.19 8.19 0 0 1 2-6.46 8.31 8.31 0 0 1 6.25-2.82h22.76a8.37 8.37 0 0 1 8.16 6.9 32.53 32.53 0 0 0 6.19 13.77c5 6.47 12.2 10.39 21.23 11.68a4 4 0 0 0 .6 0 4.3 4.3 0 0 0 4.1-3.24C78 87.08 82.08 70.8 85 59.45 95.22 20.05 115 0 144 0a46.65 46.65 0 0 1 37.46 18.14c10.94 14 14.5 34.2 9.56 54.13-6.65 26.72-23.88 49.12-49.83 64.81a141.16 141.16 0 0 1-36.87 15.51 4.26 4.26 0 0 0-3 3.07l-4.59 18.24a2.13 2.13 0 0 0 2.76 2.53 75.82 75.82 0 0 1 25.19-4.32 78.19 78.19 0 0 1 19 2.39c27.12 6.8 41.71 23.92 50.34 36.21a4.2 4.2 0 0 0 6.77.21c21.32-26.76 46.25-39.23 78.46-39.23 4.27 0 8.72.23 13.25.67a8.33 8.33 0 0 1 6 3.5 8.24 8.24 0 0 1 1.21 6.71zm-180.1-78.91a4.23 4.23 0 0 0 2.37-.74c18.45-12.4 28.29-29.37 31.07-40.1 2-7.78 1.07-15.71-2.42-20.21A8.27 8.27 0 0 0 144 39.1c-4.33 0-13.34 0-21.11 30.14-2 7.59-4.42 17.32-7.38 29.12a4.14 4.14 0 0 0 .75 3.63 4.33 4.33 0 0 0 3.35 1.67z" id="Layer_1-2" data-name="Layer 1"/></g></svg>
