<svg xmlns="http://www.w3.org/2000/svg" viewBox="0 0 459.69 393.95"><defs><style>.cls-1{opacity:0.39;}.cls-2{fill:#2DCCD3;}</style></defs><title>Heart_white</title><g id="Layer_2" data-name="Layer 2"><g id="Layer_1-2" data-name="Layer 1"><g class="cls-1"><path class="cls-2" d="M19.75,186.46a227,227,0,0,0,17.44,25q9.75,12.18,14.24,16.8a84.69,84.69,0,0,0,7.05,6.67l160.07,154.4a16.11,16.11,0,0,0,22.57,0L400.95,235.45Q459.69,176.71,459.69,120q0-56.43-32.58-88.23T337.07,0a102.26,102.26,0,0,0-32.45,5.51,131.34,131.34,0,0,0-30.78,14.88Q259.6,29.75,249.34,38a236.34,236.34,0,0,0-19.5,17.44A236.34,236.34,0,0,0,210.35,38q-10.26-8.21-24.5-17.57A131.35,131.35,0,0,0,155.07,5.51,102.26,102.26,0,0,0,122.62,0q-57.46,0-90,31.8T0,120a112.33,112.33,0,0,0,6,35.39A155.32,155.32,0,0,0,19.75,186.46Z"/></g></g></g></svg>
